<svg xmlns="http://www.w3.org/2000/svg" xmlns:xlink="http://www.w3.org/1999/xlink" width="1920" height="1080" viewBox="0 0 1920 1080">
  <defs>
    <clipPath id="clip-path">
      <rect id="사각형_465" data-name="사각형 465" width="1920" height="1080" fill="#fff"/>
    </clipPath>
  </defs>
  <g id="마스크_그룹_21" data-name="마스크 그룹 21" clip-path="url(#clip-path)">
    <g id="그룹_601" data-name="그룹 601">
      <rect id="사각형_464" data-name="사각형 464" width="1920" height="1080" fill="#eaebed"/>
      <g id="그룹_600" data-name="그룹 600">
        <rect id="사각형_319" data-name="사각형 319" width="110.724" height="110.724" transform="translate(1686.194 865.794) rotate(-164)" fill="#267dff" opacity="0.031"/>
        <rect id="사각형_318" data-name="사각형 318" width="96.879" height="96.879" transform="matrix(0.966, -0.259, 0.259, 0.966, 1880.256, 683.008)" fill="#e81a95" opacity="0.489"/>
        <rect id="사각형_317" data-name="사각형 317" width="110.082" height="110.082" transform="translate(1732.91 340.945) rotate(-60)" fill="#267dff" opacity="0.324"/>
        <rect id="사각형_316" data-name="사각형 316" width="118.893" height="118.893" transform="translate(1564.338 1031.638) rotate(-45)" fill="#267dff" opacity="0.264"/>
        <rect id="사각형_315" data-name="사각형 315" width="34.627" height="34.627" transform="translate(1574.457 768.661) rotate(-104)" fill="#267dff" opacity="0.028"/>
        <rect id="사각형_314" data-name="사각형 314" width="47.212" height="47.212" transform="matrix(-0.588, 0.809, -0.809, -0.588, 1556.976, 686.339)" fill="#e81a95" opacity="0.496"/>
        <rect id="사각형_313" data-name="사각형 313" width="153.85" height="153.85" transform="translate(1526.764 479.234) rotate(47)" fill="#e81a95" opacity="0.591"/>
        <rect id="사각형_312" data-name="사각형 312" width="19.174" height="19.174" transform="matrix(0.719, -0.695, 0.695, 0.719, 1496.035, 292.997)" fill="#267dff" opacity="0.232"/>
        <rect id="사각형_311" data-name="사각형 311" width="142.719" height="142.719" transform="matrix(-0.998, -0.07, 0.07, -0.998, 1436.641, 91.479)" fill="#267dff" opacity="0.449"/>
        <rect id="사각형_310" data-name="사각형 310" width="74.175" height="74.175" transform="matrix(-0.978, 0.208, -0.208, -0.978, 1291.61, 804.565)" fill="#e81a95" opacity="0.711"/>
        <rect id="사각형_309" data-name="사각형 309" width="28.013" height="28.013" transform="translate(1281.06 636.535) rotate(133)" fill="#267dff" opacity="0.083"/>
        <rect id="사각형_308" data-name="사각형 308" width="135.839" height="135.839" transform="matrix(-0.839, -0.545, 0.545, -0.839, 1200.724, 407.35)" fill="#e81a95" opacity="0.75"/>
        <rect id="사각형_307" data-name="사각형 307" width="151.372" height="151.372" transform="translate(1087.286 591.096) rotate(-104)" fill="#267dff" opacity="0.741"/>
        <rect id="사각형_306" data-name="사각형 306" width="10.74" height="10.74" transform="translate(918.939 478.15) rotate(20)" fill="#e81a95" opacity="0.866"/>
        <rect id="사각형_305" data-name="사각형 305" width="123.082" height="123.082" transform="matrix(-0.788, -0.616, 0.616, -0.788, 613.14, 1086.402)" fill="#267dff" opacity="0.293"/>
        <rect id="사각형_304" data-name="사각형 304" width="57.977" height="57.977" transform="translate(634.017 669.349) rotate(-101)" fill="#e81a95" opacity="0.225"/>
        <rect id="사각형_303" data-name="사각형 303" width="55.764" height="55.764" transform="translate(810.729 531.32) rotate(-56)" fill="#e81a95" opacity="0.041"/>
        <rect id="사각형_302" data-name="사각형 302" width="95.553" height="95.553" transform="translate(633.234 245.667) rotate(-132)" fill="#e81a95" opacity="0.469"/>
        <rect id="사각형_301" data-name="사각형 301" width="40.845" height="40.845" transform="matrix(-0.875, 0.485, -0.485, -0.875, 560.324, 1035.163)" fill="#267dff" opacity="0.186"/>
        <rect id="사각형_300" data-name="사각형 300" width="125.326" height="125.326" transform="matrix(0.469, -0.883, 0.883, 0.469, 368.158, 870.931)" fill="#e81a95" opacity="0.643"/>
        <rect id="사각형_299" data-name="사각형 299" width="46.343" height="46.343" transform="translate(410.892 630.713) rotate(103)" fill="#267dff" opacity="0.085"/>
        <rect id="사각형_298" data-name="사각형 298" width="18.621" height="18.621" transform="matrix(-0.105, -0.995, 0.995, -0.105, 288.113, 549.336)" fill="#267dff" opacity="0.28"/>
        <rect id="사각형_297" data-name="사각형 297" width="121.352" height="121.352" transform="translate(320.765 348.195) rotate(-171)" fill="#267dff" opacity="0.142"/>
        <rect id="사각형_296" data-name="사각형 296" width="96.792" height="96.792" transform="matrix(0.951, 0.309, -0.309, 0.951, 274.556, 572.25)" fill="#267dff" opacity="0.402"/>
        <rect id="사각형_295" data-name="사각형 295" width="147.952" height="147.952" transform="translate(161.883 355.485) rotate(48)" fill="#e81a95" opacity="0.38"/>
        <rect id="사각형_294" data-name="사각형 294" width="127.356" height="127.356" transform="matrix(-0.588, -0.809, 0.809, -0.588, 182.817, 273.634)" fill="#267dff" opacity="0.458"/>
        <rect id="사각형_293" data-name="사각형 293" width="50.34" height="50.34" transform="matrix(0.035, 0.999, -0.999, 0.035, 286.509, 6.835)" fill="#e81a95" opacity="0.025"/>
        <ellipse id="타원_39" data-name="타원 39" cx="72.459" cy="74.418" rx="72.459" ry="74.418" transform="matrix(-0.966, -0.259, 0.259, -0.966, 1832.336, 1019.572)" fill="#267dff" opacity="0.675"/>
        <ellipse id="타원_37" data-name="타원 37" cx="65.333" cy="67.099" rx="65.333" ry="67.099" transform="matrix(-0.891, -0.454, 0.454, -0.891, 1888.171, 198.582)" fill="#e81a95" opacity="0.279"/>
        <ellipse id="타원_36" data-name="타원 36" cx="67.786" cy="69.618" rx="67.786" ry="69.618" transform="translate(1294.753 1021.336) rotate(-93)" fill="#e81a95" opacity="0.138"/>
        <ellipse id="타원_35" data-name="타원 35" cx="48.99" cy="50.314" rx="48.99" ry="50.314" transform="matrix(0.998, 0.07, -0.07, 0.998, 1195.422, 315.711)" fill="#267dff" opacity="0.795"/>
        <ellipse id="타원_34" data-name="타원 34" cx="38.864" cy="39.915" rx="38.864" ry="39.915" transform="matrix(-0.799, -0.602, 0.602, -0.799, 1156.6, 69.397)" fill="#267dff" opacity="0.073"/>
        <ellipse id="타원_33" data-name="타원 33" cx="51.784" cy="53.184" rx="51.784" ry="53.184" transform="translate(1003.652 1046.352) rotate(169)" fill="#267dff" opacity="0.049"/>
        <ellipse id="타원_32" data-name="타원 32" cx="39.789" cy="40.864" rx="39.789" ry="40.864" transform="translate(1081.505 752.609) rotate(-11)" fill="#267dff" opacity="0.67"/>
        <ellipse id="타원_31" data-name="타원 31" cx="24.059" cy="24.709" rx="24.059" ry="24.709" transform="translate(880.53 240.747) rotate(14)" fill="#267dff" opacity="0.78"/>
        <ellipse id="타원_30" data-name="타원 30" cx="59.125" cy="60.722" rx="59.125" ry="60.722" transform="matrix(0.259, -0.966, 0.966, 0.259, 1041.645, 166.829)" fill="#e81a95" opacity="0.295"/>
        <ellipse id="타원_29" data-name="타원 29" cx="63.392" cy="65.105" rx="63.392" ry="65.105" transform="translate(836.862 775.852) rotate(59)" fill="#267dff" opacity="0.324"/>
        <ellipse id="타원_28" data-name="타원 28" cx="33.373" cy="34.275" rx="33.373" ry="34.275" transform="translate(556.07 84.068) rotate(-103)" fill="#e81a95" opacity="0.343"/>
        <ellipse id="타원_27" data-name="타원 27" cx="12.309" cy="12.642" rx="12.309" ry="12.642" transform="matrix(0.883, -0.469, 0.469, 0.883, 342.561, 132.106)" fill="#267dff" opacity="0.289"/>
        <ellipse id="타원_26" data-name="타원 26" cx="39.954" cy="41.034" rx="39.954" ry="41.034" transform="translate(276.413 1111.358) rotate(-132)" fill="#267dff" opacity="0.517"/>
        <ellipse id="타원_25" data-name="타원 25" cx="66.671" cy="68.473" rx="66.671" ry="68.473" transform="translate(283.21 766.743) rotate(161)" fill="#267dff" opacity="0.369"/>
        <ellipse id="타원_38" data-name="타원 38" cx="48.15" cy="49.452" rx="48.15" ry="49.452" transform="translate(1654.44 494.445) rotate(-81)" fill="#267dff" opacity="0.361"/>
      </g>
    </g>
  </g>
</svg>
