<svg xmlns="http://www.w3.org/2000/svg" width="19.892" height="19.892" viewBox="0 0 19.892 19.892">
  <path id="Icon_metro-cancel" data-name="Icon metro-cancel" d="M12.516,1.928a9.946,9.946,0,1,0,9.946,9.946,9.946,9.946,0,0,0-9.946-9.946Zm0,18.027A8.081,8.081,0,1,1,20.6,11.874,8.081,8.081,0,0,1,12.516,19.955ZM15.625,6.9l-3.108,3.108L9.408,6.9,7.544,8.766l3.108,3.108L7.544,14.982l1.865,1.865,3.108-3.108,3.108,3.108,1.865-1.865-3.108-3.108,3.108-3.108Z" transform="translate(-2.571 -1.928)" fill="#e81a95"/>
</svg>
