<svg xmlns="http://www.w3.org/2000/svg" width="19.42" height="16.779" viewBox="0 0 19.42 16.779">
  <path id="ic_visibility_off_24px" d="M10.714,6.533a4.417,4.417,0,0,1,4.416,4.416,4.286,4.286,0,0,1-.318,1.616l2.579,2.579a10.436,10.436,0,0,0,3.029-4.195,10.445,10.445,0,0,0-9.714-6.623,10.284,10.284,0,0,0-3.515.618L9.1,6.85A4.286,4.286,0,0,1,10.714,6.533ZM1.883,4.122,3.9,6.135l.406.406A10.424,10.424,0,0,0,1,10.948,10.44,10.44,0,0,0,14.583,16.83l.371.371,2.588,2.579,1.122-1.122L3,3ZM6.767,9.005l1.369,1.369a2.491,2.491,0,0,0-.071.574A2.646,2.646,0,0,0,10.714,13.6a2.491,2.491,0,0,0,.574-.071L12.657,14.9a4.387,4.387,0,0,1-5.89-5.89Zm3.806-.689L13.355,11.1l.018-.141a2.646,2.646,0,0,0-2.649-2.649Z" transform="translate(-1 -3)" fill="#c4c4c4"/>
</svg>
