<svg xmlns="http://www.w3.org/2000/svg" width="16.949" height="16.949" viewBox="0 0 16.949 16.949">
  <g id="Icon_ionic-ios-add-circle-outline" data-name="Icon ionic-ios-add-circle-outline" transform="translate(-3.375 -3.375)">
    <path id="패스_639" data-name="패스 639" d="M18.538,14.2H15.5V11.164a.652.652,0,1,0-1.3,0V14.2H11.164a.624.624,0,0,0-.652.652.631.631,0,0,0,.652.652H14.2v3.035a.631.631,0,0,0,.652.652.649.649,0,0,0,.652-.652V15.5h3.035a.652.652,0,0,0,0-1.3Z" transform="translate(-3.001 -3.001)" fill="#267dff"/>
    <path id="패스_640" data-name="패스 640" d="M11.85,4.516A7.331,7.331,0,1,1,6.663,6.663,7.285,7.285,0,0,1,11.85,4.516m0-1.141a8.475,8.475,0,1,0,8.475,8.475A8.473,8.473,0,0,0,11.85,3.375Z" fill="#267dff"/>
  </g>
</svg>
