<svg xmlns="http://www.w3.org/2000/svg" width="16.428" height="18.775" viewBox="0 0 16.428 18.775">
  <path id="Icon_awesome-trash-alt" data-name="Icon awesome-trash-alt" d="M1.173,17.014a1.76,1.76,0,0,0,1.76,1.76H13.494a1.76,1.76,0,0,0,1.76-1.76V4.694H1.173Zm9.974-9.387a.587.587,0,1,1,1.173,0v8.214a.587.587,0,0,1-1.173,0Zm-3.52,0a.587.587,0,1,1,1.173,0v8.214a.587.587,0,0,1-1.173,0Zm-3.52,0a.587.587,0,1,1,1.173,0v8.214a.587.587,0,0,1-1.173,0ZM15.841,1.173h-4.4L11.1.488A.88.88,0,0,0,10.308,0H6.116a.87.87,0,0,0-.785.488l-.345.686H.587A.587.587,0,0,0,0,1.76V2.934a.587.587,0,0,0,.587.587H15.841a.587.587,0,0,0,.587-.587V1.76A.587.587,0,0,0,15.841,1.173Z" transform="translate(0 0)" fill="#e81a95"/>
</svg>
