<svg xmlns="http://www.w3.org/2000/svg" width="626.138" height="138.447" viewBox="0 0 626.138 138.447">
  <g id="그룹_457" data-name="그룹 457" transform="translate(-405.485 -165.374)">
    <g id="그룹_456" data-name="그룹 456" transform="translate(405.485 165.374)">
      <path id="패스_66" data-name="패스 66" d="M312.966,163.368A4.667,4.667,0,0,1,308.3,158.7V29.589a4.667,4.667,0,0,1,4.668-4.668h63.365A44.757,44.757,0,0,1,394,28.445a43.85,43.85,0,0,1,14.195,9.6,45.979,45.979,0,0,1,9.424,14.241,44.238,44.238,0,0,1,3.524,17.453v6.512a43.5,43.5,0,0,1-3.533,17.369,47.767,47.767,0,0,1-9.378,14.181,41.644,41.644,0,0,1-14.283,9.658,46.046,46.046,0,0,1-17.621,3.389H343.675V158.7a4.667,4.667,0,0,1-4.668,4.668Zm59.029-77.686c4.864,0,8.327-1.046,10.292-3.109,2.049-2.157,3.048-5.289,3.048-9.583,0-4.061-1.036-7.2-3.165-9.592-1.956-2.2-5.377-3.319-10.176-3.319H343.675v25.6Z" transform="translate(-308.298 -24.921)" fill="#fff"/>
      <path id="패스_67" data-name="패스 67" d="M355.741,125.758c-2.675,0-4.841-1.774-4.841-3.963V39.138c0-2.189,2.166-3.963,4.841-3.963h28.595c2.679,0,4.845,1.774,4.845,3.963V121.8c0,2.189-2.166,3.963-4.845,3.963Z" transform="translate(-152.042 12.689)" fill="#fff"/>
      <path id="패스_68" data-name="패스 68" d="M424.947,163.368a46.1,46.1,0,0,1-18.344-3.744,47.956,47.956,0,0,1-25.337-25.337,46.647,46.647,0,0,1-3.739-18.555V72.775a47.842,47.842,0,0,1,13.957-33.9,48.225,48.225,0,0,1,15.124-10.208,46.071,46.071,0,0,1,18.34-3.748h18.662a44.374,44.374,0,0,1,17.444,3.412,43.8,43.8,0,0,1,13.957,9.35,46.859,46.859,0,0,1,9.518,13.845,54.466,54.466,0,0,1,4.518,16.846,4.667,4.667,0,0,1-4.64,5.163H457.062a4.662,4.662,0,0,1-4.584-3.786,17.621,17.621,0,0,0-3.226-7.567c-.4-.518-1.638-2.105-5.863-2.105H425.162a10.092,10.092,0,0,0-8.435,3.72,15.532,15.532,0,0,0-3.393,10.279v40.138a15.954,15.954,0,0,0,3.422,10.419,9.98,9.98,0,0,0,8.407,3.79H443.39c4,0,5.144-1.489,5.527-1.979a22.3,22.3,0,0,0,3.65-7.627,4.662,4.662,0,0,1,4.5-3.412h27.344a4.668,4.668,0,0,1,4.64,5.172,53.133,53.133,0,0,1-4.528,16.529,45.89,45.89,0,0,1-9.536,13.639,44.8,44.8,0,0,1-31.372,12.622Z" transform="translate(-54.38 -24.921)" fill="#fff"/>
      <path id="패스_69" data-name="패스 69" d="M370.038,63.2a19.14,19.14,0,1,1,19.143-19.138A19.158,19.158,0,0,1,370.038,63.2Z" transform="translate(-152.042 -24.921)" fill="#267dff"/>
      <path id="패스_70" data-name="패스 70" d="M523.805,155.895s-5.405-7.151-6.857-9.107q-6.946-9.333-14.1-18.867L477.155,93.2l32.4-42.524-22.9-22.9L457.326,66.455V29.589a4.666,4.666,0,0,0-4.668-4.668H424.666A4.67,4.67,0,0,0,420,29.589V158.7a4.67,4.67,0,0,0,4.668,4.668h27.993a4.666,4.666,0,0,0,4.668-4.668v-36.89l30.117,39.709a4.672,4.672,0,0,0,3.716,1.848h28.917a4.669,4.669,0,0,0,3.729-7.473Z" transform="translate(101.395 -24.921)" fill="#fff"/>
      <path id="패스_71" data-name="패스 71" d="M472.9,27.516a4.681,4.681,0,0,0-4.187-2.6H440.1a4.654,4.654,0,0,0-3.557,1.662l-.014-.014L433.913,30l4.36,4.36h0l11.156,11.156-.014.009,7.389,7.408.061-.084,0,.023,3.281-4.322,0,0,12.29-16.127A4.67,4.67,0,0,0,472.9,27.516Z" transform="translate(152.433 -24.921)" fill="#e81a95"/>
    </g>
  </g>
</svg>
