<svg xmlns="http://www.w3.org/2000/svg" width="50" height="82.888" viewBox="0 0 50 82.888">
  <g id="그룹_402" data-name="그룹 402" transform="translate(-418 -1828.112)">
    <path id="ic_date_range_24px" d="M17,23H12.333v4.667H17Zm9.333,0H21.667v4.667h4.667Zm9.333,0H31v4.667h4.667ZM40.333,6.667H38V2H33.333V6.667H14.667V2H10V6.667H7.667a4.645,4.645,0,0,0-4.643,4.667L3,44a4.665,4.665,0,0,0,4.667,4.667H40.333A4.68,4.68,0,0,0,45,44V11.333A4.68,4.68,0,0,0,40.333,6.667Zm0,37.333H7.667V18.333H40.333Z" transform="translate(419 1826.112)" fill="#707070"/>
    <text id="일정" transform="translate(443 1907)" fill="#707070" font-size="26" font-family="NanumGothic"><tspan x="-24.44" y="0">일정</tspan></text>
  </g>
</svg>
