<svg xmlns="http://www.w3.org/2000/svg" width="432.576" height="66" viewBox="0 0 432.576 66">
  <g id="그룹_527" data-name="그룹 527" transform="translate(-975.424 -80)">
    <g id="그룹_442" data-name="그룹 442" transform="translate(975.424 80)">
      <path id="패스_53" data-name="패스 53" d="M310.3,84.267a2,2,0,0,1-2-2V26.922a2,2,0,0,1,2-2h27.162a19.186,19.186,0,0,1,7.575,1.511,18.8,18.8,0,0,1,6.085,4.114,19.709,19.709,0,0,1,4.04,6.1,18.963,18.963,0,0,1,1.511,7.481v2.791a18.646,18.646,0,0,1-1.515,7.445,20.476,20.476,0,0,1-4.02,6.079,17.851,17.851,0,0,1-6.123,4.14,19.738,19.738,0,0,1-7.553,1.453h-14V82.266a2,2,0,0,1-2,2Zm25.3-33.3c2.085,0,3.57-.448,4.412-1.333a5.707,5.707,0,0,0,1.307-4.108,5.912,5.912,0,0,0-1.357-4.112c-.838-.942-2.305-1.423-4.362-1.423H323.463V50.967Z" transform="translate(-308.298 -24.921)"/>
      <path id="패스_54" data-name="패스 54" d="M352.975,74a1.915,1.915,0,0,1-2.075-1.7V36.874a1.915,1.915,0,0,1,2.075-1.7h12.257a1.916,1.916,0,0,1,2.077,1.7V72.305a1.916,1.916,0,0,1-2.077,1.7Z" transform="translate(-265.658 -14.658)"/>
      <path id="패스_55" data-name="패스 55" d="M397.854,84.267a19.762,19.762,0,0,1-7.863-1.6A20.557,20.557,0,0,1,379.13,71.8a20,20,0,0,1-1.6-7.954V45.434A20.508,20.508,0,0,1,383.51,30.9a20.673,20.673,0,0,1,6.483-4.376,19.749,19.749,0,0,1,7.862-1.607h8a19.022,19.022,0,0,1,7.477,1.463,18.775,18.775,0,0,1,5.983,4.008,20.087,20.087,0,0,1,4.08,5.935,23.349,23.349,0,0,1,1.937,7.221,2,2,0,0,1-1.989,2.213H411.62a2,2,0,0,1-1.965-1.623,7.553,7.553,0,0,0-1.383-3.243c-.172-.222-.7-.9-2.513-.9h-7.813a4.326,4.326,0,0,0-3.616,1.595,6.658,6.658,0,0,0-1.455,4.406V63.2a6.839,6.839,0,0,0,1.467,4.466,4.278,4.278,0,0,0,3.6,1.625h7.813c1.713,0,2.205-.638,2.369-.848a9.56,9.56,0,0,0,1.565-3.269,2,2,0,0,1,1.927-1.463h11.721a2,2,0,0,1,1.989,2.217,22.779,22.779,0,0,1-1.941,7.085,19.673,19.673,0,0,1-4.088,5.847,19.2,19.2,0,0,1-13.448,5.41Z" transform="translate(-239.008 -24.921)"/>
      <path id="패스_56" data-name="패스 56" d="M359.1,41.33a8.2,8.2,0,1,1,8.206-8.2A8.212,8.212,0,0,1,359.1,41.33Z" transform="translate(-265.658 -24.921)" fill="#267dff"/>
      <path id="패스_57" data-name="패스 57" d="M464.5,81.064s-2.317-3.065-2.939-3.9q-2.977-4-6.043-8.088L444.5,54.188l13.89-18.228-9.814-9.816L436,42.725v-15.8a2,2,0,0,0-2-2H422a2,2,0,0,0-2,2V82.266a2,2,0,0,0,2,2h12a2,2,0,0,0,2-2V66.453l12.91,17.022a2,2,0,0,0,1.593.792h12.4a2,2,0,0,0,1.6-3.2Z" transform="translate(-196.499 -24.921)"/>
      <path id="패스_58" data-name="패스 58" d="M450.626,26.033a2.007,2.007,0,0,0-1.795-1.112H436.566a2,2,0,0,0-1.525.712l-.006-.006L433.913,27.1l1.869,1.869h0l4.782,4.782-.006,0,3.167,3.175.026-.036,0,.01,1.407-1.853,0,0,5.268-6.913A2,2,0,0,0,450.626,26.033Z" transform="translate(-182.572 -24.921)" fill="#e81a95"/>
    </g>
    <text id="for_Admin" data-name="for Admin" transform="translate(1264 138)" font-size="30" font-family="SegoeUI-Bold, Segoe UI" font-weight="700"><tspan x="0" y="0">for Admin</tspan></text>
  </g>
</svg>
