<svg xmlns="http://www.w3.org/2000/svg" width="154.66" height="34.197" viewBox="0 0 154.66 34.197">
  <g id="그룹_457" data-name="그룹 457" transform="translate(-405.485 -165.374)">
    <g id="그룹_456" data-name="그룹 456" transform="translate(405.485 165.374)">
      <path id="패스_66" data-name="패스 66" d="M309.451,59.118a1.153,1.153,0,0,1-1.153-1.153V26.074a1.153,1.153,0,0,1,1.153-1.153H325.1a11.055,11.055,0,0,1,4.365.87,10.831,10.831,0,0,1,3.506,2.371A11.356,11.356,0,0,1,335.3,31.68a10.926,10.926,0,0,1,.871,4.311V37.6a10.744,10.744,0,0,1-.873,4.29,11.8,11.8,0,0,1-2.316,3.5,10.286,10.286,0,0,1-3.528,2.386,11.373,11.373,0,0,1-4.352.837h-8.066v9.351a1.153,1.153,0,0,1-1.153,1.153Zm14.581-19.189a3.441,3.441,0,0,0,2.542-.768,3.289,3.289,0,0,0,.753-2.367,3.406,3.406,0,0,0-.782-2.369,3.253,3.253,0,0,0-2.513-.82h-7v6.324Z" transform="translate(-308.298 -24.921)" fill="#fff"/>
      <path id="패스_67" data-name="패스 67" d="M352.1,57.55a1.1,1.1,0,0,1-1.2-.979V36.154a1.1,1.1,0,0,1,1.2-.979h7.063a1.1,1.1,0,0,1,1.2.979V56.571a1.1,1.1,0,0,1-1.2.979Z" transform="translate(-301.781 -23.352)" fill="#fff"/>
      <path id="패스_68" data-name="패스 68" d="M389.24,59.118a11.388,11.388,0,0,1-4.531-.925,11.845,11.845,0,0,1-6.258-6.258,11.522,11.522,0,0,1-.924-4.583V36.741a11.817,11.817,0,0,1,3.447-8.373,11.912,11.912,0,0,1,3.736-2.522,11.38,11.38,0,0,1,4.53-.926h4.61a10.961,10.961,0,0,1,4.309.843,10.819,10.819,0,0,1,3.447,2.309,11.575,11.575,0,0,1,2.351,3.42,13.453,13.453,0,0,1,1.116,4.161,1.153,1.153,0,0,1-1.146,1.275h-6.754a1.152,1.152,0,0,1-1.132-.935,4.352,4.352,0,0,0-.8-1.869c-.1-.128-.4-.52-1.448-.52h-4.5a2.493,2.493,0,0,0-2.083.919,3.837,3.837,0,0,0-.838,2.539v9.914a3.941,3.941,0,0,0,.845,2.573,2.465,2.465,0,0,0,2.076.936h4.5c.987,0,1.271-.368,1.365-.489a5.509,5.509,0,0,0,.9-1.884,1.152,1.152,0,0,1,1.11-.843h6.754a1.153,1.153,0,0,1,1.146,1.278,13.124,13.124,0,0,1-1.118,4.083A11.335,11.335,0,0,1,401.6,56a11.066,11.066,0,0,1-7.749,3.118Z" transform="translate(-297.708 -24.921)" fill="#fff"/>
      <path id="패스_69" data-name="패스 69" d="M355.627,34.377a4.728,4.728,0,1,1,4.728-4.727A4.732,4.732,0,0,1,355.627,34.377Z" transform="translate(-301.781 -24.921)" fill="#267dff"/>
      <path id="패스_70" data-name="패스 70" d="M445.639,57.272s-1.335-1.766-1.694-2.249q-1.716-2.305-3.482-4.66l-6.347-8.577,8-10.5-5.655-5.656-7.246,9.555V26.074a1.153,1.153,0,0,0-1.153-1.153h-6.914A1.153,1.153,0,0,0,420,26.074V57.965a1.153,1.153,0,0,0,1.153,1.153h6.914a1.153,1.153,0,0,0,1.153-1.153V48.853l7.439,9.808a1.154,1.154,0,0,0,.918.457h7.143a1.153,1.153,0,0,0,.921-1.846Z" transform="translate(-291.211 -24.921)" fill="#fff"/>
      <path id="패스_71" data-name="패스 71" d="M443.544,25.562a1.156,1.156,0,0,0-1.034-.641h-7.068a1.15,1.15,0,0,0-.879.41l0,0-.647.847,1.077,1.077h0l2.756,2.756,0,0,1.825,1.83.015-.021v.006l.811-1.068h0l3.036-3.984A1.154,1.154,0,0,0,443.544,25.562Z" transform="translate(-289.082 -24.921)" fill="#e81a95"/>
    </g>
  </g>
</svg>
