<svg id="그룹_575" data-name="그룹 575" xmlns="http://www.w3.org/2000/svg" xmlns:xlink="http://www.w3.org/1999/xlink" width="1254.879" height="767.64" viewBox="0 0 1254.879 767.64">
  <defs>
    <linearGradient id="linear-gradient" x1="27.757" y1="1" x2="27.757" y2="0.003" gradientUnits="objectBoundingBox">
      <stop offset="0" stop-color="gray" stop-opacity="0.251"/>
      <stop offset="0.54" stop-color="gray" stop-opacity="0.122"/>
      <stop offset="1" stop-color="gray" stop-opacity="0.102"/>
    </linearGradient>
  </defs>
  <path id="패스_523" data-name="패스 523" d="M726.523,354.055a34.737,34.737,0,0,0-20.157,2.2,29.7,29.7,0,0,1-24.316-.108,33.968,33.968,0,0,0-28.463.553,17.6,17.6,0,0,1-8.2,2.055c-11.539,0-21.143-11.623-23.138-26.961a22.333,22.333,0,0,0,5.77-6.226c6.767-10.9,17.249-17.9,29.016-17.9s22.117,6.911,28.848,17.705A22.273,22.273,0,0,0,705.115,335.9h.3C714.635,335.953,722.592,343.321,726.523,354.055Z" transform="translate(31.934 -94.929)" fill="#6c63ff" opacity="0.1"/>
  <path id="패스_524" data-name="패스 524" d="M761.609,313.1l-18.655,11.84,11.323-20.6a18.511,18.511,0,0,0-11.287-4.027h-.3a21.826,21.826,0,0,1-3.87-.276l-6.3,4,2.717-4.928a22.453,22.453,0,0,1-11.058-8.414l-11.323,7.212,7.212-12.994c-6.623-7.945-15.542-12.825-25.35-12.825-11.768,0-22.249,7.008-29.016,17.91a21.636,21.636,0,0,1-19.232,10.337h-.637c-12.994,0-23.523,14.736-23.523,32.9s10.529,32.9,23.523,32.9a17.693,17.693,0,0,0,8.2-2.043,33.92,33.92,0,0,1,28.463-.565,29.7,29.7,0,0,0,24.208.06,34,34,0,0,1,28.223.541,17.609,17.609,0,0,0,8.1,2.007c12.994,0,23.523-14.724,23.523-32.9a41.781,41.781,0,0,0-4.94-20.133Z" transform="translate(31.946 -102.116)" fill="#6c63ff" opacity="0.1"/>
  <path id="패스_525" data-name="패스 525" d="M581.138,439.478c.733-.108,1.466-.252,2.188-.433a6.886,6.886,0,0,1-.613,2.091,9,9,0,0,1-3.414,3,1.046,1.046,0,0,0-1.322-.084c-1.551.914-2.789,2.26-4.435,3.053-.577.288-1.2.517-1.743.829a9.543,9.543,0,0,0-3.245,3.378,2.4,2.4,0,0,0-.385,2.4,1.947,1.947,0,0,0,.661.589,3.834,3.834,0,0,0,2.284.685,8.552,8.552,0,0,0,1.442-.3c.481-.084,1.3,0,1.947-.12a10.962,10.962,0,0,0,2.741-.709l3.209-1.118a17.637,17.637,0,0,0,2.656-1.094c.5-.264.986-.589,1.515-.841a11.882,11.882,0,0,1,1.8-.637l1.827-.541a1.96,1.96,0,0,1,.829-.108c.252,0,.469.2.721.276a2.152,2.152,0,0,0,1.2-.108l2.127-.613a4,4,0,0,0,1.262-.517,3.87,3.87,0,0,0,1.13-3.257,24.7,24.7,0,0,0-.625-5.4,1.706,1.706,0,0,0-.685.517c-.216-.313-.469-.6-.7-.877a10.436,10.436,0,0,1-2.116-3.894,6.971,6.971,0,0,0,1.9-2.115c-1.118-4.267-2.272-8.606-4.544-12.38-.745-1.2-1.6-2.4-2.4-3.606-2.212-3.51-2.668-7.945-5.193-11.227a1.947,1.947,0,0,1,0-2.3c.288-.373.757-.745.661-1.2s-.409-.661-.276-.974.216-.24.349-.361c.421-.4.373-1.082.409-1.671a8.245,8.245,0,0,1,1.839-4,2.319,2.319,0,0,1,.673-.733c.228-.144.493-.2.721-.349.817-.5.757-1.695,1.142-2.572.5-1.2,1.779-1.755,2.62-2.692,1.058-1.2,1.322-2.873,2.4-3.918a2.985,2.985,0,0,1,.361-.3,19.122,19.122,0,0,0-.649,5.481c-.108,6.334,1.455,12.9.721,19.232-.577,4.988,2.476,9.977,6.791,12.465a32.454,32.454,0,0,0,5.289,2.248c2.717.974,5.409,1.971,8.065,3.077q2.813,1.2,5.553,2.536a71.253,71.253,0,0,1,6.551,3.666,25.243,25.243,0,0,1,7.068,5.866,5.662,5.662,0,0,0,3.125-1.2c.709.565,1.575.986,2.248,1.611a6.852,6.852,0,0,1,1.767,3.5h-.276l.1,1.875a.793.793,0,0,1-.072.469.929.929,0,0,1-.253.228l-1.442.974c-1.046.709-2.2,1.6-2.26,2.873a1.431,1.431,0,0,0,.312,1.034,2.223,2.223,0,0,0,1.286.577,22.442,22.442,0,0,0,7.621.7,5,5,0,0,0,3.245-1.49,6.394,6.394,0,0,0,1.2-3.113c.313-1.887.577-3.786.781-5.7a12.488,12.488,0,0,1,.769-3.774.445.445,0,0,1,.2-.252h.349a.505.505,0,0,0,.228-.361,23.076,23.076,0,0,0,.673-5.661,3.967,3.967,0,0,0-.228-1.454,2.909,2.909,0,0,0-2.007-1.551,15.491,15.491,0,0,0-2.584-.3,11.728,11.728,0,0,1-2.152-.409,2.067,2.067,0,0,0-.889-.108.637.637,0,0,0-.553.625.719.719,0,0,0,.12.3l-.733-.144c-.589-.108-1.43-.373-2.3-.577v-.457a.9.9,0,0,0-.5-.805l-12.369-6.611-2.32-1.2c-5.072-2.717-10.313-5.217-15.385-7.933-.349.108-.625-.288-.721-.625s-.168-.769-.493-.914-.373-.084-.493-.216a.529.529,0,0,1-.084-.409c.168-2.476,1.935-4.748,1.575-7.212a8.7,8.7,0,0,1-.445-3.1,12.71,12.71,0,0,1,.938-1.959c.6-1.5,0-3.318.661-4.808a11.3,11.3,0,0,0,.9-3.053,20.894,20.894,0,0,1,1.887-6.01,10.687,10.687,0,0,1,1.743-2.656c.372-.409.793-.769,1.142-1.2a9.748,9.748,0,0,0,1.779-4.652,22.346,22.346,0,0,0,.252-9.1,12.887,12.887,0,0,1-.577-3.065c0-1.2.493-2.668-.108-3.666a3.21,3.21,0,0,0,1.2-2.007,2.309,2.309,0,0,1,.168-.817,2.117,2.117,0,0,1,.781-.709,3.257,3.257,0,0,0,1.2-3.221c.637.288,1.31-.361,1.611-1s.541-1.43,1.2-1.695a9.223,9.223,0,0,1,1.406-.2c.745-.192,1.2-.914,1.731-1.478a13.223,13.223,0,0,1,3.979-2.464c4.147-2.1,7.536-5.445,10.818-8.739a36.723,36.723,0,0,0,4.664-5.277,17.113,17.113,0,0,0,1.022-1.695h.084v.1a2.336,2.336,0,0,0,.168.613c.144.493.325.974.493,1.454a10.637,10.637,0,0,0,2.079,3.967,5.291,5.291,0,0,0,.469.421,4.812,4.812,0,0,0,.6.409,7.4,7.4,0,0,0,2.753.829c.361,0,.733.072,1.106.084h1.106l7.573.2c-2.6-3.786-2.8-8.69-2.632-13.294.433-11.8,2.729-23.715.6-35.327a9.2,9.2,0,0,0-1.454-3.943,8.149,8.149,0,0,0-4.808-2.608,28.993,28.993,0,0,1-5.361-1.37,22.2,22.2,0,0,0-4.219-2.007,9.329,9.329,0,0,0-3.366,0c-1.37.2-2.729.445-4.087.721l-.325.072h-1.623l-.132.06-.12.06-.12.06-.12.06-.12.072-.108.072-.108.072-.108.084-.1.072-.108.1-.084.072-.108.108-.072.084a.577.577,0,0,0-.108.132v.072l-.132.192h0a3.439,3.439,0,0,0-.264.565,2.59,2.59,0,0,0-.084.288,5.474,5.474,0,0,0-.108.613v.938a3.809,3.809,0,0,0,.108,1.046,11.419,11.419,0,0,0-.541,19.316,5.086,5.086,0,0,1,0,.565v.12a15.444,15.444,0,0,1-.2,1.971,26.877,26.877,0,0,0-5.637-.493c-1.13,0-2.26.1-3.4.192-1.2-1.442-2.308-3.029-3.39-4.592l-2.5-3.666a37.022,37.022,0,0,1-2.4-3.762c-.613-1.2-1.094-2.4-1.767-3.606-1.406-2.4-3.714-4.4-3.991-7.152l-.661.144c-.361-.6-.817-1.2-.986-1.563a30.5,30.5,0,0,1-2.079-6.106,9.446,9.446,0,0,0-1-3.161,7.066,7.066,0,0,0-1.454-1.539,9.617,9.617,0,0,0-3.125-1.971,4.015,4.015,0,0,0-3.185.18c-.168-.06-.324-.132-.493-.18a3.87,3.87,0,0,0-3.534.409,4.807,4.807,0,0,0-1.563,3.281,8.137,8.137,0,0,0,.841,4.976c.95,1.683,2.608,2.813,4,4.147a16.191,16.191,0,0,1,2.512,3.125,34.138,34.138,0,0,1-.192,7.6c-.18,1.082-.457,2.14-.553,3.221-.349,3.931,1.695,7.861.974,11.731a2.837,2.837,0,0,0,1.322,3.029,15.049,15.049,0,0,0,3.426.938c2.26.577,4.231,2.031,6.5,2.572,1.058.252,2.152.3,3.2.577h.168a7.609,7.609,0,0,0-1.683,3.2c-.457,1.971,0,4.075-.493,6.01a13.693,13.693,0,0,1-2.3,4.411l-5.505,7.957a51.328,51.328,0,0,1-4.051,5.325c-2.524,2.753-6.887,4.94-8.161,8.258l-.108-.24c-1.815,1.334-2.488,3.822-3.943,5.553-.7.841-1.575,1.527-2.344,2.3a25.788,25.788,0,0,0-2.548,3.786,57.7,57.7,0,0,0-5.866,9.339c-.805,1.743-1.43,3.606-2.067,5.361-2.524,7.1-6.635,13.847-8.342,21.2-.421,1.791-1.515,3.414-1.683,5.253a10.218,10.218,0,0,0,1.647,5.565c1.418,2.644,2.969,5.217,4.231,7.933.745,1.587,1.382,3.221,2.2,4.808s2,3.245,2.921,4.916A56.623,56.623,0,0,1,581.138,439.478Zm30.987-134.25-.216-.108a7.693,7.693,0,0,1-2.284-1.5c-2.007-2.164-2.885-5.409-3.51-8.306-.072-.337-.144-.685-.2-1.034A49.135,49.135,0,0,1,612.126,305.228Z" transform="translate(20.423 -102.716)" fill="url(#linear-gradient)"/>
  <path id="패스_526" data-name="패스 526" d="M598.423,276.908a9.316,9.316,0,0,0-1-3.137,7.124,7.124,0,0,0-1.466-1.539,9.614,9.614,0,0,0-3.125-1.947,3.894,3.894,0,0,0-3.606.409,4.735,4.735,0,0,0-1.563,3.257,8.041,8.041,0,0,0,.841,4.94c.962,1.671,2.62,2.789,4,4.123a15.628,15.628,0,0,1,2.62,3.257,9.112,9.112,0,0,0,1.2,1.743,2.247,2.247,0,0,0,1.887.745,3.257,3.257,0,0,0,1.539-.9c.565-.493,2.1-1.394,2.151-2.188s-1.2-2.091-1.454-2.692a30.433,30.433,0,0,1-2.031-6.07Z" transform="translate(24.93 -102.535)" fill="#fbbebe"/>
  <path id="패스_527" data-name="패스 527" d="M629.7,305.151a27.453,27.453,0,0,0-7.585-.938c-4.267.06-8.666,1.094-12.729-.216a22.089,22.089,0,0,1-3.053-1.322,7.837,7.837,0,0,1-2.272-1.49c-2.019-2.152-2.9-5.373-3.522-8.246a53.852,53.852,0,0,1-.962-8.775,6.9,6.9,0,0,1-3.329.877,2.4,2.4,0,0,1-2.32-2.152,35.744,35.744,0,0,1-.156,8.174c-.18,1.07-.457,2.116-.553,3.2-.349,3.894,1.707,7.8.974,11.647a2.813,2.813,0,0,0,1.322,3,14.976,14.976,0,0,0,3.438.938c2.26.577,4.243,2.007,6.515,2.548,1.058.252,2.152.3,3.2.577,1.5.4,2.861,1.2,4.387,1.527,1.142.2,2.32.06,3.486.156s2,.349,2.993.385a8.7,8.7,0,0,0,6.455-3.2,27.756,27.756,0,0,0,3.714-6.7Z" transform="translate(26.061 -99.935)" fill="#f86d70"/>
  <path id="패스_528" data-name="패스 528" d="M629.7,305.151a27.453,27.453,0,0,0-7.585-.938c-4.267.06-8.666,1.094-12.729-.216a22.089,22.089,0,0,1-3.053-1.322,7.837,7.837,0,0,1-2.272-1.49c-2.019-2.152-2.9-5.373-3.522-8.246a53.852,53.852,0,0,1-.962-8.775,6.9,6.9,0,0,1-3.329.877,2.4,2.4,0,0,1-2.32-2.152,35.744,35.744,0,0,1-.156,8.174c-.18,1.07-.457,2.116-.553,3.2-.349,3.894,1.707,7.8.974,11.647a2.813,2.813,0,0,0,1.322,3,14.976,14.976,0,0,0,3.438.938c2.26.577,4.243,2.007,6.515,2.548,1.058.252,2.152.3,3.2.577,1.5.4,2.861,1.2,4.387,1.527,1.142.2,2.32.06,3.486.156s2,.349,2.993.385a8.7,8.7,0,0,0,6.455-3.2,27.756,27.756,0,0,0,3.714-6.7Z" transform="translate(26.061 -99.935)" opacity="0.1"/>
  <g id="그룹_572" data-name="그룹 572" transform="translate(365.396 164.889)" opacity="0.1">
    <path id="패스_529" data-name="패스 529" d="M491.457,670.688v6.19a23.2,23.2,0,0,1-46.4,0v-6.19a23.2,23.2,0,0,1,46.4,0Z" transform="translate(-369.253 -191.178)" fill="#3f3d56"/>
    <path id="패스_530" data-name="패스 530" d="M445.06,589.367v-6.178a23.2,23.2,0,0,1,46.4,0v6.178a22.933,22.933,0,0,1-1,6.707,23.186,23.186,0,0,1-45.4-6.707Z" transform="translate(-369.253 -208.852)" fill="#3f3d56"/>
    <path id="패스_531" data-name="패스 531" d="M491.457,626.9v6.19a23.2,23.2,0,0,1-46.4,0V626.9a23.2,23.2,0,1,1,46.4,0Z" transform="translate(-369.253 -200.023)" fill="#3f3d56"/>
    <path id="패스_532" data-name="패스 532" d="M468.258,691.24a23.271,23.271,0,0,1,23.2,23.211v6.178a23.2,23.2,0,0,1-46.4,0V714.45a23.271,23.271,0,0,1,23.2-23.211Z" transform="translate(-369.253 -182.341)" fill="#3f3d56"/>
    <path id="패스_533" data-name="패스 533" d="M445.06,579.78v5.589a23.186,23.186,0,0,0,45.4,6.695Z" transform="translate(-369.253 -204.855)" opacity="0.1"/>
    <path id="패스_534" data-name="패스 534" d="M445.06,623.53v5.6a23.2,23.2,0,0,0,45.4,6.707Z" transform="translate(-369.253 -196.018)" opacity="0.1"/>
    <path id="패스_535" data-name="패스 535" d="M445.06,667.29v5.589a23.2,23.2,0,0,0,45.4,6.707Z" transform="translate(-369.253 -187.178)" opacity="0.1"/>
    <path id="패스_536" data-name="패스 536" d="M445.06,711v5.589a23.186,23.186,0,0,0,45.4,6.707Z" transform="translate(-369.253 -178.349)" opacity="0.1"/>
    <path id="패스_537" data-name="패스 537" d="M405.333,631.154l1.851,1.418a8.763,8.763,0,0,0,12.477-12.02,8.571,8.571,0,0,0-1.767-1.851l-1.851-1.394a8.767,8.767,0,0,0-10.71,13.883Z" transform="translate(-377.967 -197.643)" fill="#3f3d56"/>
    <path id="패스_538" data-name="패스 538" d="M429.133,627.367l1.851,1.43a8.767,8.767,0,1,1-10.71,13.883l-1.851-1.43a8.767,8.767,0,1,1,10.71-13.883Z" transform="translate(-375.323 -195.611)" fill="#3f3d56"/>
    <path id="패스_539" data-name="패스 539" d="M442.213,637.467l1.851,1.43a8.767,8.767,0,0,1-10.71,13.883l-1.851-1.43a8.767,8.767,0,1,1,10.71-13.883Z" transform="translate(-372.681 -193.571)" fill="#3f3d56"/>
    <path id="패스_540" data-name="패스 540" d="M455.307,647.567l1.851,1.43a8.767,8.767,0,0,1-10.71,13.883l-1.875-1.43a8.767,8.767,0,0,1,10.71-13.883Z" transform="translate(-370.041 -191.531)" fill="#3f3d56"/>
    <path id="패스_541" data-name="패스 541" d="M404.9,630.434l1.683,1.286a8.763,8.763,0,0,0,12.477-12.02Z" transform="translate(-377.365 -196.791)" opacity="0.1"/>
    <path id="패스_542" data-name="패스 542" d="M418,640.534l1.683,1.286a8.763,8.763,0,0,0,12.477-12.02Z" transform="translate(-374.719 -194.751)" opacity="0.1"/>
    <path id="패스_543" data-name="패스 543" d="M431.08,650.634l1.671,1.286A8.763,8.763,0,0,0,445.24,639.9Z" transform="translate(-372.077 -192.711)" opacity="0.1"/>
    <path id="패스_544" data-name="패스 544" d="M416.135,413.265a26.3,26.3,0,1,0,0,52.593,26.3,26.3,0,1,0,0,52.581,26.3,26.3,0,1,0,0,52.6,26.3,26.3,0,1,0,0,52.593l126.834-.006a26.3,26.3,0,1,0,0-52.593,26.3,26.3,0,1,0,0-52.6,26.3,26.3,0,1,0,0-52.584,26.3,26.3,0,1,0,0-52.593,26.3,26.3,0,1,0,0-52.6,26.3,26.3,0,1,0,0-52.584h-5.794c-3.33-22.622-28.848-40.219-59.943-40.219s-56.614,17.6-59.943,40.219h-1.2a26.3,26.3,0,1,0,0,52.593,26.3,26.3,0,1,0,0,52.6Z" transform="translate(-380.547 -267.86)" fill="#267dff"/>
    <path id="패스_545" data-name="패스 545" d="M389.72,327.608a26.372,26.372,0,0,0,26.3,26.3H542.854L416.789,301.32h-.769a26.372,26.372,0,0,0-26.3,26.288Z" transform="translate(-380.432 -261.101)" opacity="0.1"/>
    <path id="패스_546" data-name="패스 546" d="M564.086,371.42a26.444,26.444,0,0,1-26.3,26.3H411l126.077-52.6h.769a26.444,26.444,0,0,1,26.24,26.3Z" transform="translate(-376.133 -252.254)" opacity="0.1"/>
    <path id="패스_547" data-name="패스 547" d="M564.086,458.88a26.372,26.372,0,0,1-26.3,26.288H411L537.077,432.58h.769a26.372,26.372,0,0,1,26.239,26.3Z" transform="translate(-376.133 -234.588)" opacity="0.1"/>
    <path id="패스_548" data-name="패스 548" d="M564.086,546.42a26.372,26.372,0,0,1-26.3,26.288H411L537.077,520.12h.769A26.372,26.372,0,0,1,564.086,546.42Z" transform="translate(-376.133 -216.906)" opacity="0.1"/>
    <path id="패스_549" data-name="패스 549" d="M389.72,415.118a26.372,26.372,0,0,0,26.3,26.3H542.854L416.789,388.83h-.769a26.372,26.372,0,0,0-26.3,26.288Z" transform="translate(-380.432 -243.425)" opacity="0.1"/>
    <path id="패스_550" data-name="패스 550" d="M389.72,502.63a26.444,26.444,0,0,0,26.3,26.3H542.854l-126.065-52.6h-.769a26.444,26.444,0,0,0-26.3,26.3Z" transform="translate(-380.432 -225.751)" opacity="0.1"/>
    <path id="패스_551" data-name="패스 551" d="M405.813,661.542l41.769-22.489a9.832,9.832,0,0,0-9.327-17.3,9.833,9.833,0,1,0-9.316-17.321l-1.911,1.034c-5.108-6.863-16.648-8.125-26.877-2.62s-15.518,15.83-12.609,23.872l-.373.2a9.833,9.833,0,1,0,9.315,17.321,9.836,9.836,0,0,0,9.327,17.321Z" transform="translate(-381.992 -200.89)" fill="#267dff"/>
    <path id="패스_552" data-name="패스 552" d="M383.2,636.463a9.868,9.868,0,0,0,13.318,4L438.246,618l-50.832,5.036-.252.132A9.868,9.868,0,0,0,383.2,636.463Z" transform="translate(-381.984 -197.135)" fill="#267dff" opacity="0.1"/>
    <path id="패스_553" data-name="패스 553" d="M447.36,622.288a9.856,9.856,0,0,1-3.991,13.318L401.6,658.1l32.189-39.666.252-.144a9.868,9.868,0,0,1,13.318,4Z" transform="translate(-378.032 -197.312)" opacity="0.1"/>
  </g>
  <g id="그룹_573" data-name="그룹 573" transform="translate(227.145 563.494)" opacity="0.1">
    <path id="패스_554" data-name="패스 554" d="M298.377,715v1.767a6.659,6.659,0,0,1-13.306,0V715a6.659,6.659,0,1,1,13.306,0Z" transform="translate(-263.319 -577.549)" fill="#3f3d56"/>
    <path id="패스_555" data-name="패스 555" d="M285.07,691.59v-1.779a6.659,6.659,0,0,1,13.306,0v1.779a6.431,6.431,0,0,1-.288,1.923,6.647,6.647,0,0,1-13.018-1.923Z" transform="translate(-263.318 -582.522)" fill="#3f3d56"/>
    <path id="패스_556" data-name="패스 556" d="M298.377,702.456v1.767a6.659,6.659,0,0,1-13.306,0v-1.767a6.659,6.659,0,1,1,13.306,0Z" transform="translate(-263.319 -580.082)" fill="#3f3d56"/>
    <path id="패스_557" data-name="패스 557" d="M291.73,720.83a6.671,6.671,0,0,1,6.647,6.659v1.767a6.659,6.659,0,1,1-13.306,0v-1.767a6.671,6.671,0,0,1,6.659-6.659Z" transform="translate(-263.319 -574.968)" fill="#3f3d56"/>
    <path id="패스_558" data-name="패스 558" d="M285.07,688.89v1.6a6.647,6.647,0,0,0,13.018,1.923Z" transform="translate(-263.318 -581.42)" opacity="0.1"/>
    <path id="패스_559" data-name="패스 559" d="M285.07,701.43v1.6a6.647,6.647,0,0,0,13.018,1.923Z" transform="translate(-263.318 -578.887)" opacity="0.1"/>
    <path id="패스_560" data-name="패스 560" d="M285.07,714v1.6a6.647,6.647,0,0,0,13.018,1.923Z" transform="translate(-263.318 -576.348)" opacity="0.1"/>
    <path id="패스_561" data-name="패스 561" d="M285.07,726.51v1.6a6.647,6.647,0,0,0,13.018,1.923Z" transform="translate(-263.318 -573.821)" opacity="0.1"/>
    <path id="패스_562" data-name="패스 562" d="M273.68,703.607l.529.421a2.512,2.512,0,0,0,3.606-3.45,2.406,2.406,0,0,0-.5-.541l-.529-.409a2.515,2.515,0,0,0-3.077,3.979Z" transform="translate(-265.811 -579.357)" fill="#3f3d56"/>
    <path id="패스_563" data-name="패스 563" d="M280.511,702.528l.529.409a2.512,2.512,0,1,1-3.065,3.979l-.541-.409a2.515,2.515,0,0,1,3.077-3.979Z" transform="translate(-265.058 -578.771)" fill="#3f3d56"/>
    <path id="패스_564" data-name="패스 564" d="M284.25,705.411l.529.409a2.511,2.511,0,1,1-3.065,3.979l-.529-.409a2.512,2.512,0,0,1,3.065-3.979Z" transform="translate(-264.29 -578.18)" fill="#3f3d56"/>
    <path id="패스_565" data-name="패스 565" d="M288,708.311l.529.409a2.512,2.512,0,1,1-3.065,3.979l-.529-.409A2.512,2.512,0,0,1,288,708.311Z" transform="translate(-263.532 -577.594)" fill="#3f3d56"/>
    <path id="패스_566" data-name="패스 566" d="M273.56,703.407l.481.373a2.512,2.512,0,0,0,3.606-3.45Z" transform="translate(-265.643 -579.109)" opacity="0.1"/>
    <path id="패스_567" data-name="패스 567" d="M277.32,706.3l.481.373a2.512,2.512,0,0,0,3.606-3.45Z" transform="translate(-264.884 -578.525)" opacity="0.1"/>
    <path id="패스_568" data-name="패스 568" d="M281.07,709.2l.481.361a2.512,2.512,0,0,0,3.522-.445,2.548,2.548,0,0,0,0-3Z" transform="translate(-264.126 -577.942)" opacity="0.1"/>
    <path id="패스_569" data-name="패스 569" d="M276.746,641.153a7.536,7.536,0,1,0,0,15.073,7.548,7.548,0,0,0,0,15.085,7.537,7.537,0,1,0,0,15.073,7.536,7.536,0,1,0,0,15.073h36.36a7.536,7.536,0,0,0,0-15.073,7.536,7.536,0,0,0,0-15.073,7.549,7.549,0,0,0,0-15.085,7.536,7.536,0,1,0,0-15.073,7.536,7.536,0,1,0,0-15.073,7.537,7.537,0,0,0,0-15.073h-1.659c-.962-6.479-8.282-11.527-17.188-11.527s-16.227,5.048-17.176,11.527h-.337a7.536,7.536,0,1,0,0,15.073,7.536,7.536,0,1,0,0,15.073Z" transform="translate(-266.522 -599.48)" fill="#267dff"/>
    <path id="패스_570" data-name="패스 570" d="M269.21,616.607a7.561,7.561,0,0,0,7.536,7.536h36.36L276.975,609.07h-.228a7.561,7.561,0,0,0-7.536,7.536Z" transform="translate(-266.522 -597.543)" opacity="0.1"/>
    <path id="패스_571" data-name="패스 571" d="M319.2,629.146a7.561,7.561,0,0,1-7.536,7.536H275.3l36.132-15.073h.228A7.561,7.561,0,0,1,319.2,629.146Z" transform="translate(-265.292 -595.01)" opacity="0.1"/>
    <path id="패스_572" data-name="패스 572" d="M319.2,654.268a7.573,7.573,0,0,1-7.536,7.536H275.3l36.132-15.085h.228a7.572,7.572,0,0,1,7.536,7.548Z" transform="translate(-265.292 -589.938)" opacity="0.1"/>
    <path id="패스_573" data-name="패스 573" d="M319.2,679.316a7.561,7.561,0,0,1-7.536,7.536H275.3l36.132-15.073h.228a7.561,7.561,0,0,1,7.536,7.536Z" transform="translate(-265.292 -584.876)" opacity="0.1"/>
    <path id="패스_574" data-name="패스 574" d="M269.21,641.686a7.561,7.561,0,0,0,7.536,7.536h36.36L276.975,634.15h-.228a7.561,7.561,0,0,0-7.536,7.536Z" transform="translate(-266.522 -592.477)" opacity="0.1"/>
    <path id="패스_575" data-name="패스 575" d="M269.21,666.776a7.561,7.561,0,0,0,7.536,7.536h36.36L276.975,659.24h-.228A7.561,7.561,0,0,0,269.21,666.776Z" transform="translate(-266.522 -587.409)" opacity="0.1"/>
    <path id="패스_576" data-name="패스 576" d="M273.589,712.324l12.02-6.455a6.274,6.274,0,0,1-1.527-8.775,2.813,2.813,0,0,0-3.822-1.142l-.541.289c-1.466-1.959-4.808-2.332-7.7-.745s-4.447,4.532-3.606,6.839l-.108.06a6.275,6.275,0,0,1,1.527,8.775A2.825,2.825,0,0,0,273.589,712.324Z" transform="translate(-266.73 -580.286)" fill="#6c63ff"/>
    <path id="패스_577" data-name="패스 577" d="M267.342,705.121a2.825,2.825,0,0,0,3.822,1.2l12.02-6.443-14.628,1.346h-.072a2.825,2.825,0,0,0-1.142,3.894Z" transform="translate(-266.974 -579.2)" opacity="0.1"/>
    <path id="패스_578" data-name="패스 578" d="M285.742,701.067a2.837,2.837,0,0,1-1.142,3.822l-12.02,6.443,9.219-11.371h.072a2.837,2.837,0,0,1,3.87,1.106Z" transform="translate(-265.841 -579.257)" opacity="0.1"/>
  </g>
  <g id="그룹_574" data-name="그룹 574" transform="translate(827.182 45.724)" opacity="0.1">
    <path id="패스_579" data-name="패스 579" d="M834.26,659.753v7.536a28.283,28.283,0,1,0,56.566,0v-7.536a28.283,28.283,0,1,0-56.566,0Z" transform="translate(-752.424 -75.248)" fill="#3f3d56"/>
    <path id="패스_580" data-name="패스 580" d="M890.826,560.619v-7.536a28.283,28.283,0,1,0-56.566,0v7.536a27.8,27.8,0,0,0,1.2,8.174,28.271,28.271,0,0,0,55.291-8.174Z" transform="translate(-752.424 -96.795)" fill="#3f3d56"/>
    <path id="패스_581" data-name="패스 581" d="M834.26,606.413v7.549a28.283,28.283,0,1,0,56.566,0v-7.549a28.283,28.283,0,0,0-56.566,0Z" transform="translate(-752.424 -86.023)" fill="#3f3d56"/>
    <path id="패스_582" data-name="패스 582" d="M862.543,684.8a28.367,28.367,0,0,0-28.283,28.283v7.536a28.283,28.283,0,1,0,56.566,0v-7.536A28.355,28.355,0,0,0,862.543,684.8Z" transform="translate(-752.424 -64.476)" fill="#3f3d56"/>
    <path id="패스_583" data-name="패스 583" d="M890.612,548.93v6.815a28.271,28.271,0,0,1-55.292,8.173Z" transform="translate(-752.21 -91.921)" opacity="0.1"/>
    <path id="패스_584" data-name="패스 584" d="M890.612,602.27v6.815a28.271,28.271,0,0,1-55.292,8.174Z" transform="translate(-752.21 -81.147)" opacity="0.1"/>
    <path id="패스_585" data-name="패스 585" d="M890.612,655.6v6.815a28.271,28.271,0,0,1-55.292,8.174Z" transform="translate(-752.21 -70.374)" opacity="0.1"/>
    <path id="패스_586" data-name="패스 586" d="M890.612,708.93v6.815a28.271,28.271,0,0,1-55.292,8.174Z" transform="translate(-752.21 -59.602)" opacity="0.1"/>
    <path id="패스_587" data-name="패스 587" d="M933.722,611.558l-2.26,1.743a10.686,10.686,0,0,1-15.217-14.676,10.338,10.338,0,0,1,2.164-2.248l2.26-1.743a10.687,10.687,0,0,1,13.054,16.924Z" transform="translate(-736.266 -83.138)" fill="#3f3d56"/>
    <path id="패스_588" data-name="패스 588" d="M904.744,606.948l-2.248,1.719a10.686,10.686,0,1,0,13.054,16.912l2.248-1.731a10.687,10.687,0,0,0-13.054-16.924Z" transform="translate(-739.526 -80.656)" fill="#3f3d56"/>
    <path id="패스_589" data-name="패스 589" d="M888.8,619.254,886.537,621a10.686,10.686,0,1,0,13.054,16.912l2.26-1.731A10.687,10.687,0,0,0,888.8,619.254Z" transform="translate(-742.75 -78.165)" fill="#3f3d56"/>
    <path id="패스_590" data-name="패스 590" d="M872.8,631.594l-2.248,1.731A10.687,10.687,0,1,0,883.6,650.249l2.248-1.743A10.686,10.686,0,1,0,872.8,631.594Z" transform="translate(-745.934 -75.709)" fill="#3f3d56"/>
    <path id="패스_591" data-name="패스 591" d="M933.505,610.682l-2.043,1.575a10.686,10.686,0,0,1-15.217-14.676Z" transform="translate(-736.266 -82.094)" opacity="0.1"/>
    <path id="패스_592" data-name="패스 592" d="M917.523,622.992l-2.031,1.563a10.686,10.686,0,0,1-15.169-14.664Z" transform="translate(-739.467 -79.607)" opacity="0.1"/>
    <path id="패스_593" data-name="패스 593" d="M901.592,635.29l-2.043,1.575A10.686,10.686,0,0,1,884.332,622.2Z" transform="translate(-742.708 -77.121)" opacity="0.1"/>
    <path id="패스_594" data-name="패스 594" d="M953.607,345.954a32.057,32.057,0,1,1,0,64.114,32.054,32.054,0,1,1,0,64.108,32.057,32.057,0,0,1,0,64.1,32.057,32.057,0,0,1,0,64.114H799a32.057,32.057,0,0,1,0-64.114,32.054,32.054,0,1,1,0-64.108,32.057,32.057,0,1,1,0-64.1,32.057,32.057,0,0,1,0-64.114,32.054,32.054,0,1,1,0-64.108,32.057,32.057,0,1,1,0-64.1h7.068c4.063-27.574,35.218-49.029,73.069-49.029s69.006,21.456,73.069,49.029h1.406a32.054,32.054,0,1,1,0,64.108,32.057,32.057,0,0,1,0,64.1Z" transform="translate(-766.176 -168.72)" fill="#267dff"/>
    <path id="패스_595" data-name="패스 595" d="M980.137,241.567a32.141,32.141,0,0,1-32.045,32.045H793.48l153.663-64.1h.949A32.141,32.141,0,0,1,980.137,241.567Z" transform="translate(-760.661 -160.481)" opacity="0.1"/>
    <path id="패스_596" data-name="패스 596" d="M767.6,294.9a32.141,32.141,0,0,0,32.057,32.045h154.6l-153.663-64.1h-.938A32.153,32.153,0,0,0,767.6,294.9Z" transform="translate(-765.889 -149.709)" opacity="0.1"/>
    <path id="패스_597" data-name="패스 597" d="M767.6,401.555a32.153,32.153,0,0,0,32.057,32.057h154.6l-153.663-64.1h-.938A32.141,32.141,0,0,0,767.6,401.555Z" transform="translate(-765.889 -128.162)" opacity="0.1"/>
    <path id="패스_598" data-name="패스 598" d="M767.6,508.227a32.153,32.153,0,0,0,32.057,32.057h154.6L800.595,476.17h-.938A32.153,32.153,0,0,0,767.6,508.227Z" transform="translate(-765.889 -106.618)" opacity="0.1"/>
    <path id="패스_599" data-name="패스 599" d="M980.137,348.227a32.142,32.142,0,0,1-32.045,32.057H793.48L947.143,316.17h.949A32.141,32.141,0,0,1,980.137,348.227Z" transform="translate(-760.661 -138.936)" opacity="0.1"/>
    <path id="패스_600" data-name="패스 600" d="M980.137,454.9a32.141,32.141,0,0,1-32.045,32.045H793.48l153.663-64.1h.949A32.141,32.141,0,0,1,980.137,454.9Z" transform="translate(-760.661 -117.39)" opacity="0.1"/>
    <path id="패스_601" data-name="패스 601" d="M943.491,648.6,892.574,621.2a12.02,12.02,0,0,1,11.371-21.107A12.02,12.02,0,1,1,915.3,578.982l2.332,1.2c6.226-8.414,20.278-9.9,32.742-3.2s18.931,19.3,15.373,29.1l.469.252a12.02,12.02,0,1,1-11.371,21.107A12.02,12.02,0,1,1,943.491,648.6Z" transform="translate(-741.768 -87.103)" fill="#267dff"/>
    <path id="패스_602" data-name="패스 602" d="M968.283,618.047a12.02,12.02,0,0,1-16.239,4.808l-50.9-27.405,61.963,6.13.313.168a12.02,12.02,0,0,1,4.868,16.3Z" transform="translate(-738.915 -82.524)" fill="#267dff" opacity="0.1"/>
    <path id="패스_603" data-name="패스 603" d="M888.129,600.747A12.02,12.02,0,0,0,893,616.986l50.916,27.405-39.245-48.344-.3-.168A12.02,12.02,0,0,0,888.129,600.747Z" transform="translate(-741.831 -82.725)" opacity="0.1"/>
  </g>
  <ellipse id="타원_150" data-name="타원 150" cx="627.44" cy="27.646" rx="627.44" ry="27.646" transform="translate(0 712.348)" fill="#3f3d56"/>
  <ellipse id="타원_151" data-name="타원 151" cx="135.825" cy="18.114" rx="135.825" ry="18.114" transform="translate(467.575 720.678)" opacity="0.1"/>
  <path id="패스_604" data-name="패스 604" d="M598.542,844.994a27.646,27.646,0,0,1-32.766-30.146c3.149-27.838,12.945-72.684,39.738-140.008,31.06-78.057,19.857-96.917-13.426-152.893-10.746-18.09-22.934-38.584-36.06-64.908-33.848-67.624-20.987-119.742-4.279-151.463,17.766-33.764,43.176-51.445,46.012-53.356l26.227,43.392-2.4,2.4c-.06,0,1.2,0,3.029,3.33a104.825,104.825,0,0,0-24.845,31.817c-14.544,29.124-12.621,62.5,5.71,99.128,12.272,24.545,23.908,44.125,34.173,61.4,18.439,31.011,32.995,55.508,37.815,86.435,4.988,32.009-1.2,66.446-20.542,115.151-25.494,64.054-33.656,104.141-36.144,125.656a27.706,27.706,0,0,1-22.2,24.04Z" transform="translate(14.269 -106.13)" fill="#3f3d56"/>
  <path id="패스_605" data-name="패스 605" d="M409,111.244,520.244,0,632.57,111.244H556.232v85.065H485.339V111.785Z" transform="translate(82.615)" fill="#267dff"/>
  <ellipse id="타원_152" data-name="타원 152" cx="70.918" cy="9.46" rx="70.918" ry="9.46" transform="translate(775.285 719.404)" opacity="0.1"/>
  <path id="패스_606" data-name="패스 606" d="M791.684,789.1a14.424,14.424,0,0,1-17.1-15.734c1.635-14.532,6.755-37.947,20.746-73.093,16.215-40.76,10.361-50.6-7.008-79.836-5.613-9.436-12.02-20.145-18.859-33.9-17.645-35.3-10.938-62.5-2.212-79.067a80.389,80.389,0,0,1,24.04-27.862l13.691,22.657-1.274,1.2s.649,0,1.587,1.743a54.665,54.665,0,0,0-12.982,16.612c-7.585,15.205-6.575,32.622,2.993,51.758,6.407,12.813,12.477,23.042,17.838,32.057,9.616,16.191,17.225,28.98,19.749,45.135,2.6,16.708-.613,34.689-10.734,60.1-13.306,33.439-17.573,54.366-18.871,65.6A14.424,14.424,0,0,1,791.7,789.039Z" transform="translate(59.434 -60.199)" fill="#3f3d56"/>
  <path id="패스_607" data-name="패스 607" d="M655.44,343.54l58.08-58.08,58.657,58.08H732.319v44.414H695.3V343.829Z" transform="translate(132.394 57.661)" fill="#267dff"/>
  <ellipse id="타원_153" data-name="타원 153" cx="70.918" cy="9.46" rx="70.918" ry="9.46" transform="translate(289.68 719.404)" opacity="0.1"/>
  <path id="패스_608" data-name="패스 608" d="M380.979,789.1a14.424,14.424,0,0,0,17.1-15.734c-1.635-14.532-6.755-37.947-20.746-73.093-16.215-40.76-10.361-50.6,7.008-79.836,5.613-9.436,12.02-20.145,18.859-33.9,17.645-35.3,10.938-62.5,2.212-79.067a80.389,80.389,0,0,0-24.04-27.862l-13.691,22.657,1.274,1.2s-.649,0-1.587,1.743a54.666,54.666,0,0,1,12.982,16.612c7.585,15.205,6.575,32.622-2.993,51.758-6.407,12.813-12.477,23.042-17.838,32.057-9.616,16.191-17.225,28.98-19.749,45.135-2.6,16.708.613,34.689,10.734,60.1,13.306,33.439,17.573,54.366,18.871,65.6a14.424,14.424,0,0,0,11.587,12.561Z" transform="translate(-25.297 -60.199)" fill="#3f3d56"/>
  <path id="패스_609" data-name="패스 609" d="M368.177,343.54,310.1,285.46,251.44,343.54H291.3v44.414h37.021V343.829Z" transform="translate(50.789 57.661)" fill="#267dff"/>
  <ellipse id="타원_154" data-name="타원 154" cx="25.242" cy="3.005" rx="25.242" ry="3.005" transform="translate(577.504 353.121) rotate(-16.49)" opacity="0.1"/>
  <ellipse id="타원_155" data-name="타원 155" cx="25.242" cy="3.005" rx="25.242" ry="3.005" transform="translate(588.318 377.164) rotate(-16.49)" opacity="0.1"/>
  <ellipse id="타원_156" data-name="타원 156" cx="25.242" cy="3.005" rx="25.242" ry="3.005" transform="translate(600.334 395.187) rotate(-16.49)" opacity="0.1"/>
  <ellipse id="타원_157" data-name="타원 157" cx="25.242" cy="3.005" rx="25.242" ry="3.005" transform="translate(609.96 413.22) rotate(-16.49)" opacity="0.1"/>
  <path id="패스_610" data-name="패스 610" d="M969.62,748.561H918.56a10.59,10.59,0,1,1,0-21.179,10.59,10.59,0,1,1,0-21.167h2.332C922.226,697.1,932.5,690.012,945,690s22.838,7.068,24.148,16.167h.469a10.59,10.59,0,1,1,0,21.167,10.59,10.59,0,0,1,0,21.179Z" transform="translate(89.575 -17.702)" fill="#267dff"/>
  <path id="패스_611" data-name="패스 611" d="M978.356,714.076a10.6,10.6,0,0,1-10.578,10.59H916.73l50.724-21.215h.313a10.614,10.614,0,0,1,10.59,10.626Z" transform="translate(91.417 -14.985)" opacity="0.1"/>
  <path id="패스_612" data-name="패스 612" d="M908.17,731.771a10.614,10.614,0,0,0,10.589,10.578H969.82L919.06,721.23h-.276A10.626,10.626,0,0,0,908.17,731.771Z" transform="translate(89.687 -11.394)" opacity="0.1"/>
  <path id="패스_613" data-name="패스 613" d="M706.88,733.785H677.9a6.01,6.01,0,0,1,0-12.02,6.01,6.01,0,0,1,0-12.02h1.334c.745-5.169,6.587-9.2,13.679-9.2s12.933,4,13.7,9.171h.264a6.01,6.01,0,0,1,0,12.02,6.01,6.01,0,0,1,0,12.02Z" transform="translate(41.961 -15.571)" fill="#267dff"/>
  <path id="패스_614" data-name="패스 614" d="M711.88,714.21a6.01,6.01,0,0,1-6.01,6.01H676.89l28.848-12.02h.132A6.01,6.01,0,0,1,711.88,714.21Z" transform="translate(42.971 -14.026)" opacity="0.1"/>
  <path id="패스_615" data-name="패스 615" d="M672.05,724.24a6.01,6.01,0,0,0,6.01,6.01h28.968L678.18,718.23H678a6.01,6.01,0,0,0-5.95,6.01Z" transform="translate(41.993 -12)" opacity="0.1"/>
  <path id="패스_616" data-name="패스 616" d="M261.952,768.374h-61.3a12.705,12.705,0,1,1,0-25.4,12.705,12.705,0,1,1,0-25.4h2.789c1.6-10.926,13.943-19.436,28.932-19.448s27.345,8.474,28.968,19.388h.553a12.705,12.705,0,0,1,0,25.4,12.705,12.705,0,0,1,0,25.4Z" transform="translate(-55.871 -16.06)" fill="#267dff"/>
  <path id="패스_617" data-name="패스 617" d="M272.433,727.013a12.729,12.729,0,0,1-12.681,12.7h-61.3l60.845-25.458h.373A12.753,12.753,0,0,1,272.433,727.013Z" transform="translate(-53.67 -12.802)" opacity="0.1"/>
  <path id="패스_618" data-name="패스 618" d="M188.22,748.2a12.741,12.741,0,0,0,12.717,12.681h61.3l-60.9-25.338h-.373A12.753,12.753,0,0,0,188.22,748.2Z" transform="translate(-55.736 -8.503)" opacity="0.1"/>
  <path id="패스_619" data-name="패스 619" d="M366.263,289.188a24.424,24.424,0,0,0-14.172,1.514,20.758,20.758,0,0,1-16.948,0,23.8,23.8,0,0,0-19.929.385,12.369,12.369,0,0,1-5.734,1.442c-8.077,0-14.8-8.137-16.191-18.883a15.554,15.554,0,0,0,4.039-4.351c4.736-7.633,12.02-12.525,20.3-12.525s15.494,4.808,20.23,12.393a15.626,15.626,0,0,0,13.414,7.368h.216C357.921,276.519,363.486,281.675,366.263,289.188Z" transform="translate(-34.513 -105.211)" fill="#6c63ff" opacity="0.1"/>
  <path id="패스_620" data-name="패스 620" d="M390.806,260.536l-13.054,8.282,7.921-14.424a12.85,12.85,0,0,0-7.9-2.825h-.2a14.424,14.424,0,0,1-2.7-.192l-4.435,2.8,1.9-3.45a15.782,15.782,0,0,1-7.741-5.878l-7.945,5.036,5-9.1c-4.628-5.553-10.878-8.967-17.741-8.967-8.234,0-15.626,4.892-20.314,12.525a15.205,15.205,0,0,1-13.426,7.212h-.4c-9.087,0-16.467,10.313-16.467,23.03s7.38,23.03,16.467,23.03a12.224,12.224,0,0,0,5.733-1.442,23.8,23.8,0,0,1,19.929-.385,21.035,21.035,0,0,0,8.522,1.827,20.783,20.783,0,0,0,8.414-1.791,23.787,23.787,0,0,1,19.749.385,12.308,12.308,0,0,0,5.673,1.406c9.1,0,16.467-10.313,16.467-23.03a29.268,29.268,0,0,0-3.45-14.051Z" transform="translate(-34.511 -110.251)" fill="#267dff" opacity="0.1"/>
  <path id="패스_621" data-name="패스 621" d="M210.62,399.188a24.425,24.425,0,0,1,14.111,1.515,20.722,20.722,0,0,0,16.936,0,23.8,23.8,0,0,1,19.929.385,12.405,12.405,0,0,0,5.733,1.442c8.077,0,14.809-8.137,16.2-18.883a15.374,15.374,0,0,1-4.039-4.351c-4.736-7.633-12.08-12.525-20.314-12.525s-15.482,4.808-20.217,12.393a15.626,15.626,0,0,1-13.462,7.356h-.2C218.9,386.519,213.324,391.675,210.62,399.188Z" transform="translate(-51.212 -82.992)" fill="#6c63ff" opacity="0.1"/>
  <path id="패스_622" data-name="패스 622" d="M190.718,370.538l13.054,8.282L195.838,364.4a12.873,12.873,0,0,1,7.9-2.825h.216a14.424,14.424,0,0,0,2.7-.192l4.423,2.8-1.9-3.45a15.806,15.806,0,0,0,7.753-5.878l7.921,5.024-5.012-9.1c4.64-5.553,10.878-8.967,17.753-8.967,8.234,0,15.566,4.892,20.314,12.525a15.193,15.193,0,0,0,13.426,7.212h.433c9.1,0,16.467,10.313,16.467,23.03s-7.368,23.03-16.467,23.03a12.3,12.3,0,0,1-5.734-1.442,23.8,23.8,0,0,0-19.929-.385,20.975,20.975,0,0,1-8.51,1.827,20.7,20.7,0,0,1-8.414-1.791,23.811,23.811,0,0,0-19.761.385,12.273,12.273,0,0,1-5.673,1.406c-9.087,0-16.467-10.313-16.467-23.03A29.268,29.268,0,0,1,190.718,370.538Z" transform="translate(-55.927 -88.033)" fill="#267dff" opacity="0.1"/>
  <path id="패스_623" data-name="패스 623" d="M630.665,401.91a6.285,6.285,0,0,1,2.188.685,5.181,5.181,0,0,1,1.911,2.56,22.6,22.6,0,0,1,1.274,8.017,17.188,17.188,0,0,1-.829,6.5,4.062,4.062,0,0,1-1.082,1.695,3.749,3.749,0,0,1-1.49.721,3.979,3.979,0,0,1-3.5-.433,5.553,5.553,0,0,1-1.551-3.606,8.5,8.5,0,0,0-2.079-5.024c-1-.926-2.4-1.394-3.137-2.536-.865-1.37-.409-3.149.144-4.664.469-1.322,1.2-3.991,2.548-4.664S629.234,401.646,630.665,401.91Z" transform="translate(31.861 -76.086)" fill="#fbbebe"/>
  <path id="패스_624" data-name="패스 624" d="M589.544,407.57a10.267,10.267,0,0,0,2.152,3.979c.613.709,1.37,1.563,1.046,2.4a2.043,2.043,0,0,1-.577.781c-4.519,4.423-10.818,6.575-17.128,7.356a.638.638,0,0,1-.3,0c-.18-.084-.228-.312-.252-.517a6.381,6.381,0,0,1,0-1.971,5.866,5.866,0,0,1,2.969-3.462,9.424,9.424,0,0,0,3.486-3.041c.914-1.719.529-3.955,1.611-5.565a5.83,5.83,0,0,1,4.087-2.1c.529-.084,1.683-.685,2.14-.409S589.363,407.029,589.544,407.57Z" transform="translate(22.27 -75.28)" fill="#fbbebe"/>
  <path id="패스_625" data-name="패스 625" d="M631.09,401.727a.637.637,0,0,1,.553-.625,1.887,1.887,0,0,1,.889.12,13.224,13.224,0,0,0,2.152.4,15.618,15.618,0,0,1,2.6.3,2.933,2.933,0,0,1,2.007,1.539,3.868,3.868,0,0,1,.228,1.442,22.834,22.834,0,0,1-.673,5.625.4.4,0,0,1-.228.349.849.849,0,0,1-.349,0,.457.457,0,0,0-.2.24,12.405,12.405,0,0,0-.769,3.762c-.216,1.887-.469,3.774-.781,5.649a6.3,6.3,0,0,1-1.2,3.089,5.108,5.108,0,0,1-3.245,1.49,22.836,22.836,0,0,1-7.645-.7,2.223,2.223,0,0,1-1.286-.577,1.478,1.478,0,0,1-.313-1.022c0-1.2,1.2-2.152,2.26-2.849l1.563-.95a.769.769,0,0,0,.252-.228.866.866,0,0,0,.072-.469l-.1-1.851a5.289,5.289,0,0,1,4.58,2.909c.2.4.4.865.805,1.022a1.07,1.07,0,0,0,1.262-.769,3.233,3.233,0,0,0,0-1.623c-.841-4.531-.637-9.2-1.2-13.775a3.054,3.054,0,0,0-.469-1.442C631.607,402.448,631.15,402.184,631.09,401.727Z" transform="translate(32.049 -76.059)" fill="#f86d70"/>
  <path id="패스_626" data-name="패스 626" d="M579.259,417.339c-.216.349-.553.613-.745.986a.829.829,0,0,0,.156,1.094,1.07,1.07,0,0,0,.673.072,22.634,22.634,0,0,0,12.2-5.517,8.413,8.413,0,0,0,1.491-1.647c.4-.6.733-1.334,1.406-1.587a24.384,24.384,0,0,1,.637,5.361,3.811,3.811,0,0,1-1.2,3.233,3.883,3.883,0,0,1-1.2.517l-2.128.6a2.151,2.151,0,0,1-1.2.108,5.33,5.33,0,0,0-.733-.264,1.731,1.731,0,0,0-.817.1l-1.827.541a10.433,10.433,0,0,0-1.815.625c-.529.252-1.01.577-1.515.853a18.87,18.87,0,0,1-2.656,1.07l-3.221,1.118a11.36,11.36,0,0,1-2.741.709,11.751,11.751,0,0,0-1.947.108c-.649.108-.95.252-1.454.3a3.907,3.907,0,0,1-2.284-.673,2.259,2.259,0,0,1-.661-.6c-.457-.709,0-1.659.4-2.4a9.3,9.3,0,0,1,3.258-3.366c.565-.312,1.2-.541,1.743-.817,1.647-.793,2.885-2.128,4.435-3.041S579.944,416.209,579.259,417.339Z" transform="translate(20.871 -74.11)" fill="#f86d70"/>
  <path id="패스_627" data-name="패스 627" d="M614.92,310.888a13.437,13.437,0,0,0,5.7,2.224,24.118,24.118,0,0,0,3.221.168,83.477,83.477,0,0,0,13.414-1.118,16.611,16.611,0,0,1-4.219-6.563,11,11,0,0,1-.2-4.111,32.234,32.234,0,0,1,1.2-5.181,34.418,34.418,0,0,1-5.673-.144c-1.07-.108-3.7-1.082-4.64-.337s-.216,3.113-.192,4.243a.456.456,0,0,1,0,.12,13.521,13.521,0,0,1-1.082,4.952,9.316,9.316,0,0,1-7.524,5.745Z" transform="translate(30.453 -97.378)" fill="#fbbebe"/>
  <path id="패스_628" data-name="패스 628" d="M622.185,300.07a11.323,11.323,0,0,0,9.243,1.418,32.241,32.241,0,0,1,1.2-5.181,34.419,34.419,0,0,1-5.673-.144c-1.07-.108-3.7-1.082-4.64-.337S622.161,298.94,622.185,300.07Z" transform="translate(31.855 -97.378)" opacity="0.1"/>
  <circle id="타원_158" data-name="타원 158" cx="11.299" cy="11.299" r="11.299" transform="translate(648.919 181.417)" fill="#fbbebe"/>
  <path id="패스_629" data-name="패스 629" d="M587.4,345.468A5.277,5.277,0,0,0,589.948,350a9.71,9.71,0,0,0,2.765.974,54.366,54.366,0,0,0,15.77,1.947,8.8,8.8,0,0,0,3.341-.7,3.606,3.606,0,0,0,2.068-2.584,1.466,1.466,0,0,1,.938-1.515,3.2,3.2,0,0,0,1.2-3.2c.649.288,1.322-.361,1.623-1s.541-1.418,1.2-1.683a9.014,9.014,0,0,1,1.406-.2c.745-.192,1.2-.914,1.731-1.466a13,13,0,0,1,3.991-2.4c4.159-2.1,7.536-5.421,10.818-8.69a36.343,36.343,0,0,0,4.664-5.229c.373-.553.721-1.118,1.034-1.695a47.687,47.687,0,0,0,2.608-5.95,6.923,6.923,0,0,0,.661-3.414,2.87,2.87,0,0,0,0-.313,6.516,6.516,0,0,0-1.022-2.067,8.654,8.654,0,0,0-4.628-3.81c-1.947-.517-3.943.108-6.01.529a14.665,14.665,0,0,1-2.019.313,18.786,18.786,0,0,1-6.286-.986l-2.248-.613c-1.118-.313-1.683-1.671-2.813-1.911a4.1,4.1,0,0,0-1.527.084,20.746,20.746,0,0,0-6.659,2.176,10.132,10.132,0,0,0-1.286.877,8.222,8.222,0,0,0-3,4.435c-.469,1.959,0,4.039-.5,6.01a13.3,13.3,0,0,1-2.3,4.375l-5.505,7.909a48.085,48.085,0,0,1-4.063,5.277C592.929,338.653,587.484,341.093,587.4,345.468Z" transform="translate(24.895 -95.61)" fill="#f86d70"/>
  <path id="패스_630" data-name="패스 630" d="M601.483,276.908a9.317,9.317,0,0,0-1-3.137,7.13,7.13,0,0,0-1.466-1.539,9.615,9.615,0,0,0-3.125-1.947,3.9,3.9,0,0,0-3.606.409,4.736,4.736,0,0,0-1.563,3.257,8.041,8.041,0,0,0,.841,4.94c.962,1.671,2.62,2.789,4,4.123a15.629,15.629,0,0,1,2.62,3.257,9.112,9.112,0,0,0,1.2,1.743,2.248,2.248,0,0,0,1.887.745,3.258,3.258,0,0,0,1.539-.9c.565-.493,2.1-1.394,2.151-2.188s-1.2-2.091-1.454-2.692a30.429,30.429,0,0,1-2.032-6.07Z" transform="translate(25.548 -102.535)" fill="#fbbebe"/>
  <path id="패스_631" data-name="패스 631" d="M566.927,394.247c1.418,2.62,2.981,5.169,4.243,7.873.733,1.575,1.382,3.2,2.2,4.724s2,3.233,2.933,4.88a56.714,56.714,0,0,1,4.88,13.51,27.188,27.188,0,0,0,9.616-3.378c.192-.12.385-.24.565-.373a6.924,6.924,0,0,0,1.947-2.14c-1.118-4.243-2.272-8.546-4.555-12.284-.733-1.2-1.587-2.4-2.4-3.606-2.224-3.486-2.68-7.885-5.2-11.154a1.911,1.911,0,0,1,0-2.272c.288-.373.757-.733.661-1.2s-.421-.661-.276-.974.216-.24.349-.349c.421-.4.373-1.082.409-1.659a8.21,8.21,0,0,1,1.839-3.991,2.572,2.572,0,0,1,.673-.721c.228-.144.5-.2.733-.349.805-.5.745-1.683,1.13-2.56.517-1.2,1.791-1.731,2.62-2.668,1.07-1.2,1.334-2.849,2.4-3.882a3.119,3.119,0,0,1,.373-.3,18.384,18.384,0,0,0-.661,5.445c-.108,6.286,1.467,12.8.721,19.052-.577,4.964,2.476,9.916,6.8,12.393a32.526,32.526,0,0,0,5.3,2.224c2.716.962,5.421,1.959,8.077,3.065q2.813,1.2,5.553,2.512a68.5,68.5,0,0,1,6.563,3.606,25.24,25.24,0,0,1,7.08,5.818,6.322,6.322,0,0,0,4.568-2.512,17.537,17.537,0,0,0,2.512-4.736,13.055,13.055,0,0,0,1.2-4.459.853.853,0,0,0-.493-.805L626.894,406.4l-2.32-1.2c-5.072-2.692-10.337-5.181-15.41-7.873-.337.1-.625-.288-.721-.625s-.168-.757-.493-.914-.373-.072-.493-.2a.529.529,0,0,1-.084-.409c.168-2.4,1.935-4.712,1.575-7.152a8.57,8.57,0,0,1-.445-3.077,14.436,14.436,0,0,1,.938-1.947c.613-1.49,0-3.293.673-4.808a10.82,10.82,0,0,0,.889-3.041,20.734,20.734,0,0,1,1.9-6.01,10.822,10.822,0,0,1,1.743-2.644c.373-.4.793-.757,1.2-1.2a9.615,9.615,0,0,0,1.779-4.616,22.069,22.069,0,0,0,.253-9.039,13.308,13.308,0,0,1-.577-3.041c0-1.37.613-2.969-.337-3.955a3.04,3.04,0,0,0-1.382-.709,43.813,43.813,0,0,0-6.719-1.2L598.5,341.383a9.616,9.616,0,0,1-3.45-.889,6.887,6.887,0,0,1-2.9-3.714c-1.827,1.322-2.5,3.8-3.955,5.505a27.16,27.16,0,0,1-2.4,2.284,27.644,27.644,0,0,0-2.6,3.2,56.648,56.648,0,0,0-5.866,9.279c-.805,1.731-1.43,3.534-2.079,5.325-2.524,7.056-6.647,13.751-8.414,21.047-.421,1.791-1.515,3.4-1.683,5.217A10.109,10.109,0,0,0,566.927,394.247Z" transform="translate(20.402 -89.049)" fill="#434175"/>
  <path id="패스_632" data-name="패스 632" d="M612,336.131a3.089,3.089,0,0,1,.373,1.527c-.228-1.2-1.8-1.779-1.9-2.909,0-.517,0-.493.373-.216S611.54,335.686,612,336.131Z" transform="translate(29.555 -89.543)" opacity="0.1"/>
  <path id="패스_633" data-name="패스 633" d="M607.936,338.758a2.4,2.4,0,0,1,.709,1.058,2.668,2.668,0,0,1,.144,1.851c-.228-.108-.3-.4-.373-.637a4.482,4.482,0,0,0-.493-1.094c-.18-.3-1.046-1-1.034-1.322S607.707,338.59,607.936,338.758Z" transform="translate(28.831 -88.708)" opacity="0.1"/>
  <path id="패스_634" data-name="패스 634" d="M607.3,307.443a12.02,12.02,0,0,0,2.4,1.587c2.236,1.13,4.712,1.731,6.971,2.825a32.364,32.364,0,0,1,3.233,1.887l6.7,4.243a7.972,7.972,0,0,1,1.478,1.118c.793.865.793,2.4,1.527,3.293a4.459,4.459,0,0,0,3.257,1.5,10.7,10.7,0,0,0,3.606-.613,18.525,18.525,0,0,0,2.067-.757,9.82,9.82,0,0,0,1.983-1.13,5.7,5.7,0,0,0,2.4-3.7,7.427,7.427,0,0,0-.4-3.017,11.31,11.31,0,0,0-.721-1.827,5.932,5.932,0,0,0-.565-.962c-1.539-2.176-4.243-3.2-6.863-3.714-1.382-.264-2.789-.433-4.171-.673a14.657,14.657,0,0,1-2.019.313,18.787,18.787,0,0,1-6.286-.986l-2.248-.613c-1.118-.313-1.683-1.671-2.813-1.911a4.1,4.1,0,0,0-1.527.084,20.748,20.748,0,0,0-6.659,2.176,10.128,10.128,0,0,0-1.358.877Z" transform="translate(28.914 -95.616)" opacity="0.1"/>
  <path id="패스_635" data-name="패스 635" d="M604.119,282c.288,2.729,2.584,4.736,3.991,7.092.685,1.2,1.2,2.4,1.779,3.606a36.523,36.523,0,0,0,2.4,3.726l2.512,3.606a37.728,37.728,0,0,0,4.808,6.094c3.293.565,6.01,3.005,9.159,4.183a46.442,46.442,0,0,0,7.837,1.587c2.62.517,5.325,1.539,6.863,3.714a10.228,10.228,0,0,1,1.286,2.8,7.368,7.368,0,0,1,.4,3.017,5.7,5.7,0,0,1-2.4,3.69A12.489,12.489,0,0,1,638.7,327a10.41,10.41,0,0,1-3.606.613,4.411,4.411,0,0,1-3.257-1.5c-.733-.914-.721-2.4-1.527-3.281a7.357,7.357,0,0,0-1.478-1.118l-6.7-4.243a32.36,32.36,0,0,0-3.233-1.887c-2.26-1.106-4.736-1.695-6.971-2.837s-4.327-2.993-4.808-5.469c-1.358-7.585-6.611-13.979-11.094-20.242.144,0,.1-.361.156-.5a6.491,6.491,0,0,1,3.281-3.318A19.233,19.233,0,0,1,604.119,282Z" transform="translate(26.638 -100.115)" fill="#f86d70"/>
  <path id="패스_636" data-name="패스 636" d="M622.454,282.885a4.05,4.05,0,0,1,.469-2.4,5.3,5.3,0,0,1,3.714-1.959c1.358-.288,2.716-.517,4.087-.721a9.385,9.385,0,0,1,3.378-.06,22.838,22.838,0,0,1,4.219,2,29.231,29.231,0,0,0,5.361,1.37,8.113,8.113,0,0,1,4.808,2.584,9,9,0,0,1,1.43,4c2.14,11.539-.168,23.367-.6,35.1-.168,4.556,0,9.436,2.644,13.222l-7.6-.192c-1.935-.06-4.027-.156-5.565-1.358a9.1,9.1,0,0,1-2.548-4.363,13.5,13.5,0,0,1-.974-3.906c-.12-2.765,1.442-5.469.938-8.174a9.111,9.111,0,0,0-3.486-5.084,31.867,31.867,0,0,1-4.6-4.1c-2.272-2.885-2.7-6.815-2.4-10.481a39.559,39.559,0,0,0,.373-6.515,8.222,8.222,0,0,0-1.719-4.58,6.347,6.347,0,0,1-1.923-4.375Z" transform="translate(31.97 -101)" fill="#434175"/>
  <path id="패스_637" data-name="패스 637" d="M622.927,280.327a5.2,5.2,0,0,1,3.606-1.947,3.534,3.534,0,0,0-1.8,1.418,4.05,4.05,0,0,0-.469,2.4,6.3,6.3,0,0,0,1.947,4.375,8.222,8.222,0,0,1,1.719,4.568,39.664,39.664,0,0,1-.373,6.527c-.276,3.606.156,7.585,2.4,10.469a31.859,31.859,0,0,0,4.6,4.1A9.147,9.147,0,0,1,638,317.228c.5,2.716-1.058,5.421-.938,8.174a13.41,13.41,0,0,0,.974,3.906,9.1,9.1,0,0,0,2.548,4.363c1.539,1.2,3.606,1.31,5.565,1.358l5.385.144c.12.192.24.385.373.577l-7.6-.192c-1.935-.06-4.027-.156-5.565-1.358a9.1,9.1,0,0,1-2.548-4.363,13.5,13.5,0,0,1-.974-3.906c-.12-2.765,1.442-5.469.938-8.174a9.111,9.111,0,0,0-3.426-4.976,31.867,31.867,0,0,1-4.6-4.1c-2.272-2.885-2.7-6.815-2.4-10.481a39.559,39.559,0,0,0,.373-6.515,8.222,8.222,0,0,0-1.719-4.58,6.346,6.346,0,0,1-1.947-4.375,4.049,4.049,0,0,1,.493-2.4Z" transform="translate(31.967 -100.846)" opacity="0.1"/>
  <path id="패스_638" data-name="패스 638" d="M575.37,382.808l13.979,33.956a6.923,6.923,0,0,0,1.947-2.14c-1.118-4.243-2.272-8.546-4.556-12.284-.733-1.2-1.587-2.4-2.4-3.606-2.224-3.486-2.68-7.885-5.2-11.154a1.911,1.911,0,0,1,0-2.272c.288-.373.757-.733.661-1.2s-.421-.661-.276-.974.216-.24.349-.349c.421-.4.373-1.082.409-1.659a8.209,8.209,0,0,1,1.839-3.991,2.572,2.572,0,0,1,.673-.721c.228-.144.5-.2.733-.349.805-.5.745-1.683,1.13-2.56.517-1.2,1.791-1.731,2.62-2.668,1.07-1.2,1.334-2.849,2.4-3.882l.1-.24-1.058-6.563Z" transform="translate(22.465 -84.329)" opacity="0.1"/>
</svg>
