<svg xmlns="http://www.w3.org/2000/svg" width="299.779" height="197.355" viewBox="0 0 299.779 197.355">
  <g id="그룹_496" data-name="그룹 496" transform="translate(-0.011)">
    <path id="패스_95" data-name="패스 95" d="M309.658,216.226q-.518,2.725-1.243,5.394c-.052.207-.111.41-.17.617h-6.72a2.161,2.161,0,0,0-2.159,2.159v19.159c-.2.379-.41.756-.617,1.132-1.067,1.943-2.177,3.864-3.312,5.761a219.02,219.02,0,0,1-75.158,75.115l1.826-4.12-2.011-.139c-14.573-1-29.195-2.1-43.425-5.376-14.887-3.427-29.451-9.37-41.118-19.224s-20.226-23.933-21.413-39.163a44.685,44.685,0,0,1,1.564-15.547c2.736-9.721,8.713-18.468,17.336-23.643,13.546-8.127,31.215-6.471,45.495.29s25.9,17.944,37.245,28.936a143.853,143.853,0,0,0-46.543-48.582c-6.341-4.059-13.071-7.673-18.462-12.932s-9.364-12.624-8.411-20.09c1.082-8.469,8.019-14.9,14.967-19.853,2.776-1.98,5.641-3.858,8.6-5.585,8.336-4.885,17.355-8.571,26.879-9.937,12.9-1.854,26.835.959,36.726,9.447,11.143,9.564,15.714,24.988,15.279,39.743,6.865-9.98,17.453-17.62,29.411-17.944,12.414-.333,24.214,7.51,30.431,18.261S311.98,204.028,309.658,216.226Z" transform="translate(-113.998 -130.052)" fill="#e6e6e6"/>
    <path id="패스_96" data-name="패스 96" d="M492.567,338.945c7.271-.64,13.987-1.388,21.033-3.382,6.829-1.932,13.4-5.168,18.263-10.45,5.229-5.681,8.052-13.06,10.043-20.405,1.11-4.1,2.023-8.248,2.884-12.4q1.4-6.76,2.49-13.581,2.167-13.576,3.094-27.312.112-1.667.205-3.336c.039-.686-1.029-.684-1.067,0q-.762,13.539-2.74,26.973c-1.3,8.8-2.967,17.56-5.08,26.2-1.79,7.321-4.108,14.756-8.7,20.85-4.305,5.715-10.524,9.449-17.238,11.682-6.832,2.272-14.036,3.179-21.176,3.854-.876.083-1.135.162-2.012.239C491.888,337.938,491.882,339.006,492.567,338.945Z" transform="translate(-375.448 -211.322)" fill="#fff"/>
    <path id="패스_97" data-name="패스 97" d="M120.337,493.166a115.653,115.653,0,0,1,27.048,4.766,116.893,116.893,0,0,1,25.19,10.965,114.039,114.039,0,0,1,21.213,15.972,116.851,116.851,0,0,1,16.57,19.758,115.686,115.686,0,0,1,11.857,22.987q.564,1.484,1.086,2.983c.225.644,1.256.367,1.029-.284A116.777,116.777,0,0,0,213,546.753a118.3,118.3,0,0,0-16.254-20.476A115.334,115.334,0,0,0,176,509.717a117.789,117.789,0,0,0-52.3-17.387q-1.68-.141-3.363-.232c-.686-.038-.684,1.03,0,1.067Z" transform="translate(-118.019 -380.437)" fill="#fff"/>
    <path id="패스_98" data-name="패스 98" d="M282.433,165.725a62.855,62.855,0,0,1,16.5,8.063A77.489,77.489,0,0,1,313.02,186.3a103.7,103.7,0,0,1,11.664,16.075,137.137,137.137,0,0,1,9.274,18.855,170.618,170.618,0,0,1,6.754,20.508,192.812,192.812,0,0,1,6.178,42.976,170.71,170.71,0,0,1-.611,20.672,131.669,131.669,0,0,1-3.1,19.031,89.925,89.925,0,0,1-5.6,16.456q-.832,1.8-1.765,3.553c-.323.606.6,1.146.921.539a82.259,82.259,0,0,0,6.3-15.862,122.835,122.835,0,0,0,3.758-18.659,162.334,162.334,0,0,0,1.242-20.63,189.291,189.291,0,0,0-1.292-21.678,195.246,195.246,0,0,0-3.76-21.661,176.76,176.76,0,0,0-6.286-21.1,146.778,146.778,0,0,0-8.741-19.413,112.537,112.537,0,0,0-11.208-16.917,83.452,83.452,0,0,0-13.693-13.569A66.212,66.212,0,0,0,287,166.216q-2.111-.84-4.281-1.52C282.06,164.49,281.779,165.52,282.433,165.725Z" transform="translate(-230.22 -153.993)" fill="#fff"/>
    <ellipse id="타원_42" data-name="타원 42" cx="76.333" cy="3.084" rx="76.333" ry="3.084" transform="translate(39.178 191.186)" fill="#e6e6e6"/>
    <path id="패스_99" data-name="패스 99" d="M662.378,441.137a3.245,3.245,0,0,0-.074.506l-13.249,7.643-3.22-1.854-3.433,4.494,6.889,4.91,15.115-11.924a3.237,3.237,0,1,0-2.028-3.775Z" transform="translate(-479.425 -343.466)" fill="#ffb8b8"/>
    <path id="패스_100" data-name="패스 100" d="M605.471,445.223l10.432,7.435,4.666-5.85-10.141-8.137a4.109,4.109,0,0,0-5.918.82h0a4.109,4.109,0,0,0,.961,5.731Z" transform="translate(-452.692 -342.863)" fill="#e81a95"/>
    <path id="패스_101" data-name="패스 101" d="M425.519,575.321l3.658.958,5.437-13.652-5.4-1.415Z" transform="translate(-294.274 -388.125)" fill="#ffb8b8"/>
    <path id="패스_102" data-name="패스 102" d="M0,0H11.884V4.591H4.591A4.591,4.591,0,0,1,0,0H0Z" transform="matrix(-0.967, -0.253, 0.253, -0.967, 141.067, 193.4)" fill="#2f2e41"/>
    <path id="패스_103" data-name="패스 103" d="M525.192,581.006l3.722-.665-.793-14.674-5.494.981Z" transform="translate(-361.432 -391.206)" fill="#ffb8b8"/>
    <path id="패스_104" data-name="패스 104" d="M0,0H11.884V4.591H4.591A4.591,4.591,0,0,1,0,0H0Z" transform="translate(175.276 191.31) rotate(169.872)" fill="#2f2e41"/>
    <path id="패스_105" data-name="패스 105" d="M606.611,393.478a3.552,3.552,0,0,1,2.112,2.241,15.634,15.634,0,0,1,.834,3.52c.352,2.238.69,4.661-.038,6.734-.854,2.429-3.128,3.7-5.1,3.1s-3.542-2.843-4.078-5.426a13.141,13.141,0,0,1,.9-7.736,6.291,6.291,0,0,1,2.359-3.029,2.328,2.328,0,0,1,3.105.647" transform="translate(-450.181 -311.591)" fill="#2f2e41"/>
    <path id="패스_106" data-name="패스 106" d="M568.5,526.948l7.086,63.47-5.853,2.222-10.795-42.562-15.029,38.916-6.406.356s8.79-60.552,15.3-61.928Z" transform="translate(-406.878 -404.538)" fill="#2f2e41"/>
    <circle id="타원_43" data-name="타원 43" cx="7.575" cy="7.575" r="7.575" transform="translate(148.092 74.837)" fill="#ffb8b8"/>
    <path id="패스_107" data-name="패스 107" d="M597.72,429.734l-8.186-1.068s-5.339,6.406-4.983,17.44-.89,14.414-.89,14.414l17.068.308C598.262,457.436,608.582,437.951,597.72,429.734Z" transform="translate(-438.802 -336.568)" fill="#e81a95"/>
    <path id="패스_108" data-name="패스 108" d="M602.516,499.88a3.252,3.252,0,0,0-.509.044l-10.472-11.148,1.068-3.559-5.161-2.313-3.2,7.83,15.067,11.985a3.237,3.237,0,1,0,3.211-2.838Z" transform="translate(-439.2 -374.078)" fill="#ffb8b8"/>
    <path id="패스_109" data-name="패스 109" d="M595.436,440.463l-4.85,11.857,6.762,3.2,5.6-11.734a4.109,4.109,0,0,0-2.153-5.574h0a4.109,4.109,0,0,0-5.359,2.247Z" transform="translate(-443.59 -342.96)" fill="#e81a95"/>
    <path id="패스_110" data-name="패스 110" d="M585.116,383.221c1.187-.685,1.314-2.336,1.152-3.7s-.431-2.878.369-3.99c.955-1.328,2.872-1.354,4.507-1.4s3.626-.522,4.049-2.1a2.815,2.815,0,0,0-1.178-2.819,8.269,8.269,0,0,0-2.979-1.22,18.3,18.3,0,0,0-7.145-.9,9.109,9.109,0,0,0-7.761,10.172c.387,3.038.949,4.365.581,5.7-.687,2.5-3.649,4.1-3.708,6.685-.046,2.024,1.742,3.585,3.486,4.613a11.7,11.7,0,0,0,4.471,1.7,5.7,5.7,0,0,0,4.5-1.255,6.063,6.063,0,0,0,1.471-5.746,17.585,17.585,0,0,0-2.681-5.567" transform="translate(-431.43 -293.922)" fill="#2f2e41"/>
    <path id="패스_111" data-name="패스 111" d="M825.266,426.948H715.778A2.78,2.78,0,0,0,713,429.724v70.319a2.78,2.78,0,0,0,2.776,2.776H825.266a2.78,2.78,0,0,0,2.776-2.776V429.724A2.78,2.78,0,0,0,825.266,426.948Zm2.159,73.095a2.161,2.161,0,0,1-2.159,2.159H715.778a2.161,2.161,0,0,1-2.159-2.159V429.724a2.161,2.161,0,0,1,2.159-2.159H825.266a2.161,2.161,0,0,1,2.159,2.159Z" transform="translate(-528.251 -335.38)" fill="#3f3d56"/>
    <path id="패스_112" data-name="패스 112" d="M753.17,489.958H735.9a2.625,2.625,0,0,1-2.622-2.622V470.065a2.625,2.625,0,0,1,2.622-2.622H753.17a2.625,2.625,0,0,1,2.622,2.622v17.271A2.625,2.625,0,0,1,753.17,489.958Z" transform="translate(-542.273 -363.386)" fill="#3478dd"/>
    <path id="패스_113" data-name="패스 113" d="M834.094,590.962H736.018a2,2,0,0,1,0-4.009h98.077a2,2,0,1,1,0,4.009Z" transform="translate(-542.782 -446.037)" fill="#ccc"/>
    <path id="패스_114" data-name="패스 114" d="M834.308,559.462H736.231a2,2,0,1,1,0-4.009h98.077a2,2,0,0,1,0,4.009Z" transform="translate(-542.93 -424.252)" fill="#ccc"/>
    <path id="패스_115" data-name="패스 115" d="M864.727,516.452h-14.5a2,2,0,0,1,0-4.009h14.5a2,2,0,0,1,0,4.009Z" transform="translate(-621.77 -394.507)" fill="#ccc"/>
    <path id="패스_116" data-name="패스 116" d="M913.148,484.462H850.231a2,2,0,0,1,0-4.009h62.917a2,2,0,0,1,0,4.009Z" transform="translate(-621.77 -372.383)" fill="#ccc"/>
    <path id="패스_117" data-name="패스 117" d="M783.271,622.962H736.018a2,2,0,0,1,0-4.009h47.254a2,2,0,1,1,0,4.009Z" transform="translate(-542.782 -468.168)" fill="#ccc"/>
  </g>
</svg>
