<svg xmlns="http://www.w3.org/2000/svg" xmlns:xlink="http://www.w3.org/1999/xlink" width="361.006" height="151.613" viewBox="0 0 361.006 151.613">
  <defs>
    <linearGradient id="linear-gradient" x1="-52.727" y1="1" x2="-52.727" gradientUnits="objectBoundingBox">
      <stop offset="0" stop-color="gray" stop-opacity="0.251"/>
      <stop offset="0.54" stop-color="gray" stop-opacity="0.122"/>
      <stop offset="1" stop-color="gray" stop-opacity="0.102"/>
    </linearGradient>
  </defs>
  <g id="그룹_500" data-name="그룹 500" transform="translate(0 0.059)">
    <ellipse id="타원_44" data-name="타원 44" cx="180.503" cy="6.441" rx="180.503" ry="6.441" transform="translate(0 138.672)" fill="#3f3d56"/>
    <path id="패스_119" data-name="패스 119" d="M1039.532,535.77a7.589,7.589,0,0,0,1-3.846c0-3.475-2.147-6.294-4.809-6.294s-4.806,2.819-4.806,6.294a7.589,7.589,0,0,0,1,3.846,7.876,7.876,0,0,0,0,7.692,7.87,7.87,0,0,0,0,7.689,7.876,7.876,0,0,0,0,7.692,7.589,7.589,0,0,0-1,3.846c0,3.475,2.147,6.294,4.806,6.294s4.809-2.819,4.809-6.294a7.589,7.589,0,0,0-1-3.846,7.876,7.876,0,0,0,0-7.692,7.871,7.871,0,0,0,0-7.689A7.876,7.876,0,0,0,1039.532,535.77Z" transform="translate(-718.245 -426.675)" fill="#3f3d56"/>
    <ellipse id="타원_45" data-name="타원 45" cx="4.806" cy="6.294" rx="4.806" ry="6.294" transform="translate(312.662 91.262)" fill="#3f3d56"/>
    <ellipse id="타원_46" data-name="타원 46" cx="4.806" cy="6.294" rx="4.806" ry="6.294" transform="translate(312.662 83.57)" fill="#3f3d56"/>
    <path id="패스_120" data-name="패스 120" d="M976.738,240.095a23.151,23.151,0,0,1-1.791-2.635l12.634-2.073-13.664.1a23.071,23.071,0,0,1-.438-18.247l18.329,9.508-16.9-12.425a23.028,23.028,0,1,1,38.033,25.764,22.72,22.72,0,0,1,2.625,4.2l-16.4,8.524,17.483-5.867a23.041,23.041,0,0,1-3.714,21.624,23.028,23.028,0,1,1-36.193,0,23.028,23.028,0,0,1,0-28.476Z" transform="translate(-677.265 -202.87)" fill="#57b894"/>
    <path id="패스_121" data-name="패스 121" d="M1017.9,370.024a22.927,22.927,0,0,1-4.929,14.238,23.028,23.028,0,1,1-36.193,0C973.68,380.345,1017.9,367.442,1017.9,370.024Z" transform="translate(-677.293 -318.561)" opacity="0.1"/>
    <rect id="사각형_324" data-name="사각형 324" width="255.802" height="139.863" rx="20.42" transform="translate(52.602 2.106)" fill="#f2f2f2"/>
    <path id="패스_122" data-name="패스 122" d="M172,29.5h82.2V162.615H178.263A6.263,6.263,0,0,1,172,156.352Z" transform="translate(-119.245 -20.493)" fill="#3478dd" opacity="0.797"/>
    <path id="패스_123" data-name="패스 123" d="M438.8,216.14v3.555H183V216.14a6.26,6.26,0,0,1,6.263-6.26H432.539A6.26,6.26,0,0,1,438.8,216.14Z" transform="translate(-130.398 -207.771)" fill="#3f3d56"/>
    <circle id="타원_47" data-name="타원 47" cx="1.84" cy="1.84" r="1.84" transform="translate(57.356 5.326)" fill="#fff"/>
    <circle id="타원_48" data-name="타원 48" cx="1.84" cy="1.84" r="1.84" transform="translate(61.957 5.326)" fill="#fff"/>
    <circle id="타원_49" data-name="타원 49" cx="1.84" cy="1.84" r="1.84" transform="translate(66.558 5.326)" fill="#fff"/>
    <path id="패스_124" data-name="패스 124" d="M347.5,429.38" transform="translate(-244.443 -359.947)" fill="none" stroke="#f2f2f2" stroke-miterlimit="10" stroke-width="2"/>
    <path id="패스_125" data-name="패스 125" d="M333.5,428.38" transform="translate(-234.737 -359.253)" fill="none" stroke="#f2f2f2" stroke-miterlimit="10" stroke-width="2"/>
    <rect id="사각형_325" data-name="사각형 325" width="106.431" height="3.374" rx="1.24" transform="translate(187.251 28.52)" fill="#6c63ff" opacity="0.3"/>
    <rect id="사각형_326" data-name="사각형 326" width="22.39" height="7.668" rx="1.24" transform="translate(269.758 34.961)" fill="#3478dd"/>
    <rect id="사각형_327" data-name="사각형 327" width="106.431" height="3.374" rx="1.24" transform="translate(187.251 69.547)" fill="#6c63ff" opacity="0.3"/>
    <rect id="사각형_328" data-name="사각형 328" width="22.39" height="7.668" rx="1.24" transform="translate(269.758 75.988)" fill="#3478dd"/>
    <rect id="사각형_329" data-name="사각형 329" width="106.431" height="3.374" rx="1.24" transform="translate(187.251 111.26)" fill="#6c63ff" opacity="0.3"/>
    <rect id="사각형_330" data-name="사각형 330" width="22.39" height="7.668" rx="1.24" transform="translate(269.758 117.701)" fill="#3478dd"/>
    <circle id="타원_50" data-name="타원 50" cx="15.189" cy="15.189" r="15.189" transform="translate(148.963 61.413)" fill="#3f3d56"/>
    <path id="패스_126" data-name="패스 126" d="M547.2,443.263a.424.424,0,0,1-.064.1,9.5,9.5,0,0,1-.537.794,15.135,15.135,0,0,1-6.671,5.2c-.264.11-.534.212-.807.307a5.389,5.389,0,0,1-.7-.672,5.247,5.247,0,0,1-1.227-2.543,6.44,6.44,0,0,1-1.227.117.815.815,0,0,1-.123,0c-3.159-.055-5.871-2.368-7.082-5.668l-.049-.141a11.468,11.468,0,0,1-.239-6.668h0c.015-.074.04-.147.061-.218,1.037-3.561,3.773-6.156,7.027-6.361h.7c4.122.15,7.441,4.138,7.594,9.125a5.3,5.3,0,0,1,2.334,5.19A5.425,5.425,0,0,1,547.2,443.263Z" transform="translate(-369.643 -358.65)" fill="#192534"/>
    <path id="패스_127" data-name="패스 127" d="M547.342,443.295a9.482,9.482,0,0,1-.537.794,5.012,5.012,0,0,0-.819-1.089,5.781,5.781,0,0,0,.055-.764,5.294,5.294,0,0,0-2.389-4.426c-.169-5.091-3.632-9.159-7.873-9.159-3.03,0-5.659,2.067-6.981,5.1-.034.08-.064.156-.1.239h0c-.11.264-.209.531-.307.81a11.244,11.244,0,0,1,.451-1.65l.043-.043c1.181-3.254,3.819-5.564,6.917-5.7h.7c4.064.245,7.318,4.214,7.475,9.149a5.288,5.288,0,0,1,2.34,5.19A5.23,5.23,0,0,1,547.342,443.295Z" transform="translate(-369.851 -358.581)" opacity="0.1"/>
    <path id="패스_128" data-name="패스 128" d="M536.6,460.366a1.994,1.994,0,0,1-.1.92c-.181.42-.613.8-.494,1.227a.942.942,0,0,0,.662.534c1.322.448,2.76.181,4.159.242a13.413,13.413,0,0,0,1.4.049,2.233,2.233,0,0,0,1.3-.454,11.133,11.133,0,0,1-2.046-1.285,2.3,2.3,0,0,1-.414-.4,2.425,2.425,0,0,1-.359-1.4v-1.46c-1,0-2-.015-3-.015-.307,0-1.3-.077-1.411.27-.055.172.159.678.193.871A8.688,8.688,0,0,1,536.6,460.366Z" transform="translate(-375.115 -380.008)" fill="#a0616a"/>
    <path id="패스_129" data-name="패스 129" d="M536.6,460.366a1.994,1.994,0,0,1-.1.92c-.181.42-.613.8-.494,1.227a.942.942,0,0,0,.662.534c1.322.448,2.76.181,4.159.242a13.413,13.413,0,0,0,1.4.049,2.233,2.233,0,0,0,1.3-.454,11.133,11.133,0,0,1-2.046-1.285,2.3,2.3,0,0,1-.414-.4,2.425,2.425,0,0,1-.359-1.4v-1.46c-1,0-2-.015-3-.015-.307,0-1.3-.077-1.411.27-.055.172.159.678.193.871A8.688,8.688,0,0,1,536.6,460.366Z" transform="translate(-375.115 -380.008)" opacity="0.1"/>
    <circle id="타원_51" data-name="타원 51" cx="3.524" cy="3.524" r="3.524" transform="translate(160.018 72.869)" fill="#a0616a"/>
    <path id="패스_130" data-name="패스 130" d="M533.309,473.448a2.331,2.331,0,0,1-.034.307,9.326,9.326,0,0,1-.5,1.672,8.038,8.038,0,0,1-.466,1.067c-.132.236-.307.454-.448.684l-.2.328a4.46,4.46,0,0,0-.328.693,13.02,13.02,0,0,1-1.8.328,15.041,15.041,0,0,1-1.788.107,16.549,16.549,0,0,1-9.113-2.53s.359-.248.307-.307c0-.141-.015-.279-.015-.42a3.154,3.154,0,0,1,.175-1.067,2.148,2.148,0,0,1,.531-.871c.307-.307.718-.5,1.046-.791a3.1,3.1,0,0,0,.856-1.488h0c.077-.245.132-.506.184-.758a3.68,3.68,0,0,1,.282-1,.875.875,0,0,1,.067-.117,1.2,1.2,0,0,1,.166-.218,3.588,3.588,0,0,1,1.08-.724c.334-.172.8-.307,1.037-.021v.021a4.342,4.342,0,0,1,.193.54c.187.386.708.436,1.132.426a35.9,35.9,0,0,0,4.472-.374l.718-.117c.518-.086.88.368,1.172.81A6.191,6.191,0,0,1,533.309,473.448Z" transform="translate(-363.084 -386.833)" fill="#e71a94"/>
    <path id="패스_131" data-name="패스 131" d="M529.03,486.18c-.328.074-.518.4-.672.705a2.727,2.727,0,0,0-.365,1.638,2.311,2.311,0,0,0,.071.666.883.883,0,0,0,.386.528" transform="translate(-369.567 -399.325)" fill="none" stroke="#000" stroke-miterlimit="10" stroke-width="1" opacity="0.1"/>
    <ellipse id="타원_52" data-name="타원 52" cx="1.945" cy="3.941" rx="1.945" ry="3.941" transform="translate(160.144 74.77) rotate(-75.66)" fill="#192534"/>
    <path id="패스_132" data-name="패스 132" d="M538.6,441.893c-1.874-.478-3.26-1.534-3.374-2.5a.982.982,0,0,0-.184.371c-.267,1.04,1.227,2.319,3.334,2.859s4.033.132,4.294-.92a1,1,0,0,0,.025-.356C542.132,442.117,540.435,442.362,538.6,441.893Z" transform="translate(-374.44 -366.886)" opacity="0.1"/>
    <path id="패스_133" data-name="패스 133" d="M557.454,482.348c0,.534,0,1.064-.034,1.592-.264.11-.534.212-.807.307a11.248,11.248,0,0,1-1.227.35,13.011,13.011,0,0,1-1.8.328,21.052,21.052,0,0,1-.23-3.782h0a6.092,6.092,0,0,1,.988-2.76,2.358,2.358,0,0,1,.893-.862,1.1,1.1,0,0,1,1.175.092,1.681,1.681,0,0,1,.423.782,12.965,12.965,0,0,1,.5,1.764,1.619,1.619,0,0,0,.031.2A12.153,12.153,0,0,1,557.454,482.348Z" transform="translate(-387.137 -393.232)" fill="#a0616a"/>
    <path id="패스_134" data-name="패스 134" d="M527.618,554.412a15.12,15.12,0,0,1-1.84,7.272c-.135.245-.276.494-.436.739a.428.428,0,0,1-.064.1,9.524,9.524,0,0,1-.537.794,15.011,15.011,0,0,1-4.34,4.024l-.089.061a15.693,15.693,0,0,1-1.733.9c-.166.074-.337.144-.509.215s-.331.135-.5.19c-.086.037-.178.068-.267.1h0a.129.129,0,0,0-.031,0c-.187.068-.38.126-.571.184l-.144.034c-.172.052-.344.1-.515.132a12.975,12.975,0,0,1-1.8.328h0a14.8,14.8,0,0,1-1.776.107h-.184a13.832,13.832,0,0,1-2.454-.227l-.147-.025c-.15-.025-.307-.055-.451-.092h0l-.285-.064a8.98,8.98,0,0,1-.9-.245,14.518,14.518,0,0,1-1.758-.653l-.064-.028a15.01,15.01,0,0,1-2.389-1.359,1.619,1.619,0,0,1-.184-.126,15.186,15.186,0,1,1,24-12.364Z" transform="translate(-348.28 -436.097)" fill="#3f3d56"/>
    <path id="패스_135" data-name="패스 135" d="M544.111,569.194a3.224,3.224,0,0,1-6.441,0v-.153a3.221,3.221,0,1,1,6.441,0C544.108,569.09,544.111,569.142,544.111,569.194Z" transform="translate(-376.284 -454.538)" fill="#192534"/>
    <path id="패스_136" data-name="패스 136" d="M544.111,573.875a3.224,3.224,0,0,1-6.441,0v-.153a5.085,5.085,0,0,1,6.441,0C544.108,573.77,544.111,573.822,544.111,573.875Z" transform="translate(-376.284 -459.219)" opacity="0.1"/>
    <circle id="타원_53" data-name="타원 53" cx="5.088" cy="5.088" r="5.088" transform="translate(159.514 113.637)" fill="#192534"/>
    <path id="패스_137" data-name="패스 137" d="M536.169,567.217a3.224,3.224,0,0,1,2.8-3.193,3.224,3.224,0,1,0,0,6.389A3.224,3.224,0,0,1,536.169,567.217Z" transform="translate(-374.648 -453.273)" fill="#192534"/>
    <path id="패스_138" data-name="패스 138" d="M525.58,587.311a3.223,3.223,0,0,1-.543-4.211,3.564,3.564,0,0,0-.307.307,3.224,3.224,0,1,0,4.834,4.263,3.418,3.418,0,0,0,.261-.337A3.224,3.224,0,0,1,525.58,587.311Z" transform="translate(-366.719 -466.518)" fill="#192534"/>
    <path id="패스_139" data-name="패스 139" d="M536.947,606.779a2.829,2.829,0,0,0-.761.267,1.319,1.319,0,0,0-.282,1.42,3.917,3.917,0,0,0,2.073,2.7,5.125,5.125,0,0,0,2.092.307,2.616,2.616,0,0,0,2.119-.712,2.814,2.814,0,0,0,.433-1.061,8.429,8.429,0,0,0,.389-2.822,1.884,1.884,0,0,1-1.356-.227c-.368-.294-.451-.856-.613-1.322a.347.347,0,0,0-.12-.19.389.389,0,0,0-.215-.031,8.679,8.679,0,0,1-1.466-.061c-.307-.04-1.049-.356-1.276-.089-.166.193-.061.782-.19,1.055A1.46,1.46,0,0,1,536.947,606.779Z" transform="translate(-375.007 -481.6)" fill="#ffc1c7"/>
    <path id="패스_140" data-name="패스 140" d="M536.947,606.779a2.829,2.829,0,0,0-.761.267,1.319,1.319,0,0,0-.282,1.42,3.917,3.917,0,0,0,2.073,2.7,5.125,5.125,0,0,0,2.092.307,2.616,2.616,0,0,0,2.119-.712,2.814,2.814,0,0,0,.433-1.061,8.429,8.429,0,0,0,.389-2.822,1.884,1.884,0,0,1-1.356-.227c-.368-.294-.451-.856-.613-1.322a.347.347,0,0,0-.12-.19.389.389,0,0,0-.215-.031,8.679,8.679,0,0,1-1.466-.061c-.307-.04-1.049-.356-1.276-.089-.166.193-.061.782-.19,1.055A1.46,1.46,0,0,1,536.947,606.779Z" transform="translate(-375.007 -481.6)" opacity="0.05"/>
    <circle id="타원_54" data-name="타원 54" cx="3.558" cy="3.558" r="3.558" transform="translate(160.974 117.625)" fill="#ffc1c7"/>
    <path id="패스_141" data-name="패스 141" d="M539.853,613.935c-.025.031-.049.068-.077.1l-.15.2a11.536,11.536,0,0,0-1.819,3.021c-.166.074-.337.144-.509.215s-.331.135-.5.19c-.086.037-.178.067-.267.1h0a.117.117,0,0,0-.031,0c-.187.067-.38.126-.57.184l-.144.034c-.172.052-.343.1-.515.132a12.977,12.977,0,0,1-1.8.328h0a14.813,14.813,0,0,1-1.776.107H531.5a13.838,13.838,0,0,1-2.454-.227l-.147-.025c-.15-.024-.307-.055-.451-.092h0l-.285-.064a8.977,8.977,0,0,1-.9-.245,2.7,2.7,0,0,1,.659-1.38c-.69-.825-1.825-1.15-2.558-1.929a2.461,2.461,0,0,1-.178-.233.979.979,0,0,1-.1-.187.527.527,0,0,1-.04-.163,1.417,1.417,0,0,1-.028-.344,2.914,2.914,0,0,1,.7-2.411,3.176,3.176,0,0,1,1.1-.491,13.47,13.47,0,0,0,1.994-.8,1.594,1.594,0,0,1,.117.429c.061.356.055.73.138,1.083a2.613,2.613,0,0,0,1.092,1.534,4.17,4.17,0,0,0,1.8.653,3.449,3.449,0,0,0,1.73-.46,2,2,0,0,0,.715-.4,1.647,1.647,0,0,0,.4-1.12c0-.4-.046-.81-.021-1.227a.587.587,0,0,1,.015-.126.512.512,0,0,1,.35-.482.653.653,0,0,1,.334.061l1.147.439a7.952,7.952,0,0,1,1.429.659,3.965,3.965,0,0,1,1.788,2.951Z" transform="translate(-367.521 -485.044)" fill="#e81a95"/>
    <path id="패스_142" data-name="패스 142" d="M529.339,625.766l-.147-.025c-.15-.025-.307-.055-.451-.092h0l-.285-.064a8.96,8.96,0,0,1-.9-.245,14.521,14.521,0,0,1-1.757-.653,7.6,7.6,0,0,1-.307-2.889,5.323,5.323,0,0,1,.258-1.227c.644.614,1.742.267,2.472.758a1.533,1.533,0,0,1,.472.54,4.079,4.079,0,0,1,.411,1.255c.046.239.089.482.126.724v.23c.025.172.046.35.055.525A9.309,9.309,0,0,1,529.339,625.766Z" transform="translate(-367.824 -492.495)" opacity="0.1"/>
    <path id="패스_143" data-name="패스 143" d="M528.855,625.117c-.15-.025-.307-.055-.451-.092h0l-.285-.064a8.993,8.993,0,0,1-.9-.245,14.526,14.526,0,0,1-1.757-.653l-.064-.028a7.822,7.822,0,0,1-.39-3.211,5.735,5.735,0,0,1,.252-1.153c.644.613,1.742.273,2.472.764a1.723,1.723,0,0,1,.613.81,5.368,5.368,0,0,1,.267.972c.068.359.132.718.175,1.083a.852.852,0,0,1,.015.153v.242A10.451,10.451,0,0,1,528.855,625.117Z" transform="translate(-367.488 -491.871)" fill="#e81a95"/>
    <path id="패스_144" data-name="패스 144" d="M563.847,623.81a15.694,15.694,0,0,1-1.733.9c-.166.074-.337.144-.509.215s-.331.135-.5.19c-.086.037-.178.068-.267.1h0a.117.117,0,0,0-.031,0c-.187.067-.38.126-.57.184l-.144.034a7.551,7.551,0,0,1,.031-.831c.021-.218.046-.436.077-.653a.321.321,0,0,1,.015-.12.33.33,0,0,0,0-.077c.037-.208.077-.42.117-.629a3.842,3.842,0,0,1,.411-1.254,1.533,1.533,0,0,1,.475-.528c.73-.491,1.84-.156,2.454-.758a5.418,5.418,0,0,1,.248,1.1A7.159,7.159,0,0,1,563.847,623.81Z" transform="translate(-391.828 -492.502)" opacity="0.1"/>
    <path id="패스_145" data-name="패스 145" d="M564.262,623.1l-.089.061a15.7,15.7,0,0,1-1.733.9c-.166.074-.337.144-.509.215s-.331.135-.5.19c-.086.037-.178.067-.267.1h0a.117.117,0,0,0-.031,0c-.187.067-.38.126-.57.184,0-.362,0-.721.031-1.08a1.075,1.075,0,0,1,.025-.279v-.221c.046-.331.1-.653.169-.978a5.364,5.364,0,0,1,.267-.972,1.723,1.723,0,0,1,.613-.81c.73-.491,1.84-.156,2.454-.764a5.246,5.246,0,0,1,.258,1.19A7.183,7.183,0,0,1,564.262,623.1Z" transform="translate(-392.154 -491.851)" fill="#e81a95"/>
    <ellipse id="타원_55" data-name="타원 55" cx="4.27" cy="2.846" rx="4.27" ry="2.846" transform="translate(160.192 114.99)" fill="#192534"/>
    <path id="패스_146" data-name="패스 146" d="M535.477,631.676v.4a.086.086,0,0,0,0,.024h0l-.285-.064a.939.939,0,0,1,0-.163,1.982,1.982,0,0,1,.684-1.5.455.455,0,0,1,.1-.077,1.813,1.813,0,0,1,.552-.307,1.647,1.647,0,0,1,.577-.11.336.336,0,0,1,.08,0,1.138,1.138,0,0,1,.147,0h-.1A1.953,1.953,0,0,0,536,630.5a.649.649,0,0,0-.1.11A1.963,1.963,0,0,0,535.477,631.676Z" transform="translate(-374.564 -498.951)" opacity="0.05"/>
    <path id="패스_147" data-name="패스 147" d="M539.259,631.885a2.492,2.492,0,0,1-.067.57,13.831,13.831,0,0,1-2.454-.227l-.147-.025c-.15-.025-.307-.055-.451-.092h0v-.429a2.218,2.218,0,0,1,.4-1.144.687.687,0,0,1,.1-.117,1.411,1.411,0,0,1,.537-.411,1.2,1.2,0,0,1,.515-.117.206.206,0,0,1,.061,0,.865.865,0,0,1,.126,0A1.915,1.915,0,0,1,539.259,631.885Z" transform="translate(-375.224 -498.958)" fill="#e81a95"/>
    <path id="패스_148" data-name="패스 148" d="M558.634,631.6c-.086.037-.178.067-.267.1h0a1.938,1.938,0,0,0-.546-1.165l-.092-.092a2.014,2.014,0,0,0-1.1-.5h-.1a1.088,1.088,0,0,1,.141,0,.376.376,0,0,1,.083,0,1.8,1.8,0,0,1,.58.11,1.97,1.97,0,0,1,.42.2.36.36,0,0,1,.092.067,1.954,1.954,0,0,1,.788,1.279Z" transform="translate(-389.36 -498.993)" opacity="0.05"/>
    <path id="패스_149" data-name="패스 149" d="M555.49,631.681h0a.117.117,0,0,0-.031,0c-.187.067-.38.126-.57.184l-.144.034c-.172.052-.343.1-.515.132a12.968,12.968,0,0,1-1.8.328h0a2.336,2.336,0,0,1-.046-.469,1.893,1.893,0,0,1,1.383-1.975.792.792,0,0,1,.123,0,.19.19,0,0,1,.058,0,1.2,1.2,0,0,1,.521.117,1.393,1.393,0,0,1,.411.279.589.589,0,0,1,.092.086A2.2,2.2,0,0,1,555.49,631.681Z" transform="translate(-386.483 -498.972)" fill="#e81a95"/>
    <path id="패스_150" data-name="패스 150" d="M538.056,589.442c-2.288,0-4.156-1.2-4.266-2.7v.141c0,1.573,1.914,2.846,4.273,2.846s4.27-1.273,4.27-2.846v-.141C542.209,588.246,540.341,589.442,538.056,589.442Z" transform="translate(-373.595 -469.042)" opacity="0.1"/>
    <path id="패스_151" data-name="패스 151" d="M497.17,284.642a15.152,15.152,0,0,0,1.84,7.269c.138.248.279.5.436.739a.442.442,0,0,0,.067.1,9.01,9.01,0,0,0,.549.785,14.56,14.56,0,0,0,2.19,2.42,5.786,5.786,0,0,0,.479.411,13.633,13.633,0,0,0,1.669,1.193l.092.061a16.491,16.491,0,0,0,1.73.9l.512.212c.169.071.328.138.5.193.086.034.175.064.267.1h.043q.279.1.57.184l.141.034c.172.052.347.1.518.132.233.061.463.113.7.156.359.071.73.132,1.1.175h0a14.771,14.771,0,0,0,1.776.1h.181a14.129,14.129,0,0,0,2.454-.23,1.15,1.15,0,0,0,.147-.025c.15-.025.307-.055.451-.092h0c.1-.018.187-.04.285-.064a8.678,8.678,0,0,0,.9-.242c.181-.058.359-.113.537-.175.359-.126.718-.261,1.061-.414a1.187,1.187,0,0,0,.156-.064l.067-.031a13.984,13.984,0,0,0,1.325-.684c.365-.209.721-.436,1.064-.675H521a1.245,1.245,0,0,0,.159-.11,15.186,15.186,0,1,0-23.988-12.361Z" transform="translate(-348.207 -249.065)" fill="#3f3d56"/>
    <path id="패스_152" data-name="패스 152" d="M545.753,334.637a1.411,1.411,0,0,1,.445.751,1.924,1.924,0,0,1-1.3-.307,16.631,16.631,0,0,0-4.009-1.291.614.614,0,0,1-.307-.117.521.521,0,0,1,.018-.644c.153-.16.442-.138.65-.147a5.922,5.922,0,0,1,4.506,1.742Z" transform="translate(-378.23 -293.041)" fill="#6c63ff"/>
    <path id="패스_153" data-name="패스 153" d="M537.524,331.44a1.841,1.841,0,0,1-1.015,1.021c-.248.089-.515.1-.767.175a.85.85,0,0,0-.595.469,1,1,0,0,0-.046.331,7.135,7.135,0,0,0,.353,3.129,6.854,6.854,0,0,0,1.7,2.132,7.194,7.194,0,0,0,2.61,1.819,1.958,1.958,0,0,0,1.791-.169,2.66,2.66,0,0,0,.5-.58,5.288,5.288,0,0,0,.991-4.9.276.276,0,0,0-.074-.184.288.288,0,0,0-.215-.037,1.264,1.264,0,0,1-1.279-.736,1.918,1.918,0,0,1-.071-.675l.022-1.313a1.115,1.115,0,0,0-.049-.417,1.05,1.05,0,0,0-.549-.475,13.561,13.561,0,0,0-2.233-.88c-.337-.1-.595-.264-.745.1S537.7,331.06,537.524,331.44Z" transform="translate(-374.489 -291.065)" fill="#fbbebe"/>
    <path id="패스_154" data-name="패스 154" d="M537.524,331.44a1.841,1.841,0,0,1-1.015,1.021c-.248.089-.515.1-.767.175a.85.85,0,0,0-.595.469,1,1,0,0,0-.046.331,7.135,7.135,0,0,0,.353,3.129,6.854,6.854,0,0,0,1.7,2.132,7.194,7.194,0,0,0,2.61,1.819,1.958,1.958,0,0,0,1.791-.169,2.66,2.66,0,0,0,.5-.58,5.288,5.288,0,0,0,.991-4.9.276.276,0,0,0-.074-.184.288.288,0,0,0-.215-.037,1.264,1.264,0,0,1-1.279-.736,1.918,1.918,0,0,1-.071-.675l.022-1.313a1.115,1.115,0,0,0-.049-.417,1.05,1.05,0,0,0-.549-.475,13.561,13.561,0,0,0-2.233-.88c-.337-.1-.595-.264-.745.1S537.7,331.06,537.524,331.44Z" transform="translate(-374.489 -291.065)" opacity="0.1"/>
    <circle id="타원_56" data-name="타원 56" cx="4.006" cy="4.006" r="4.006" transform="translate(162.582 33.428)" fill="#fbbebe"/>
    <path id="패스_155" data-name="패스 155" d="M536.918,351.094c.359.071.73.132,1.1.175h0a14.754,14.754,0,0,0,1.776.1h.181a14.131,14.131,0,0,0,2.454-.23,1.129,1.129,0,0,0,.147-.025c.15-.025.307-.055.451-.092h0c.1-.018.187-.04.285-.064a8.706,8.706,0,0,0,.9-.242c.181-.058.359-.113.537-.175.359-.126.718-.261,1.061-.414a7.537,7.537,0,0,1-.218-.831,9.177,9.177,0,0,1-.117-1.816c0-.488.021-.972,0-1.457a3.589,3.589,0,0,0-.169-1.159,1.481,1.481,0,0,0-.748-.868,2.063,2.063,0,0,0-1.595-.08,1.1,1.1,0,0,0-.147.1.765.765,0,0,0-.221.307c-.147.368-.307.739-.448,1.107a3.511,3.511,0,0,1-.359.73,1.809,1.809,0,0,1-1.984.653,1.174,1.174,0,0,1-.132-.052c-.613-.248-1.175-.785-1.816-.641a1.209,1.209,0,0,0-.8.693.312.312,0,0,0-.021.055,3.115,3.115,0,0,0-.221,1.006A13.419,13.419,0,0,0,536.918,351.094Z" transform="translate(-375.652 -300.61)" fill="#f2f2f2"/>
    <path id="패스_156" data-name="패스 156" d="M513.74,339.755a5.8,5.8,0,0,0,.479.411,13.632,13.632,0,0,0,1.669,1.193l.092.061a16.493,16.493,0,0,0,1.73.9l.512.212c.169.071.328.138.5.193.086.034.175.064.267.1h.043q.279.1.571.184l.141.034c.172.052.347.1.518.132.233.061.463.113.7.156.359.071.73.132,1.1.175h0a14.764,14.764,0,0,0,1.776.1h.181a14.128,14.128,0,0,0,2.454-.23,1.134,1.134,0,0,0,.147-.025c.15-.025.307-.055.451-.092h0c.1-.018.187-.04.285-.064a8.678,8.678,0,0,0,.9-.242c.181-.058.359-.113.537-.175.359-.126.718-.261,1.061-.414a1.192,1.192,0,0,0,.156-.064l.067-.031a13.984,13.984,0,0,0,1.325-.684,22.937,22.937,0,0,0,.767-2.454.329.329,0,0,1,0-.049c-.478-.85-.9-1.733-1.377-2.583a1.972,1.972,0,0,0-1.58-1.19,3.864,3.864,0,0,0-1.028-.19,3.864,3.864,0,0,1-.589-.1c-.4-.089-.84-.175-.988,0h0a.052.052,0,0,0-.021.04.841.841,0,0,0,.07.613c.068.193.157.4.2.561a.844.844,0,0,1,.046.245,8.364,8.364,0,0,1-.037,1.077c-.086.521-.374.982-.509,1.488-.061.239-.092.488-.132.73a7.855,7.855,0,0,1-.426,1.6,1.093,1.093,0,0,1-.156.307c-.252.307-.669.19-1.064.132-.288-.245-.273-.681-.307-1.049a5.521,5.521,0,0,0-.558-1.773l-.1-.221c-.307-.635-.613-1.267-.9-1.9a3.36,3.36,0,0,1-.448-2.515c.089-.245.233-.463.331-.7a.75.75,0,0,0,.04-.107,1.024,1.024,0,0,0,.046-.279.614.614,0,0,0-.141-.475.246.246,0,0,0-.061-.064.1.1,0,0,0-.037-.025.73.73,0,0,0-.669-.031,2.8,2.8,0,0,0-.353.156,16.855,16.855,0,0,0-1.739,1.126.871.871,0,0,0-.362.42,3.127,3.127,0,0,1-.058.347c-.086.218-.347.282-.57.331a6.984,6.984,0,0,0-4.454,3.273,3.594,3.594,0,0,0-.38.843A3.513,3.513,0,0,0,513.74,339.755Z" transform="translate(-359.694 -292.853)" fill="#3478dd"/>
    <path id="패스_157" data-name="패스 157" d="M542,308.744a2.91,2.91,0,0,1-2.187.564l.025-.307-1.089.39a2.888,2.888,0,0,0,.715-.767.488.488,0,0,0-.531-.034,1.105,1.105,0,0,0-.4.393,3.577,3.577,0,0,0-.4,3.184.706.706,0,0,1-.7-.046,1.228,1.228,0,0,1-.451-.57.6.6,0,0,0-.285-.365.306.306,0,0,0-.344.153.65.65,0,0,0-.074.39c.021.307.251.613.307.92s.509.552.27.758a3.5,3.5,0,0,1-.871.205.377.377,0,0,1-.251-.248,10.615,10.615,0,0,1-.307-1.724,4.235,4.235,0,0,0-.632-1.254,1.757,1.757,0,0,0-.239-.322.809.809,0,0,1-.233-.267c-.04-.11.037-.273.153-.251a4.788,4.788,0,0,0-.613-.5c.215-.27.423-.546.613-.822.071-.1.144-.218.092-.325a.329.329,0,0,0-.123-.12l-.543-.368c0-.258.512-.163.592-.4a.332.332,0,0,0,0-.2l-.19-.693.724.328a.49.49,0,0,0,.276.064c.19-.028.282-.251.307-.445a1.263,1.263,0,0,1,.074-.57h.981a.641.641,0,0,0-.12-.463l2.417-.135a3.375,3.375,0,0,1,1.227.086.963.963,0,0,0,.408.092.244.244,0,0,0,.239-.279,4.387,4.387,0,0,1,.984.758.949.949,0,0,0,.279.23.307.307,0,0,0,.34-.04c.068-.071.1-.2.2-.2s.11.049.147.1a2.394,2.394,0,0,1,.334.583,2.091,2.091,0,0,0,.506-.135.546.546,0,0,0-.092.613c.08.206.227.38.325.577a2.388,2.388,0,0,1,.193.669c.049.288.049.653-.205.794a.687.687,0,0,1-.705-.159C542.563,308.155,542.455,308.277,542,308.744Z" transform="translate(-373.65 -273.57)" fill="#192534"/>
    <path id="패스_158" data-name="패스 158" d="M515.3,354.085a13.633,13.633,0,0,0,1.669,1.193l.092.061a16.5,16.5,0,0,0,1.73.9l.512.212c.169.071.328.138.5.193.086.034.175.064.267.1h0c-.107-.307-.178-.613-.273-.92a5.2,5.2,0,0,0-1.316-2.165c-.528-.528-1.368-1.3-2.147-.831a2.452,2.452,0,0,0-.613.592,2.744,2.744,0,0,0-.38.561A.783.783,0,0,0,515.3,354.085Z" transform="translate(-360.776 -306.772)" fill="#3478dd"/>
    <path id="패스_159" data-name="패스 159" d="M562.85,355.914c.359-.126.718-.261,1.061-.414a1.2,1.2,0,0,0,.156-.064l.068-.031a13.975,13.975,0,0,0,1.325-.684c.365-.209.721-.436,1.064-.675h.021a6.388,6.388,0,0,1,0-1.027.807.807,0,0,0-.021-.344.815.815,0,0,0-.172-.236,1.419,1.419,0,0,1-.126-.144c-.347-.39-.629-.81-1.227-.748a1.841,1.841,0,0,0-1.365,1.15,1.056,1.056,0,0,0-.068.172,11.908,11.908,0,0,0-.4,1.629c-.08.34-.181.669-.255,1.009C562.9,355.632,562.868,355.773,562.85,355.914Z" transform="translate(-393.741 -305.982)" fill="#3478dd"/>
    <path id="패스_160" data-name="패스 160" d="M337.125,660.43h0l-.135.074Z" transform="translate(-237.157 -520.13)" fill="url(#linear-gradient)"/>
    <path id="패스_161" data-name="패스 161" d="M274.627,551.656c-1.184,3.411.2,8.947.84,11.416a34.357,34.357,0,0,1,.84,5.435,11.453,11.453,0,0,0,4.349-.1l-1.037-5.088c.739-3.015,0-11.069,0-11.069a19.356,19.356,0,0,0,1.84-7.858c.144-4.668,1.294-6.177,1.331-6.226h0c2.371,1.227,5.386,14.48,5.386,14.48-.248,3.211.049,8.153,1.037,10.821a13.421,13.421,0,0,1,.742,5.288,1.629,1.629,0,0,0,1.343.258,9.206,9.206,0,0,0,3.1-1.445s-.543-14.416-.939-14.971,0-3.656,0-3.656l-.644-5.042s.1-8.548-.84-10.03a10.223,10.223,0,0,1-1.034-4.122V529.6l-1.429-1.714s-13.836-1.037-14.876,0a2.979,2.979,0,0,0-.506,1.564,35.4,35.4,0,0,0,.043,5.9s.414,2.718,1.009,5.484a12.047,12.047,0,0,1,0,5.042A15.075,15.075,0,0,1,274.627,551.656Z" transform="translate(-193.501 -427.921)" fill="#575a89"/>
    <path id="패스_162" data-name="패스 162" d="M278.165,663.261c.613.816,4.251.469,4.868.215.377-.153.35-.865.248-1.595-.064-.466-.159-.942-.2-1.288a11.676,11.676,0,0,1,.307-2.693s-.816.865-1.012,0a.945.945,0,0,0-.705-.669,1.841,1.841,0,0,0-1.282.08c-.644.276-1.715.871-1.534,1.675a4.761,4.761,0,0,1-.693,2.76,1.227,1.227,0,0,0,0,1.534Z" transform="translate(-196.185 -517.857)" fill="#cbceda"/>
    <path id="패스_163" data-name="패스 163" d="M278.179,673.95c.613.816,4.251.469,4.868.215.377-.153.35-.865.248-1.595a4.177,4.177,0,0,1-2.147.23,6.573,6.573,0,0,0-.776-.025,17.647,17.647,0,0,1-2.359-.046,1.178,1.178,0,0,0,.166,1.221Z" transform="translate(-196.2 -528.546)" opacity="0.1"/>
    <path id="패스_164" data-name="패스 164" d="M307.936,574.771c-.248,3.211.049,8.153,1.037,10.821a13.422,13.422,0,0,1,.742,5.288,1.629,1.629,0,0,0,1.343.258c-.307-2.083-1.567-11.063-2.383-18.158a29.718,29.718,0,0,0-5.26-13.64l-.865.951C304.921,561.527,307.936,574.771,307.936,574.771Z" transform="translate(-213.28 -450.046)" opacity="0.1"/>
    <path id="패스_165" data-name="패스 165" d="M283.62,426.926l.613,2.966,2.957,4.966,3.644-1.555s4.953-5.19,1.84-5.932a2.689,2.689,0,0,1-1.034-.46,2.147,2.147,0,0,1-.807-1.788A5.472,5.472,0,0,1,291.34,423l-6.377-2a10.385,10.385,0,0,1,.457,2.583,3.409,3.409,0,0,1-1.126,3A1.923,1.923,0,0,1,283.62,426.926Z" transform="translate(-200.156 -354.137)" fill="#fbbebe"/>
    <path id="패스_166" data-name="패스 166" d="M288,421a10.385,10.385,0,0,1,.457,2.583,4.073,4.073,0,0,0,.371.393,5.015,5.015,0,0,0,3.466,1.4,4.948,4.948,0,0,0,1.558-.248,5.471,5.471,0,0,1,.506-2.126Z" transform="translate(-203.193 -354.137)" opacity="0.1"/>
    <path id="패스_167" data-name="패스 167" d="M285.58,406.939a5.015,5.015,0,1,0,1.468-3.57A5.042,5.042,0,0,0,285.58,406.939Z" transform="translate(-201.515 -340.895)" fill="#fbbebe"/>
    <path id="패스_168" data-name="패스 168" d="M283.62,439.537l.613,2.966,2.957,4.966,3.644-1.555s4.953-5.19,1.84-5.932a2.69,2.69,0,0,1-1.034-.46c.561,1.534-1.757,4.76-1.757,4.76-.27.4-.889.147-.889.147-1.5-.227-4.248-4.524-4.7-5.239A1.922,1.922,0,0,1,283.62,439.537Z" transform="translate(-200.156 -366.748)" opacity="0.1"/>
    <path id="패스_169" data-name="패스 169" d="M274.31,529.423c.877.2,5.733,1.276,7.573,1.006,2.027-.307,5.966-.494,5.966-.494a11.631,11.631,0,0,0,3.279-.218v-.144l-1.429-1.715s-13.836-1.037-14.876,0A2.983,2.983,0,0,0,274.31,529.423Z" transform="translate(-193.702 -427.901)" opacity="0.1"/>
    <path id="패스_170" data-name="패스 170" d="M276.252,444.547s2.607-3.61,1.623-5.018l4.4,1.807s2.65-.322,3.607,3.635a6.909,6.909,0,0,1,.166,2.009,5.971,5.971,0,0,0,.724,3c1.089,2.175.84,7.165-1.383,7.668a6.641,6.641,0,0,1-3.015.245s.307,9.042,1.583,10.082-3.276.791-3.276.791-3.938.2-5.966.494-7.708-1.04-7.708-1.04.84-3.8,1.135-6.226.991-7.576.991-7.576l-5.042-6.828s-.889-4.125,2.224-5.953a35.069,35.069,0,0,1,4.294-2.279s3.129,5.095,4.76,5.343C275.363,444.7,275.982,444.945,276.252,444.547Z" transform="translate(-186.538 -366.866)" fill="#3f3d56"/>
    <path id="패스_171" data-name="패스 171" d="M319.162,460.94a7.406,7.406,0,0,1-.248,2.276c-.3.644-1.383,4.2-1.383,4.2H320s-1.334-1.432-1.227-2.126S319.162,460.94,319.162,460.94Z" transform="translate(-223.665 -381.827)" opacity="0.1"/>
    <path id="패스_172" data-name="패스 172" d="M297.509,485.4s5.457-1.334,5.966-2.472,1.911-3.681,1.911-3.681l-.577-.776-2.653,2.083s-3.162,2.521-4.647,2.76S297.509,485.4,297.509,485.4Z" transform="translate(-209.327 -393.98)" fill="#fbbebe"/>
    <path id="패스_173" data-name="패스 173" d="M297.509,485.4s5.457-1.334,5.966-2.472,1.911-3.681,1.911-3.681l-.577-.776-2.653,2.083s-3.162,2.521-4.647,2.76S297.509,485.4,297.509,485.4Z" transform="translate(-209.327 -393.98)" opacity="0.05"/>
    <path id="패스_174" data-name="패스 174" d="M283.62,480.053v2.96h.475a13.839,13.839,0,0,1,6.718,1.739l.892.493.239.135,1.534-3.451-1.432-1.285h-.074a8.545,8.545,0,0,1-2.509-.055,4.065,4.065,0,0,0-3.168-.4c-.883.227-1.641,1.227-2.5.92Z" transform="translate(-200.156 -395.057)" fill="#fbbebe"/>
    <path id="패스_175" data-name="패스 175" d="M265.838,454.985l-.988,1.11V458.8s.84,8.5,3.509,9.438,7.432-.543,7.432-.543,1.227-3.26.653-3.46-5.085-1.389-5.085-1.389.061-4.984-.92-6.466c0,0,.644-4.647-1.58-4.745S265.838,454.985,265.838,454.985Z" transform="translate(-187.143 -375.374)" opacity="0.1"/>
    <path id="패스_176" data-name="패스 176" d="M265.351,454.985l-.991,1.11V458.8s.84,8.5,3.509,9.438,7.423-.543,7.423-.543,1.227-3.26.656-3.46-5.088-1.389-5.088-1.389.064-4.984-.92-6.466c0,0,.641-4.647-1.583-4.745S265.351,454.985,265.351,454.985Z" transform="translate(-186.803 -375.374)" fill="#3f3d56"/>
    <path id="패스_177" data-name="패스 177" d="M286.951,409.1a1.954,1.954,0,0,1,.113-.96.745.745,0,0,1,.779-.454c.423.1.613.65,1.021.782a.807.807,0,0,0,.9-.463,2.325,2.325,0,0,0,.172-1.077V405.7a2.128,2.128,0,0,1,.291-1.288,2.281,2.281,0,0,1,1.7-.613,1.42,1.42,0,0,1,.966.39,1.257,1.257,0,0,0,1.018.362.883.883,0,0,0,.712-.613.027.027,0,0,1,0-.015,5.039,5.039,0,1,0-7.5,6.689A12.951,12.951,0,0,1,286.951,409.1Z" transform="translate(-201.502 -340.918)" opacity="0.1"/>
    <path id="패스_178" data-name="패스 178" d="M288.022,397.455a.889.889,0,0,0,.712-.613c.04-.159.031-.331.077-.488.117-.39.531-.592.807-.886a1.98,1.98,0,0,0,.126-2.273,1.614,1.614,0,0,0-1.58-.945c-.4.071-.745.356-1.15.38a2.4,2.4,0,0,1-1.1-.356,4.15,4.15,0,0,0-2.733-.242,1.567,1.567,0,0,0-.751.38,6.157,6.157,0,0,0-.4.561,3.129,3.129,0,0,1-2.021.834c-.733.132-1.564.423-1.807,1.132a2.982,2.982,0,0,0,.086,1.463.42.42,0,0,1-.018.307c-.113.19-.4.11-.613.156-.414.086-.521.613-.537,1.049-.018.488-.031.975-.04,1.463a1.432,1.432,0,0,0,.463,1.227l1.632,1.96a4.2,4.2,0,0,1,1.346,3.006.7.7,0,0,0,.862-.5,2.221,2.221,0,0,0-.055-1.113,13.563,13.563,0,0,1-.258-1.929,1.954,1.954,0,0,1,.113-.96.742.742,0,0,1,.782-.454c.423.1.613.647,1.021.782a.81.81,0,0,0,.9-.463,2.325,2.325,0,0,0,.172-1.077v-1.227a2.081,2.081,0,0,1,.291-1.288,2.294,2.294,0,0,1,1.7-.613,1.451,1.451,0,0,1,.966.39A1.248,1.248,0,0,0,288.022,397.455Z" transform="translate(-195.615 -333.965)" fill="#3f3d56"/>
    <path id="패스_179" data-name="패스 179" d="M304.985,460.54l-1.534,6.358S302.218,466.889,304.985,460.54Z" transform="translate(-213.715 -381.549)" opacity="0.1"/>
    <path id="패스_180" data-name="패스 180" d="M291.83,457.08a10.13,10.13,0,0,1,1.227,6.748l-.377.028S293.364,462.27,291.83,457.08Z" transform="translate(-205.848 -379.151)" opacity="0.1"/>
    <path id="패스_181" data-name="패스 181" d="M281.608,517.9s-2.488-.822-2.668,1.086C278.94,518.988,279.409,517.678,281.608,517.9Z" transform="translate(-196.911 -421.195)" opacity="0.1"/>
    <path id="패스_182" data-name="패스 182" d="M310.2,482.53s.494,3.46-.4,4.843a10.8,10.8,0,0,0,4.355.592l.307-5.435Z" transform="translate(-218.306 -396.795)" opacity="0.1"/>
    <path id="패스_183" data-name="패스 183" d="M310,486.651l.239.135,1.534-3.451-1.432-1.285h-.077C310.282,482.216,310.681,485.188,310,486.651Z" transform="translate(-218.445 -396.462)" opacity="0.1"/>
    <path id="패스_184" data-name="패스 184" d="M310.2,482.05s.494,3.46-.4,4.843a10.867,10.867,0,0,0,4.355.592l1.73-5.435Z" transform="translate(-218.306 -396.462)" fill="#3f3d56"/>
    <path id="패스_185" data-name="패스 185" d="M324.981,660.876a1.116,1.116,0,0,0,.96.978,34.882,34.882,0,0,1,5.389,1.1c1.04.494,5.141.147,5.337-.347a.776.776,0,0,0-.071-.592,1.573,1.573,0,0,0-.663-.715,1.993,1.993,0,0,0-.307-.132A6.51,6.51,0,0,1,333,659.793a16.69,16.69,0,0,1-2.337-2.454,1.187,1.187,0,0,0-.951-.592c-.432-.018-.92.2-1.11,1.147,0,0-2.371,1.353-3.012.166a6.546,6.546,0,0,1-.494,2.322h0A.665.665,0,0,0,324.981,660.876Z" transform="translate(-228.825 -517.576)" fill="#cbceda"/>
    <path id="패스_186" data-name="패스 186" d="M324.985,669.1a1.116,1.116,0,0,0,.96.979,34.882,34.882,0,0,1,5.389,1.1c1.04.494,5.141.147,5.337-.347a.776.776,0,0,0-.071-.592,1.573,1.573,0,0,0-.662-.715c-.669.445-2.147.88-5.417.368a23.981,23.981,0,0,1-5.41-1.285h0A.666.666,0,0,0,324.985,669.1Z" transform="translate(-228.829 -525.801)" opacity="0.1"/>
    <g id="그룹_497" data-name="그룹 497" transform="translate(81.449 60.281)" opacity="0.1">
      <path id="패스_187" data-name="패스 187" d="M280.72,404.174v-.021a4.726,4.726,0,0,1-.15-1.123,6.957,6.957,0,0,0,.132.911.555.555,0,0,1,.018.233Z" transform="translate(-279.49 -401.96)"/>
      <path id="패스_188" data-name="패스 188" d="M290.17,406.38a1.5,1.5,0,0,0-.123.567,1.708,1.708,0,0,1,.123-.788.745.745,0,0,1,.782-.454c.423.1.613.65,1.021.782a.807.807,0,0,0,.9-.463,2.319,2.319,0,0,0,.172-1.077V403.72a2.129,2.129,0,0,1,.291-1.288,2.281,2.281,0,0,1,1.7-.613,1.42,1.42,0,0,1,.966.39,1.258,1.258,0,0,0,1.018.362.88.88,0,0,0,.712-.613c.04-.159.031-.331.077-.488.117-.39.531-.592.807-.886a1.6,1.6,0,0,0,.417-1.043,1.675,1.675,0,0,1-.417,1.267c-.276.307-.69.5-.807.883-.046.159-.037.328-.077.488a.883.883,0,0,1-.712.613,1.248,1.248,0,0,1-1.018-.365,1.436,1.436,0,0,0-.966-.39,2.281,2.281,0,0,0-1.7.613,2.077,2.077,0,0,0-.291,1.288c0,.448,0,.825,0,1.227a2.314,2.314,0,0,1-.172,1.074.8.8,0,0,1-.9.463c-.414-.132-.6-.681-1.021-.779a.739.739,0,0,0-.782.457Z" transform="translate(-286.057 -399.54)"/>
      <path id="패스_189" data-name="패스 189" d="M277.1,416.675a1.93,1.93,0,0,0,.42.681l1.632,1.96a4.425,4.425,0,0,1,1.359,2.834,4.84,4.84,0,0,0-1.359-2.613l-1.632-1.96a1.432,1.432,0,0,1-.463-1.227A1.25,1.25,0,0,0,277.1,416.675Z" transform="translate(-277.049 -411.194)"/>
      <path id="패스_190" data-name="패스 190" d="M289.162,433.577a1.133,1.133,0,0,0,.049-.267,1.371,1.371,0,0,1-.049.488.694.694,0,0,1-.862.5,1.68,1.68,0,0,0,.015-.215A.7.7,0,0,0,289.162,433.577Z" transform="translate(-284.849 -422.952)"/>
    </g>
    <path id="패스_191" data-name="패스 191" d="M339.246,660.15s-.515.92-2.386.107" transform="translate(-237.066 -519.935)" opacity="0.1"/>
    <path id="패스_192" data-name="패스 192" d="M284.807,660.86a2.843,2.843,0,0,1-3.647.613" transform="translate(-198.451 -520.428)" opacity="0.1"/>
    <path id="패스_193" data-name="패스 193" d="M277.74,587.58s1.138.712,1.178,1.12-.589-.307-.589-.307Z" transform="translate(-196.08 -469.624)" opacity="0.1"/>
    <path id="패스_194" data-name="패스 194" d="M276.27,605.39a2.374,2.374,0,0,0,1.4.549c.853.037.782,1.147.224.816A13.975,13.975,0,0,1,276.27,605.39Z" transform="translate(-195.06 -481.971)" opacity="0.1"/>
    <path id="패스_195" data-name="패스 195" d="M275.56,607.71s.549,2.69.994,2.172" transform="translate(-194.568 -483.58)" opacity="0.1"/>
    <path id="패스_196" data-name="패스 196" d="M85.915,578.521c.92-1.69-.126-3.76-1.316-5.266s-2.641-3.067-2.61-5c.046-2.76,2.975-4.392,5.315-5.855a25.762,25.762,0,0,0,4.773-3.837,7.056,7.056,0,0,0,1.466-1.963,7.958,7.958,0,0,0,.439-3.487q-.153-5.911-.583-11.806" transform="translate(-60.368 -437.546)" fill="none" stroke="#3f3d56" stroke-miterlimit="10" stroke-width="4"/>
    <path id="패스_197" data-name="패스 197" d="M114.3,531.339a4.294,4.294,0,0,0-2.147-3.527l-.963,1.9.028-2.307a4.294,4.294,0,1,0,3.086,3.929Z" transform="translate(-76.824 -427.789)" fill="#57b894"/>
    <path id="패스_198" data-name="패스 198" d="M90.338,621.443a4.294,4.294,0,1,1,.209-3.466l-2.69,2.187,2.96-.684A4.294,4.294,0,0,1,90.338,621.443Z" transform="translate(-60.535 -488.758)" fill="#57b894"/>
    <path id="패스_199" data-name="패스 199" d="M91.349,588.9a4.294,4.294,0,0,1-1.365-8.444l-.025,1.773.975-1.929h0a4.294,4.294,0,0,1,4.5,4.1,4.246,4.246,0,0,1-.184,1.469A4.294,4.294,0,0,1,91.349,588.9Z" transform="translate(-63.671 -464.572)" fill="#57b894"/>
    <path id="패스_200" data-name="패스 200" d="M125.741,566.275a4.294,4.294,0,1,1,1.9-8.057l-.761,2.086,1.567-1.5a4.294,4.294,0,0,1,1.389,2.972,4.23,4.23,0,0,1-.107,1.187A4.309,4.309,0,0,1,125.741,566.275Z" transform="translate(-87.613 -448.901)" fill="#57b894"/>
    <path id="패스_201" data-name="패스 201" d="M113.77,537.805c-.994.107-1.96.417-2.957.479a3.225,3.225,0,0,1-2.724-.951,13.631,13.631,0,0,1-.794-1.4,3.067,3.067,0,0,0-1.086-1.021,4.294,4.294,0,1,0,8.048,2.859Q114.016,537.778,113.77,537.805Z" transform="translate(-76.869 -433.109)" opacity="0.1"/>
    <path id="패스_202" data-name="패스 202" d="M125.612,571.814a4.294,4.294,0,0,1-4.095-6.134,3.181,3.181,0,0,1,.865.865,14.075,14.075,0,0,0,.853,1.423,3.526,3.526,0,0,0,2.856,1c1.04-.046,2.043-.344,3.067-.439.144,0,.288-.021.436-.025A4.309,4.309,0,0,1,125.612,571.814Z" transform="translate(-87.484 -454.441)" opacity="0.1"/>
    <path id="패스_203" data-name="패스 203" d="M91.536,594.651A4.294,4.294,0,0,1,87.4,588.59a3.483,3.483,0,0,1,.92.874,14.425,14.425,0,0,0,.935,1.451,3.973,3.973,0,0,0,3.046,1.067c1.1-.028,2.095-.282,3.153-.365A4.294,4.294,0,0,1,91.536,594.651Z" transform="translate(-63.858 -470.324)" opacity="0.1"/>
    <path id="패스_204" data-name="패스 204" d="M90.079,627.662a4.3,4.3,0,0,1-7.849-3.512,4.169,4.169,0,0,1,.945.844,18.7,18.7,0,0,0,1.153,1.534,5.361,5.361,0,0,0,3.567,1.255A18.412,18.412,0,0,0,90.079,627.662Z" transform="translate(-60.275 -494.977)" opacity="0.1"/>
    <path id="패스_205" data-name="패스 205" d="M73.62,652.133s3.4-.089,4.411-.834,5.214-1.6,5.478-.429,5.107,5.828,1.27,5.846-8.91-.613-9.935-1.227S73.62,652.133,73.62,652.133Z" transform="translate(-54.567 -513.102)" fill="#656380"/>
    <path id="패스_206" data-name="패스 206" d="M84.861,660.437c-3.837.034-8.913-.6-9.935-1.227-.779-.475-1.089-2.178-1.193-2.96H73.62s.215,2.739,1.227,3.374,6.1,1.251,9.935,1.227c1.107,0,1.491-.4,1.469-.985C86.106,660.213,85.7,660.431,84.861,660.437Z" transform="translate(-54.567 -517.232)" opacity="0.2"/>
  </g>
</svg>
