<svg xmlns="http://www.w3.org/2000/svg" width="288.95" height="183.879" viewBox="0 0 288.95 183.879">
  <g id="그룹_501" data-name="그룹 501" transform="translate(0 0.01)">
    <path id="패스_207" data-name="패스 207" d="M227.376,666.847c-4.458-.367-8.393-3.592-10.631-7.464-.751-1.3-1.265-3-.415-4.238a2.332,2.332,0,0,1,4.117.535,22.573,22.573,0,0,1-.351-4.6c.034-1.3.281-2.78,1.366-3.506,1.259-.842,3.073-.173,3.989,1.033a9.084,9.084,0,0,1,1.384,4.273,3.941,3.941,0,0,1,4.38-4.969,5.138,5.138,0,0,1,3.851,3.652,11.19,11.19,0,0,1,.025,5.533,16.1,16.1,0,0,1-2.358,6.071,8.69,8.69,0,0,1-5.23,3.689Z" transform="translate(-211.177 -483.514)" fill="#f2f2f2"/>
    <path id="패스_208" data-name="패스 208" d="M862.346,235.89a38.582,38.582,0,0,1-25.834,36.415c-.24.084-.484.167-.728.244V233.358H785.291c.015-.244.033-.488.055-.728h50.438v-7.656a1.82,1.82,0,0,0-1.819-1.819h-46.6c.084-.244.171-.488.266-.728a38.573,38.573,0,0,1,74.719,13.463Z" transform="translate(-573.396 -197.327)" fill="#f2f2f2"/>
    <path id="패스_209" data-name="패스 209" d="M604.808,266.327h-177.2a2.55,2.55,0,0,0-2.547,2.547V388.949a2.55,2.55,0,0,0,2.547,2.547h177.2a2.55,2.55,0,0,0,2.547-2.547V268.874A2.55,2.55,0,0,0,604.808,266.327Zm1.819,122.621a1.82,1.82,0,0,1-1.819,1.819h-177.2a1.82,1.82,0,0,1-1.819-1.819V268.874a1.82,1.82,0,0,1,1.819-1.819h177.2a1.82,1.82,0,0,1,1.819,1.819Z" transform="translate(-344.239 -241.227)" fill="#3f3d56"/>
    <rect id="사각형_331" data-name="사각형 331" width="181.567" height="0.728" transform="translate(81.185 35.303)" fill="#3f3d56"/>
    <circle id="타원_57" data-name="타원 57" cx="2.183" cy="2.183" r="2.183" transform="translate(85.188 28.375)" fill="#3f3d56"/>
    <circle id="타원_58" data-name="타원 58" cx="2.183" cy="2.183" r="2.183" transform="translate(91.464 28.375)" fill="#3f3d56"/>
    <circle id="타원_59" data-name="타원 59" cx="2.183" cy="2.183" r="2.183" transform="translate(97.741 28.375)" fill="#3f3d56"/>
    <path id="패스_210" data-name="패스 210" d="M501.628,335.327h-32.02a2.55,2.55,0,0,0-2.547,2.547v32.02a2.55,2.55,0,0,0,2.547,2.547h32.02a2.55,2.55,0,0,0,2.547-2.547v-32.02A2.55,2.55,0,0,0,501.628,335.327Zm1.819,34.567a1.82,1.82,0,0,1-1.819,1.819h-32.02a1.82,1.82,0,0,1-1.819-1.819v-32.02a1.82,1.82,0,0,1,1.819-1.819h32.02a1.82,1.82,0,0,1,1.819,1.819Z" transform="translate(-370.957 -285.121)" fill="#3f3d56"/>
    <path id="패스_211" data-name="패스 211" d="M659.946,335.827h-32.02a2.37,2.37,0,0,0-2.365,2.365v32.02a2.37,2.37,0,0,0,2.365,2.365h32.02a2.37,2.37,0,0,0,2.365-2.365v-32.02A2.37,2.37,0,0,0,659.946,335.827Z" transform="translate(-471.785 -285.439)" fill="#267dff"/>
    <path id="패스_212" data-name="패스 212" d="M817.946,335.827h-32.02a2.37,2.37,0,0,0-2.365,2.365v32.02a2.37,2.37,0,0,0,2.365,2.365h32.02a2.37,2.37,0,0,0,2.365-2.365v-32.02A2.37,2.37,0,0,0,817.946,335.827Z" transform="translate(-572.295 -285.439)" fill="#e6e6e6"/>
    <path id="패스_213" data-name="패스 213" d="M501.946,467.827h-32.02a2.37,2.37,0,0,0-2.365,2.365v32.02a2.37,2.37,0,0,0,2.365,2.365h32.02a2.37,2.37,0,0,0,2.365-2.365v-32.02A2.37,2.37,0,0,0,501.946,467.827Z" transform="translate(-371.275 -369.409)" fill="#e6e6e6"/>
    <path id="패스_214" data-name="패스 214" d="M659.946,467.827h-32.02a2.37,2.37,0,0,0-2.365,2.365v32.02a2.37,2.37,0,0,0,2.365,2.365h32.02a2.37,2.37,0,0,0,2.365-2.365v-32.02A2.37,2.37,0,0,0,659.946,467.827Z" transform="translate(-471.785 -369.409)" fill="#267dff"/>
    <path id="패스_215" data-name="패스 215" d="M817.946,467.827h-32.02a2.37,2.37,0,0,0-2.365,2.365v32.02a2.37,2.37,0,0,0,2.365,2.365h32.02a2.37,2.37,0,0,0,2.365-2.365v-32.02A2.37,2.37,0,0,0,817.946,467.827Z" transform="translate(-572.295 -369.409)" fill="#e6e6e6"/>
    <path id="패스_216" data-name="패스 216" d="M480.446,418.077h-32.02a2.368,2.368,0,0,1-2.365-2.365v-32.02a2.368,2.368,0,0,1,2.365-2.365h32.02a2.368,2.368,0,0,1,2.365,2.365v32.02A2.368,2.368,0,0,1,480.446,418.077Z" transform="translate(-357.598 -314.383)" fill="#e81a95"/>
    <path id="패스_217" data-name="패스 217" d="M193.92,459.954l4.264-1.309-3.019-17.072-6.294,1.931Z" transform="translate(-120.149 -280.908)" fill="#a0616a"/>
    <path id="패스_218" data-name="패스 218" d="M0,0H14.02V5.417h-8.6A5.417,5.417,0,0,1,0,0Z" transform="translate(87.476 179.174) rotate(162.939)" fill="#2f2e41"/>
    <path id="패스_219" data-name="패스 219" d="M102.747,462.276h4.461l2.122-17.206h-6.584Z" transform="translate(-65.361 -283.132)" fill="#a0616a"/>
    <path id="패스_220" data-name="패스 220" d="M0,0H14.02V5.417h-8.6A5.417,5.417,0,0,1,0,0H0Z" transform="translate(50.449 183.286) rotate(179.997)" fill="#2f2e41"/>
    <path id="패스_221" data-name="패스 221" d="M302.821,467.531a3.334,3.334,0,0,1,.116-5.111l3.459-43.552,7.034,1.757L307.8,463.109a3.352,3.352,0,0,1-4.976,4.422Z" transform="translate(-265.755 -338.264)" fill="#a0616a"/>
    <circle id="타원_60" data-name="타원 60" cx="8.937" cy="8.937" r="8.937" transform="translate(42.215 45.838)" fill="#a0616a"/>
    <path id="패스_222" data-name="패스 222" d="M319.5,393.612a7.563,7.563,0,0,1,.094-9.229c1.418-1.728,3.789-3.111,7.748-3.111a16.233,16.233,0,0,1,14.554,8.369s4.366,8,1.819,15.282-2.547,8-2.547,8l-16.738-1.455S327.251,404.257,319.5,393.612Z" transform="translate(-276.117 -314.348)" fill="#ccc"/>
    <path id="패스_223" data-name="패스 223" d="M307.977,407.492l3.606-11.8a5.64,5.64,0,0,1,7.98-3.364h0a5.651,5.651,0,0,1,2.579,7.281l-4.584,10.44Z" transform="translate(-269.758 -320.984)" fill="#ccc"/>
    <path id="패스_224" data-name="패스 224" d="M330.5,463.272l14.191,73.5-7.641,2.183-18.557-48.394-8.369,49.485-8,1.092s-3.511-65.475,12.007-77.5Z" transform="translate(-265.812 -366.512)" fill="#2f2e41"/>
    <path id="패스_225" data-name="패스 225" d="M388.116,437.667a3.83,3.83,0,0,0-.35.491l-18.024.874-3.471-10.6-6.026,2.864,5.672,15.781,22.291-4.359a3.819,3.819,0,1,0-.092-5.055Z" transform="translate(-303.007 -344.351)" fill="#a0616a"/>
    <path id="패스_226" data-name="패스 226" d="M353.247,396.164a5.64,5.64,0,0,1,5.954-6.288h0a5.651,5.651,0,0,1,5.289,5.63v11.4l-9.8,1.508Z" transform="translate(-298.531 -319.814)" fill="#ccc"/>
    <path id="패스_227" data-name="패스 227" d="M325.834,337.025a2.6,2.6,0,0,1-2.316-2.758,4.561,4.561,0,0,1,2.044-3.309,22.172,22.172,0,0,1,3.565-1.851,7.6,7.6,0,0,0,3.154-2.419,5.354,5.354,0,0,0,.372-4.914,7.884,7.884,0,0,0-3.4-3.72,10.326,10.326,0,0,0-13.684,3l-1.531,4.169a6.817,6.817,0,0,0-.849,6.906,8.92,8.92,0,0,0,5.305,4.734,13.024,13.024,0,0,0,7.219.216" transform="translate(-272.718 -273.233)" fill="#2f2e41"/>
    <path id="패스_228" data-name="패스 228" d="M279.006,329.958a5.455,5.455,0,0,0-2.979-2.12,9.36,9.36,0,0,0-12.31,8.37c-.125,2.3.594,4.544,1.017,6.806s.507,4.76-.74,6.694a10.006,10.006,0,0,1-4.1,3.192,7.9,7.9,0,0,1-4.167,1.148,3.018,3.018,0,0,1-2.878-2.744,11.663,11.663,0,0,0-.976,3.3,3.939,3.939,0,0,0,1.01,3.188c1.206,1.164,3.116,1.079,4.772.828,3.587-.544,7.218-1.563,10.052-3.828s4.714-5.995,3.968-9.545a23.461,23.461,0,0,0-1.636-4.232,7.877,7.877,0,0,1-.782-4.411,5.362,5.362,0,0,1,2.726-3.632,7.133,7.133,0,0,1,4.557-.691c1.018.167,2.29.427,2.894-.41a1.64,1.64,0,0,0-.034-1.75,4.819,4.819,0,0,0-1.307-1.3" transform="translate(-234.056 -280.05)" fill="#2f2e41"/>
    <path id="패스_229" data-name="패스 229" d="M315.185,701.158H203.372a.433.433,0,1,1,0-.866H315.185a.433.433,0,1,1,0,.866Z" transform="translate(-202.939 -517.289)" fill="#3f3d56"/>
  </g>
</svg>
