<svg xmlns="http://www.w3.org/2000/svg" xmlns:xlink="http://www.w3.org/1999/xlink" width="340" height="340" viewBox="0 0 340 340">
  <defs>
    <clipPath id="clip-path">
      <circle id="타원_104" data-name="타원 104" cx="170" cy="170" r="170" transform="translate(1406 662)" fill="#fff" stroke="#707070" stroke-width="1"/>
    </clipPath>
    <linearGradient id="linear-gradient" x1="-0.863" y1="1" x2="-0.863" gradientUnits="objectBoundingBox">
      <stop offset="0" stop-color="gray" stop-opacity="0.251"/>
      <stop offset="0.54" stop-color="gray" stop-opacity="0.122"/>
      <stop offset="1" stop-color="gray" stop-opacity="0.102"/>
    </linearGradient>
  </defs>
  <g id="마스크_그룹_19" data-name="마스크 그룹 19" transform="translate(-1406 -662)" clip-path="url(#clip-path)">
    <g id="그룹_526" data-name="그룹 526" transform="translate(1331.751 652.284)">
      <ellipse id="타원_61" data-name="타원 61" cx="54.551" cy="11.653" rx="54.551" ry="11.653" transform="translate(225.75 335.746)" fill="#6c63ff" opacity="0.1"/>
      <path id="패스_231" data-name="패스 231" d="M526.473,351.03c-10.838,8.991-26.26,12.712-41.175,15.062l-2.51.383c-26.069,3.89-52.663,4.682-79.133,5.466-73.828,2.185-147.846,4.366-221.478-.672-32.563-2.225-65.932-6.124-94.471-19.451l-.743-.352c-.369-.174-.739-.347-1.108-.53a99.75,99.75,0,0,1-14.51-8.5c-8.15-5.813-14.879-12.908-18.436-21.324-5.573-13.2-2.626-28.041,3.739-40.948s15.934-24.534,24.186-36.689c2.421-3.561,4.718-7.255,6.854-11.043,13.353-23.755,19.976-51.244,5.978-74.135a101.742,101.742,0,0,0-5.978-8.457c-3.414-4.451-6.886-8.9-9.231-13.829-5.47-11.466-4.3-24.36-2.3-36.609,2.671-16.286,7.589-33.827,22.869-44,15.876-10.566,38.411-10.032,58.116-6.231,30.636,5.871,58.912,18.16,87.456,29.243s58.463,21.177,89.846,22.264c27.711.966,60.039-6.231,78.439-24.961,17.871-18.182,51.453-19.557,75.666-8.577,23.1,10.477,38.046,32.652,36.943,54.8-1.406,27.64-24.449,49.775-42.684,73.307-3.031,3.912-5.933,7.869-8.581,11.893-8.644,13.144-14.755,28.931-8.8,43.121,3.338,7.945,9.708,14.007,17.385,19.3,17.2,11.853,40.949,19.829,51.631,36.422C543.636,320.3,540.226,339.613,526.473,351.03Z" transform="translate(-49.963 -46.68)" fill="#267dff" opacity="0.1"/>
      <ellipse id="타원_62" data-name="타원 62" cx="25.375" cy="4.878" rx="25.375" ry="4.878" transform="translate(407.494 308.823)" fill="#6c63ff"/>
      <ellipse id="타원_63" data-name="타원 63" cx="2.955" cy="3.868" rx="2.955" ry="3.868" transform="translate(429.491 307.759)" fill="#3f3d56"/>
      <ellipse id="타원_64" data-name="타원 64" cx="2.955" cy="3.868" rx="2.955" ry="3.868" transform="translate(429.491 303.032)" fill="#3f3d56"/>
      <ellipse id="타원_65" data-name="타원 65" cx="2.955" cy="3.868" rx="2.955" ry="3.868" transform="translate(429.491 298.301)" fill="#3f3d56"/>
      <ellipse id="타원_66" data-name="타원 66" cx="2.955" cy="3.868" rx="2.955" ry="3.868" transform="translate(429.491 293.574)" fill="#3f3d56"/>
      <ellipse id="타원_67" data-name="타원 67" cx="2.955" cy="3.868" rx="2.955" ry="3.868" transform="translate(429.491 288.847)" fill="#3f3d56"/>
      <ellipse id="타원_68" data-name="타원 68" cx="2.955" cy="3.868" rx="2.955" ry="3.868" transform="translate(429.491 284.12)" fill="#3f3d56"/>
      <ellipse id="타원_69" data-name="타원 69" cx="2.955" cy="3.868" rx="2.955" ry="3.868" transform="translate(429.491 279.393)" fill="#3f3d56"/>
      <path id="패스_232" data-name="패스 232" d="M1014.863,581.833a13.767,13.767,0,0,0,1.1-1.62l-7.762-1.273,8.394.062a14.145,14.145,0,0,0,.272-11.216l-11.265,5.853,10.388-7.633a14.154,14.154,0,1,0-23.372,15.836A14.054,14.054,0,0,0,991,584.423l10.077,5.239-10.745-3.605a14.15,14.15,0,0,0,2.283,13.291,14.154,14.154,0,1,0,22.255,0,14.145,14.145,0,0,0,0-17.5Z" transform="translate(-571.357 -330.921)" fill="#6c63ff"/>
      <path id="패스_233" data-name="패스 233" d="M989.61,629.81a14.1,14.1,0,0,0,3.031,8.751,14.154,14.154,0,1,0,22.255,0C1016.783,636.153,989.61,628.221,989.61,629.81Z" transform="translate(-571.38 -370.148)" opacity="0.1"/>
      <path id="패스_234" data-name="패스 234" d="M136.6,714.464c0,2.488-9.707,4.544-22.255,4.838H113.6c-.369-.174-.739-.347-1.108-.53A99.742,99.742,0,0,1,98,710.293c3.049-.356,6.516-.6,10.237-.676h.5c.81,0,1.633-.027,2.466-.027h3.138C126.9,709.915,136.6,712,136.6,714.464Z" transform="translate(-76.619 -414.534)" fill="#6c63ff"/>
      <ellipse id="타원_70" data-name="타원 70" cx="2.955" cy="3.868" rx="2.955" ry="3.868" transform="translate(31.226 293.988)" fill="#3f3d56"/>
      <ellipse id="타원_71" data-name="타원 71" cx="2.955" cy="3.868" rx="2.955" ry="3.868" transform="translate(31.226 289.261)" fill="#3f3d56"/>
      <ellipse id="타원_72" data-name="타원 72" cx="2.955" cy="3.868" rx="2.955" ry="3.868" transform="translate(31.226 284.534)" fill="#3f3d56"/>
      <ellipse id="타원_73" data-name="타원 73" cx="2.955" cy="3.868" rx="2.955" ry="3.868" transform="translate(31.226 279.807)" fill="#3f3d56"/>
      <ellipse id="타원_74" data-name="타원 74" cx="2.955" cy="3.868" rx="2.955" ry="3.868" transform="translate(31.226 275.08)" fill="#3f3d56"/>
      <ellipse id="타원_75" data-name="타원 75" cx="2.955" cy="3.868" rx="2.955" ry="3.868" transform="translate(31.226 270.353)" fill="#3f3d56"/>
      <ellipse id="타원_76" data-name="타원 76" cx="2.955" cy="3.868" rx="2.955" ry="3.868" transform="translate(31.226 265.622)" fill="#3f3d56"/>
      <path id="패스_235" data-name="패스 235" d="M120.094,550.924a14.373,14.373,0,0,0,1.1-1.616l-7.767-1.264,8.4.062A14.154,14.154,0,0,0,122.1,536.9l-11.261,5.844,10.388-7.638a14.154,14.154,0,1,0-23.376,15.836,14.447,14.447,0,0,0-1.616,2.581l10.077,5.208-10.745-3.592a14.185,14.185,0,0,0,2.283,13.291,14.154,14.154,0,1,0,22.255,0,14.145,14.145,0,0,0,0-17.5Z" transform="translate(-74.851 -313.784)" fill="#6c63ff"/>
      <path id="패스_236" data-name="패스 236" d="M94.83,598.87a14.1,14.1,0,0,0,3.027,8.751,14.154,14.154,0,1,0,22.255,0C122,605.212,94.83,597.281,94.83,598.87Z" transform="translate(-74.86 -352.979)" opacity="0.1"/>
      <g id="그룹_523" data-name="그룹 523" transform="translate(82.576 2.671)" opacity="0.342">
        <path id="패스_237" data-name="패스 237" d="M333.5,585.639a11.078,11.078,0,0,1-.089,1.228q-5.181-2.083-10.2-4.42a8.273,8.273,0,0,1-4.718-2.3c-.975-.49-1.945-1-2.911-1.509a11.941,11.941,0,0,1,.739-1.335c1.869-2.964,4.718-4.82,7.856-4.718s5.853,2.128,7.535,5.19A15.3,15.3,0,0,1,333.5,585.639Z" transform="translate(-279.931 -341.178)" fill="#267dff"/>
        <path id="패스_238" data-name="패스 238" d="M332.725,550.714a15.383,15.383,0,0,1-2.283,7.709c-1.874,2.955-4.718,4.811-7.856,4.709-.218,0-.445-.027-.645-.044a8.274,8.274,0,0,1-4.718-2.3,11.25,11.25,0,0,1-2.172-2.835,15.943,15.943,0,0,1,.49-15.578c1.874-2.964,4.718-4.82,7.856-4.718s5.853,2.128,7.535,5.19a15.341,15.341,0,0,1,1.794,7.869Z" transform="translate(-278.641 -321.795)" fill="#267dff"/>
        <ellipse id="타원_77" data-name="타원 77" cx="12.743" cy="9.734" rx="12.743" ry="9.734" transform="translate(34.696 225.468) rotate(-88.19)" fill="#267dff"/>
        <ellipse id="타원_78" data-name="타원 78" cx="12.743" cy="9.734" rx="12.743" ry="9.734" transform="translate(35.187 209.901) rotate(-88.19)" fill="#267dff"/>
        <ellipse id="타원_79" data-name="타원 79" cx="12.743" cy="9.734" rx="12.743" ry="9.734" transform="translate(35.678 194.335) rotate(-88.19)" fill="#267dff"/>
        <path id="패스_239" data-name="패스 239" d="M248.232,126.913a47.087,47.087,0,0,1-3.454-5.448l25.691-3.392-27.631-.668a46.7,46.7,0,0,1,.276-36.943l36.5,20.407L246.162,74.633a46.623,46.623,0,1,1,75.318,54.591,46.79,46.79,0,0,1,5.034,8.661L292.79,154.077l35.754-10.758a46.668,46.668,0,0,1-8.9,43.521,46.623,46.623,0,1,1-73.244-2.31,46.615,46.615,0,0,1,1.816-57.617Z" transform="translate(-235.488 -52.682)" fill="#267dff"/>
        <path id="패스_240" data-name="패스 240" d="M330.562,289.136a46.419,46.419,0,0,1-10.878,28.486,46.623,46.623,0,1,1-73.267-2.3C240.439,307.2,330.726,283.906,330.562,289.136Z" transform="translate(-235.507 -183.472)" fill="#267dff" opacity="0.1"/>
      </g>
      <g id="그룹_524" data-name="그룹 524" transform="translate(317.175 39.768)" opacity="0.2">
        <path id="패스_241" data-name="패스 241" d="M832.282,515.583a8.6,8.6,0,0,1-.062.89q-3.7-1.464-7.259-3.142a5.922,5.922,0,0,1-3.36-1.638c-.69-.352-1.384-.712-2.07-1.073a8.789,8.789,0,0,1,.525-.948,6.02,6.02,0,0,1,10.954.338A10.905,10.905,0,0,1,832.282,515.583Z" transform="translate(-794.177 -341.502)" fill="#267dff"/>
        <path id="패스_242" data-name="패스 242" d="M831.746,490.671a10.932,10.932,0,0,1-1.625,5.488,6.518,6.518,0,0,1-5.59,3.352l-.445-.031a5.924,5.924,0,0,1-3.36-1.638,8.155,8.155,0,0,1-1.544-2.021,11.355,11.355,0,0,1,.347-11.074,6.018,6.018,0,0,1,10.954.334A10.927,10.927,0,0,1,831.746,490.671Z" transform="translate(-793.276 -327.669)" fill="#267dff"/>
        <ellipse id="타원_80" data-name="타원 80" cx="9.067" cy="6.926" rx="9.067" ry="6.926" transform="translate(24.698 160.563) rotate(-88.19)" fill="#267dff"/>
        <ellipse id="타원_81" data-name="타원 81" cx="9.067" cy="6.926" rx="9.067" ry="6.926" transform="translate(25.044 149.487) rotate(-88.19)" fill="#267dff"/>
        <ellipse id="타원_82" data-name="타원 82" cx="9.067" cy="6.926" rx="9.067" ry="6.926" transform="translate(25.394 138.411) rotate(-88.19)" fill="#267dff"/>
        <path id="패스_243" data-name="패스 243" d="M771.622,188.982a32.762,32.762,0,0,1-2.457-3.877l18.284-2.412-19.678-.476a33.236,33.236,0,0,1,.191-26.292l25.953,14.506-23.768-18.663a33.182,33.182,0,1,1,53.589,38.839,33.252,33.252,0,0,1,3.587,6.169L803.34,208.3l25.446-7.656a33.182,33.182,0,0,1-6.329,30.97,33.177,33.177,0,1,1-52.129-1.642A33.182,33.182,0,0,1,771.622,188.982Z" transform="translate(-762.568 -136.028)" fill="#267dff"/>
        <path id="패스_244" data-name="패스 244" d="M830.2,304.548a33.025,33.025,0,0,1-7.745,20.278,33.177,33.177,0,1,1-52.129-1.642C766.063,317.4,830.317,300.827,830.2,304.548Z" transform="translate(-762.568 -229.242)" fill="#267dff" opacity="0.1"/>
      </g>
      <g id="그룹_525" data-name="그룹 525" transform="translate(222.263 5.123)" opacity="0.2">
        <path id="패스_245" data-name="패스 245" d="M619.1,437.533a8.637,8.637,0,0,1-.067.89q-3.7-1.464-7.259-3.142a5.911,5.911,0,0,1-3.356-1.638c-.694-.352-1.384-.712-2.07-1.073a8.431,8.431,0,0,1,.521-.948,6.02,6.02,0,0,1,10.954.338A10.9,10.9,0,0,1,619.1,437.533Z" transform="translate(-580.97 -263.547)" fill="#267dff"/>
        <path id="패스_246" data-name="패스 246" d="M618.486,412.621a10.932,10.932,0,0,1-1.625,5.488,6.518,6.518,0,0,1-5.59,3.352,2.08,2.08,0,0,1-.445-.031,5.911,5.911,0,0,1-3.356-1.638,8.062,8.062,0,0,1-1.549-2.021,11.341,11.341,0,0,1,.352-11.074,6,6,0,0,1,10.931.334A10.922,10.922,0,0,1,618.486,412.621Z" transform="translate(-580.025 -249.714)" fill="#267dff"/>
        <ellipse id="타원_83" data-name="타원 83" cx="9.067" cy="6.926" rx="9.067" ry="6.926" transform="translate(24.356 160.063) rotate(-88.282)" fill="#267dff"/>
        <ellipse id="타원_84" data-name="타원 84" cx="9.067" cy="6.926" rx="9.067" ry="6.926" transform="translate(25.041 149.391) rotate(-88.19)" fill="#267dff"/>
        <ellipse id="타원_85" data-name="타원 85" cx="9.067" cy="6.926" rx="9.067" ry="6.926" transform="translate(25.396 138.31) rotate(-88.19)" fill="#267dff"/>
        <path id="패스_247" data-name="패스 247" d="M558.4,111.032a33.327,33.327,0,0,1-2.457-3.877l18.284-2.412-19.691-.476a33.213,33.213,0,0,1,.2-26.292L580.7,92.5,556.932,73.836a33.177,33.177,0,1,1,53.6,38.839,33.273,33.273,0,0,1,3.592,6.169l-23.977,11.523,25.441-7.656a33.181,33.181,0,0,1-6.329,30.97,33.177,33.177,0,1,1-52.147-1.66,33.191,33.191,0,0,1,1.291-41.006Z" transform="translate(-549.342 -58.191)" fill="#267dff"/>
        <path id="패스_248" data-name="패스 248" d="M616.965,226.5a33.026,33.026,0,0,1-7.745,20.278,33.177,33.177,0,1,1-52.125-1.66C552.827,239.353,617.081,222.778,616.965,226.5Z" transform="translate(-549.327 -151.287)" fill="#267dff" opacity="0.1"/>
      </g>
      <path id="패스_249" data-name="패스 249" d="M529.681,353.394V450.3c-26.069,3.89-52.663,4.682-79.133,5.466-73.827,2.185-147.846,4.366-221.478-.672-32.563-2.225-65.932-6.124-94.471-19.451V316.256c.107-82.342-.338,0,0-82.591V204.026a6.276,6.276,0,0,1,6.276-6.276H523.4a6.276,6.276,0,0,1,6.276,6.276v75.056C529.948,353.2,529.5,279.313,529.681,353.394Z" transform="translate(-96.856 -130.51)" fill="#233248"/>
      <rect id="사각형_341" data-name="사각형 341" width="164.177" height="12.712" rx="5.22" transform="translate(153.195 96.896)" fill="#267dff" opacity="0.3"/>
      <path id="패스_250" data-name="패스 250" d="M732.652,275.233h-.271l-.1-.085a2.271,2.271,0,0,0,.53-1.447,2.2,2.2,0,1,0-2.19,2.225,2.265,2.265,0,0,0,1.442-.525l.1.085v.258l1.7,1.7.507-.507Zm-2.034,0a1.522,1.522,0,1,1,1.082-.447,1.531,1.531,0,0,1-1.082.447Z" transform="translate(-426.439 -171.451)" fill="#444053"/>
      <rect id="사각형_342" data-name="사각형 342" width="15.32" height="5.297" rx="2.648" transform="translate(99.201 219.497)" fill="#267dff"/>
      <rect id="사각형_343" data-name="사각형 343" width="23.83" height="5.297" rx="2.648" transform="translate(99.201 232.739)" fill="#267dff" opacity="0.3"/>
      <rect id="사각형_344" data-name="사각형 344" width="47.665" height="5.297" rx="2.648" transform="translate(99.201 226.12)" fill="#267dff" opacity="0.3"/>
      <path id="패스_251" data-name="패스 251" d="M209.2,557.631a2.555,2.555,0,0,0-2.582,2.533,1.727,1.727,0,0,1-1.723,1.687,4.451,4.451,0,0,0,3.441,1.691,3.414,3.414,0,0,0,3.449-3.378A2.559,2.559,0,0,0,209.2,557.631Zm11.808-7.9-1.157-1.135a.863.863,0,0,0-1.211,0l-7.718,7.567,2.368,2.323L221,550.915a.828.828,0,0,0,.009-1.188Z" transform="translate(-135.939 -325.057)" fill="#267dff"/>
      <rect id="사각형_345" data-name="사각형 345" width="15.32" height="5.297" rx="2.648" transform="translate(99.201 153.828)" fill="#267dff"/>
      <rect id="사각형_346" data-name="사각형 346" width="23.83" height="5.297" rx="2.648" transform="translate(99.201 167.07)" fill="#267dff" opacity="0.3"/>
      <rect id="사각형_347" data-name="사각형 347" width="47.665" height="5.297" rx="2.648" transform="translate(99.201 160.447)" fill="#267dff" opacity="0.3"/>
      <path id="패스_252" data-name="패스 252" d="M221.07,408.1l-6.757-6.8a4.816,4.816,0,0,0-1.117-5.154,4.9,4.9,0,0,0-5.5-.97l3.2,3.214-2.225,2.225-3.258-3.2a4.834,4.834,0,0,0,.966,5.524,4.745,4.745,0,0,0,5.123,1.122l6.743,6.805a.717.717,0,0,0,1.042,0l1.709-1.718a.672.672,0,0,0,.076-1.046Z" transform="translate(-135.96 -239.816)" fill="#267dff"/>
      <rect id="사각형_348" data-name="사각형 348" width="15.32" height="5.297" rx="2.648" transform="translate(226.836 219.497)" fill="#267dff"/>
      <rect id="사각형_349" data-name="사각형 349" width="23.83" height="5.297" rx="2.648" transform="translate(226.836 232.739)" fill="#267dff" opacity="0.3"/>
      <rect id="사각형_350" data-name="사각형 350" width="47.665" height="5.297" rx="2.648" transform="translate(226.836 226.12)" fill="#267dff" opacity="0.3"/>
      <path id="패스_253" data-name="패스 253" d="M500,562.436a4.451,4.451,0,0,1-4.4,0,5.211,5.211,0,0,0-3.169,3.8h10.736A5.186,5.186,0,0,0,500,562.436Zm-2.2-8.176a3.868,3.868,0,1,0,3.868,3.863A3.868,3.868,0,0,0,497.8,554.26Zm0,6.81a2.987,2.987,0,0,1-2.7-1.843h5.4a2.986,2.986,0,0,1-2.7,1.843Z" transform="translate(-295.491 -328.34)" fill="#267dff"/>
      <path id="패스_254" data-name="패스 254" d="M515.281,557.784a4.482,4.482,0,0,1-3.739.307,5.34,5.34,0,0,1-1.024,1.273,5,5,0,0,1,2.181,1.927h5.746A4.771,4.771,0,0,0,515.281,557.784Zm-2.2-8.181a3.877,3.877,0,0,0-3.263,1.78,4.8,4.8,0,0,1,2.292,3.178h3.672a2.991,2.991,0,0,1-2.7,1.834,2.675,2.675,0,0,1-.926-.169,5.184,5.184,0,0,1-.24.921,3.715,3.715,0,0,0,1.166.178,3.868,3.868,0,0,0,0-7.736Z" transform="translate(-305.141 -325.749)" fill="#267dff"/>
      <rect id="사각형_351" data-name="사각형 351" width="15.32" height="5.297" rx="2.648" transform="translate(99.201 268.751)" fill="#267dff"/>
      <rect id="사각형_352" data-name="사각형 352" width="23.83" height="5.297" rx="2.648" transform="translate(99.201 281.993)" fill="#267dff" opacity="0.3"/>
      <rect id="사각형_353" data-name="사각형 353" width="47.665" height="5.297" rx="2.648" transform="translate(99.201 275.374)" fill="#267dff" opacity="0.3"/>
      <path id="패스_255" data-name="패스 255" d="M217.092,654.25h-4.371a1.46,1.46,0,0,0-1.478,1.442V656h-.276a1.46,1.46,0,0,0-1.478,1.442v10.518a1.487,1.487,0,0,0,1.478,1.478h7.6a1.455,1.455,0,0,0,1.438-1.478v-.276h.316a1.455,1.455,0,0,0,1.438-1.478v-7.286Zm0,1.629,3.044,3.044h-3.044Zm1.754,12.084a.3.3,0,0,1-.276.312h-7.6a.325.325,0,0,1-.307-.312V657.446a.3.3,0,0,1,.307-.276h.276v9.347a1.035,1.035,0,0,0,1.188,1.184h6.414Zm1.749-1.754a.294.294,0,0,1-.271.312h-7.6a.325.325,0,0,1-.307-.312V655.692a.3.3,0,0,1,.307-.276h3.2v4.678H220.6Z" transform="translate(-138.486 -383.825)" fill="#267dff"/>
      <rect id="사각형_354" data-name="사각형 354" width="15.32" height="5.297" rx="2.648" transform="translate(226.836 153.828)" fill="#267dff"/>
      <rect id="사각형_355" data-name="사각형 355" width="23.83" height="5.297" rx="2.648" transform="translate(226.836 167.07)" fill="#267dff" opacity="0.3"/>
      <rect id="사각형_356" data-name="사각형 356" width="47.665" height="5.297" rx="2.648" transform="translate(226.836 160.447)" fill="#267dff" opacity="0.3"/>
      <path id="패스_256" data-name="패스 256" d="M499.063,399.989H494a1.562,1.562,0,0,0-1.558,1.562v8.568A1.558,1.558,0,0,0,494,411.677h13.246a1.558,1.558,0,0,0,1.558-1.558v-6.828a1.562,1.562,0,0,0-1.558-1.558h-6.623l-1.558-1.754Z" transform="translate(-295.497 -242.729)" fill="#267dff"/>
      <rect id="사각형_357" data-name="사각형 357" width="15.32" height="5.297" rx="2.648" transform="translate(352.881 219.497)" fill="#267dff"/>
      <rect id="사각형_358" data-name="사각형 358" width="23.83" height="5.297" rx="2.648" transform="translate(352.881 232.739)" fill="#267dff" opacity="0.3"/>
      <rect id="사각형_359" data-name="사각형 359" width="47.665" height="5.297" rx="2.648" transform="translate(352.881 226.12)" fill="#267dff" opacity="0.3"/>
      <path id="패스_257" data-name="패스 257" d="M793.556,552.436l-3.013-.143-.178-1.963a.757.757,0,0,0-.837-.677l-10.8.89a.743.743,0,0,0-.708.8l.77,8.613a.757.757,0,0,0,.837.663l.547-.04-.085,1.674a.832.832,0,0,0,.815.859l12.058.57a.837.837,0,0,0,.89-.774l.507-9.614a.828.828,0,0,0-.8-.855Zm-12.961.2-.258,4.923-.641.89-.588-6.5v-.04a.4.4,0,0,1,.347-.343l9.534-.779a.361.361,0,0,1,.387.285h0l.094,1.122-8.012-.383A.845.845,0,0,0,780.595,552.632Zm12.2,8.653-3.116-3.636-1.367,1.255-2.524-2.951-4.482,4.771.383-7.268h0a.418.418,0,0,1,.445-.329l10.638.516a.387.387,0,0,1,.378.369h0Z" transform="translate(-453.965 -325.782)" fill="#267dff"/>
      <path id="패스_258" data-name="패스 258" d="M805.436,562.5a1.171,1.171,0,1,0-1.166-1.171,1.171,1.171,0,0,0,1.166,1.171Z" transform="translate(-468.534 -331.614)" fill="#267dff"/>
      <rect id="사각형_360" data-name="사각형 360" width="15.32" height="5.297" rx="2.648" transform="translate(353.941 153.828)" fill="#267dff"/>
      <rect id="사각형_361" data-name="사각형 361" width="23.83" height="5.297" rx="2.648" transform="translate(353.941 167.07)" fill="#267dff" opacity="0.3"/>
      <rect id="사각형_362" data-name="사각형 362" width="47.665" height="5.297" rx="2.648" transform="translate(353.941 160.447)" fill="#267dff" opacity="0.3"/>
      <circle id="타원_86" data-name="타원 86" cx="2.337" cy="2.337" r="2.337" transform="translate(337.089 156.374)" fill="#267dff"/>
      <path id="패스_259" data-name="패스 259" d="M792.549,403.851l-4.638,3.089-6.427-4.282V401.1l6.427,4.286,3.694-2.461a3.289,3.289,0,0,1-.045-3.561H781.292a1.567,1.567,0,0,0-1.562,1.562v9.739a1.567,1.567,0,0,0,1.562,1.562h13.246a1.562,1.562,0,0,0,1.558-1.562V403.9a3.281,3.281,0,0,1-3.561-.027Z" transform="translate(-454.916 -242.385)" fill="#267dff"/>
      <ellipse id="타원_87" data-name="타원 87" cx="11.608" cy="2.23" rx="11.608" ry="2.23" transform="translate(215.245 329.796)" fill="#267dff"/>
      <ellipse id="타원_88" data-name="타원 88" cx="1.353" cy="1.767" rx="1.353" ry="1.767" transform="translate(225.309 329.31)" fill="#3f3d56"/>
      <ellipse id="타원_89" data-name="타원 89" cx="1.353" cy="1.767" rx="1.353" ry="1.767" transform="translate(225.309 327.147)" fill="#3f3d56"/>
      <ellipse id="타원_90" data-name="타원 90" cx="1.353" cy="1.767" rx="1.353" ry="1.767" transform="translate(225.309 324.984)" fill="#3f3d56"/>
      <ellipse id="타원_91" data-name="타원 91" cx="1.353" cy="1.767" rx="1.353" ry="1.767" transform="translate(225.309 322.821)" fill="#3f3d56"/>
      <ellipse id="타원_92" data-name="타원 92" cx="1.353" cy="1.767" rx="1.353" ry="1.767" transform="translate(225.309 320.662)" fill="#3f3d56"/>
      <ellipse id="타원_93" data-name="타원 93" cx="1.353" cy="1.767" rx="1.353" ry="1.767" transform="translate(225.309 318.499)" fill="#3f3d56"/>
      <ellipse id="타원_94" data-name="타원 94" cx="1.353" cy="1.767" rx="1.353" ry="1.767" transform="translate(225.309 316.336)" fill="#3f3d56"/>
      <path id="패스_260" data-name="패스 260" d="M556.135,715.052a6.036,6.036,0,0,0,.5-.743l-3.561-.583,3.837.031a6.494,6.494,0,0,0,.125-5.128l-5.15,2.671,4.749-3.494a6.472,6.472,0,1,0-10.682,7.246,6.733,6.733,0,0,0-.739,1.18l4.611,2.395-4.9-1.647a6.467,6.467,0,0,0,1.042,6.076,6.472,6.472,0,1,0,10.175,0,6.476,6.476,0,0,0,0-8.012Z" transform="translate(-324.417 -411.744)" fill="#267dff"/>
      <path id="패스_261" data-name="패스 261" d="M544.6,737a6.432,6.432,0,0,0,1.384,4.006,6.472,6.472,0,1,0,10.175,0C557.027,739.9,544.6,736.276,544.6,737Z" transform="translate(-324.441 -429.692)" opacity="0.1"/>
      <path id="패스_262" data-name="패스 262" d="M699.946,408.5a6.093,6.093,0,0,1-.445-1.2c-.044-.476.142-1.1-.28-1.335-.236-.129-.565-.031-.774-.2a.958.958,0,0,1-.227-.534,1.825,1.825,0,0,0-1.691-1.335c.445-1.206,2.083-1.5,2.8-2.564.36-.53.245-1.5-.392-1.509a1.106,1.106,0,0,0-.445.111l-2.372.979a12.171,12.171,0,0,0-1.335.619,10.522,10.522,0,0,0-3.156,3.174,13.573,13.573,0,0,0-1.963,3.561,8.013,8.013,0,0,0-.418,2.444c0,.085,0,.169,0,.249-.387.067-.7.236-1.108.316l-.921,2.435a3.085,3.085,0,0,1-.6,1.108,5.577,5.577,0,0,1-.65.512,3.761,3.761,0,0,0-1.3,3.28,3.53,3.53,0,0,0-2.074,4.353,4.144,4.144,0,0,0-3.031,2.671,1.97,1.97,0,0,1-.4.837,1.58,1.58,0,0,1-1.055.325c-1.042.067-1.95.89-2.889.445a5.879,5.879,0,0,0-3.432-.481,2.568,2.568,0,0,1-.734.067,1.973,1.973,0,0,1-.6-.209,4.653,4.653,0,0,0-1.362-.539,1.264,1.264,0,0,0-1.291.5c-.329-.361-.525-.828-.823-1.215a1.336,1.336,0,0,0-1.255-.6c.312-.28,0-.841-.414-.939a5.145,5.145,0,0,0-1.251.044c-1.086,0-1.923-1-2.978-1.26-.97-.236-2.266.049-2.764-.823-.156-.28-.2-.645-.445-.855a1.62,1.62,0,0,0-.316-.645,2.122,2.122,0,0,0-1.674-.5,6.977,6.977,0,0,0-1.945.334,1,1,0,0,0-.067-.249,4.937,4.937,0,0,0-2.154-2.644,8.9,8.9,0,0,0-2.519-1.006v-.236a10.039,10.039,0,0,1,.516-3.307c.036-.116.08-.231.12-.347a11.84,11.84,0,0,0,5.341-19.864,3.044,3.044,0,0,0-.093-.712,3.5,3.5,0,0,0-.712-1.389,4.384,4.384,0,0,0-2.47-2.252c-.312-.147-.641-.289-.988-.445-1.723-.774-3.387-1.914-5.341-1.909-1.78,0-3.5.984-5.261.948h-.423c-.494-.058-1.086-.174-1.411.2a2.008,2.008,0,0,0-.249.485,1.152,1.152,0,0,1-.089.165h0a1.947,1.947,0,0,1-.227.307h0a8.3,8.3,0,0,1-2.314,1.309,7.064,7.064,0,0,0-3.409,4.722,14.883,14.883,0,0,0,.045,5.982,4.912,4.912,0,0,0,1.264,2.733h0s-5.951,4.233-4.865,4.834c.592.329,3.058-1.233,5.181-2.724.022.089.04.183.067.271a19.583,19.583,0,0,0,.97,2.782,3.939,3.939,0,0,0,2.194,2.533,2.388,2.388,0,0,0,.752.085h.2a17.532,17.532,0,0,1-.512,4.838,2.942,2.942,0,0,0-1.82.5,1.464,1.464,0,0,1-.739.392,1.285,1.285,0,0,1-.761-.374,4.317,4.317,0,0,0-5.4.285c-2.154,2.034-1.909,6-4.451,7.544-.694.423-1.584.65-1.994,1.358a5.085,5.085,0,0,1-.343.654,1.8,1.8,0,0,1-.605.445,11.791,11.791,0,0,0-2.083,1.2,2.991,2.991,0,0,0-1.2,2.021,3.832,3.832,0,0,0,.365,1.7,16.226,16.226,0,0,0,1.389,2.671,2.841,2.841,0,0,0-.561,1.313c-.178,1.251.418,2.484.485,3.748a14.39,14.39,0,0,1-.49,3.267c-.783,4.246.717,8.546,2.225,12.578a6.492,6.492,0,0,1,.534,2.07c.04,1.335-.712,2.524-.921,3.823-.445,2.733,1.571,5.306,1.616,8.07,0,1.277-.383,2.573-.062,3.806a13.22,13.22,0,0,0,1.086,2.3c.641,1.362.815,2.906,1.429,4.282a10.269,10.269,0,0,0,3.169,3.774c.77,2.444-.325,5.395,0,8.012q.628-.249,1.268-.445a18.324,18.324,0,0,0,2.8,11.056,25.387,25.387,0,0,1,2.021,3.254,15.259,15.259,0,0,1,.788,2.577q1.117,4.66,2.225,9.311a25.338,25.338,0,0,1,1.033,7.656c-.125,1.78-.579,3.815.525,5.239a3.79,3.79,0,0,1,.663.917,2.323,2.323,0,0,1,0,1.211,80.434,80.434,0,0,0-1.1,9.075c-.249.334-.5.672-.725,1.006a25.784,25.784,0,0,0-3.423,9.044,109.417,109.417,0,0,0-2.3,18.89,12.631,12.631,0,0,0-2.341,2.853,13.77,13.77,0,0,0-1.184,5.893,2.1,2.1,0,0,0,.107.97,2,2,0,0,0,1,.748l.552.263c-.12.445-.227.89-.32,1.357-.7-.792-1.954-2.047-2.168-1.13a45.294,45.294,0,0,0-1.139,9.347.788.788,0,0,0,.846.944,51.746,51.746,0,0,0,9.262.792c2.515,0,5.025-.2,7.531-.4l2.568-.2a56.818,56.818,0,0,0,7.865-.975,6.594,6.594,0,0,0,3.16-1.4,2.681,2.681,0,0,0,.685-3.169h0c-.717-1.22-2.39-1.309-3.788-1.5a12.392,12.392,0,0,1-3.97-1.264c-.28-.142-.552-.3-.823-.445a.618.618,0,0,0,.214-.062,28.792,28.792,0,0,0,3.289-1.892,13.431,13.431,0,0,1,4.26-.975,9.259,9.259,0,0,0,4.153-1.273,3.65,3.65,0,0,0,1.669-3.512,2.282,2.282,0,0,0-.071-.276c-.445-1.438-2-2.225-3.454-2.582a10.529,10.529,0,0,1-4.2-1.5l-.174-.138c-.1-.085-.2-.165-.307-.249a2.5,2.5,0,0,0,.343-1.451,7.24,7.24,0,0,0-.841-2.226,15.99,15.99,0,0,1-.837-4.624c-.418-3.93-1.625-7.722-2.532-11.572-.1-.445-.2-.89-.3-1.335a27.981,27.981,0,0,1,3.236-5.181,16.911,16.911,0,0,0,3.116-6.129c.187-.685.325-1.38.467-2.079q2.413-12.057,4.558-24.155a20.09,20.09,0,0,0,.405-3.49,10.63,10.63,0,0,0,.6-3.307c.418-1.633.841-3.347.5-4.415a43.014,43.014,0,0,1-.494-5.822,22.355,22.355,0,0,0-.24-3.975c-.04-.227-.085-.445-.134-.672q-.04-.2-.08-.334a11.433,11.433,0,0,0-.783-2.163,10.518,10.518,0,0,0-.588-1.206,5.485,5.485,0,0,0-.445-.659,27.594,27.594,0,0,1,2.768.258c.222.031.5.049.636-.134a.654.654,0,0,0,.08-.343,5.676,5.676,0,0,0-.721-3.009,4.13,4.13,0,0,1-.837-1.972,2.9,2.9,0,0,1,.245-.979l1.233-3.311c1.046-2.8.547-6.044,1.09-8.982a52.72,52.72,0,0,0,.81-6.948c.1-1.99.04-4.148-1.157-5.742a6.554,6.554,0,0,1-.89-1.264,3.745,3.745,0,0,1-.214-1.509q-.031-4.678.187-9.347a91.86,91.86,0,0,0,15.6-1.78,9.794,9.794,0,0,0,1.78-.481,8.982,8.982,0,0,0,1.78-1.126,23.11,23.11,0,0,0,4.856-4.251,14.4,14.4,0,0,0,2.875-7.095,11.577,11.577,0,0,0,2.568-4.451,6.863,6.863,0,0,0,.588-2.159c.031-.766-.472-1.567-.329-2.319a6.134,6.134,0,0,1,1.865-3.374,1.219,1.219,0,0,0,.445-.592.942.942,0,0,0-.1-.579l-.04-.067c.125-.076.24-.156.36-.236.414-.294.81-.619,1.2-.935a7.572,7.572,0,0,0,1.553-1.576,2.559,2.559,0,0,0,.418-2.092Zm-57.11,170.6a1.246,1.246,0,0,0-.316.027,4.257,4.257,0,0,0-1.131.325l-.085.045c.49-1.059.953-2.136,1.371-3.231.049-.129.093-.258.142-.392l-.053.73a9,9,0,0,0,.071,2.5Z" transform="translate(-365.22 -234.838)" fill="url(#linear-gradient)"/>
      <path id="패스_263" data-name="패스 263" d="M670.032,442.412c.044,1.727.632,3.4.721,5.127-5.087.254-10.112-2.226-15.133-1.46a6.99,6.99,0,0,0,2.608-4.171,17.313,17.313,0,0,0,.494-6.414,2.925,2.925,0,0,0-.062-.352,9.279,9.279,0,0,1-.543-2.706c.174-.89,1-.708,1.749-.659a66.993,66.993,0,0,1,6.792.89c.588.1,6.289,1.527,6.378,1.38a26.558,26.558,0,0,0-2.47,5.087A9.932,9.932,0,0,0,670.032,442.412Z" transform="translate(-386.047 -260.348)" fill="#ee8e9e"/>
      <path id="패스_264" data-name="패스 264" d="M788.227,430.357a7.409,7.409,0,0,1-1.553,1.567c-.387.316-.783.641-1.2.93a5.119,5.119,0,0,1-2.546,1.037c-1.211.08-3.788-.632-4.54-1.669a3.012,3.012,0,0,1-.445-1.74,7.958,7.958,0,0,1,.418-2.43,13.536,13.536,0,0,1,1.963-3.561,10.613,10.613,0,0,1,3.156-3.156,12.176,12.176,0,0,1,1.335-.619l2.372-.97a1.114,1.114,0,0,1,.445-.116c.636,0,.752.979.391,1.5-.721,1.059-2.346,1.335-2.8,2.55A1.821,1.821,0,0,1,786.914,425a.938.938,0,0,0,.227.53c.209.165.539.071.774.2.423.223.236.85.281,1.335a6,6,0,0,0,.445,1.193A2.532,2.532,0,0,1,788.227,430.357Z" transform="translate(-453.923 -253.633)" fill="#ee8e9e"/>
      <path id="패스_265" data-name="패스 265" d="M643.4,823.076a1.814,1.814,0,0,1,1.58-.24,58.752,58.752,0,0,0,8.88.717c.374-1.816-.708-3.561-1.055-5.4a4.79,4.79,0,0,0-.356-1.371,3.045,3.045,0,0,0-2.248-1.335c-1.6-.338-4.1-.93-4.994.685C644.134,818.047,643.792,820.913,643.4,823.076Z" transform="translate(-379.266 -473.056)" fill="#65617d"/>
      <path id="패스_266" data-name="패스 266" d="M692.581,806.838a9.362,9.362,0,0,1-4.153,1.264,13.44,13.44,0,0,0-4.26.975,27.437,27.437,0,0,1-3.289,1.878,6.812,6.812,0,0,1-3.414.053,5.077,5.077,0,0,1-3.512-1.909,5.831,5.831,0,0,1-.494-3.561c.107-1.375.209-2.76.307-4.139a1.959,1.959,0,0,1,.258-1c.975-1.424,3.347.592,4.616.592a8.9,8.9,0,0,0,5.617-2.426,1.731,1.731,0,0,1,.445-.329c.574-.258,1.148.218,1.656.632l.174.138c1.175.93,2.751,1.122,4.2,1.5s3,1.135,3.454,2.568a2.055,2.055,0,0,1,.071.271A3.676,3.676,0,0,1,692.581,806.838Z" transform="translate(-395.915 -463.685)" fill="#3f3d56"/>
      <path id="패스_267" data-name="패스 267" d="M692.581,806.838a9.362,9.362,0,0,1-4.153,1.264,13.44,13.44,0,0,0-4.26.975,27.437,27.437,0,0,1-3.289,1.878,6.812,6.812,0,0,1-3.414.053,5.077,5.077,0,0,1-3.512-1.909,5.831,5.831,0,0,1-.494-3.561c.107-1.375.209-2.76.307-4.139a1.959,1.959,0,0,1,.258-1c.975-1.424,3.347.592,4.616.592a8.9,8.9,0,0,0,5.617-2.426,1.731,1.731,0,0,1,.445-.329c.574-.258,1.148.218,1.656.632l.174.138c1.175.93,2.751,1.122,4.2,1.5s3,1.135,3.454,2.568a2.055,2.055,0,0,1,.071.271A3.676,3.676,0,0,1,692.581,806.838Z" transform="translate(-395.915 -463.685)" fill="#267dff"/>
      <path id="패스_268" data-name="패스 268" d="M692.581,807.3a9.367,9.367,0,0,1-4.153,1.268,13.435,13.435,0,0,0-4.26.97,27.429,27.429,0,0,1-3.289,1.878,6.813,6.813,0,0,1-3.414.053,5.608,5.608,0,0,1-3.512-2.372,5.831,5.831,0,0,1-.494-3.561c.107-1.375.209-2.76.307-4.139a1.959,1.959,0,0,1,.258-1c.975-1.424,3.347.592,4.616.592a8.9,8.9,0,0,0,5.617-2.426,1.731,1.731,0,0,1,.445-.329c.574-.258,1.148.218,1.656.632a11.751,11.751,0,0,1-1.411,2.92,6.066,6.066,0,0,1-4.451,2.768,14.364,14.364,0,0,0-2.671.12c-.85.231-1.678,1.122-1.371,1.967s1.362,1,2.225,1.05a9.962,9.962,0,0,0,3.654-.258c.712-.236,1.366-.628,2.056-.917,2.947-1.22,6.676-.539,9.107-2.6a5.781,5.781,0,0,1,.743-.57C694.887,804.679,693.7,806.549,692.581,807.3Z" transform="translate(-395.915 -463.685)" fill="#e8eaf2"/>
      <path id="패스_269" data-name="패스 269" d="M692.581,807.3a9.367,9.367,0,0,1-4.153,1.268,13.435,13.435,0,0,0-4.26.97,27.429,27.429,0,0,1-3.289,1.878,6.813,6.813,0,0,1-3.414.053,5.608,5.608,0,0,1-3.512-2.372,5.831,5.831,0,0,1-.494-3.561c.107-1.375.209-2.76.307-4.139a1.959,1.959,0,0,1,.258-1c.975-1.424,3.347.592,4.616.592a8.9,8.9,0,0,0,5.617-2.426,1.731,1.731,0,0,1,.445-.329c.574-.258,1.148.218,1.656.632a11.751,11.751,0,0,1-1.411,2.92,6.066,6.066,0,0,1-4.451,2.768,14.364,14.364,0,0,0-2.671.12c-.85.231-1.678,1.122-1.371,1.967s1.362,1,2.225,1.05a9.962,9.962,0,0,0,3.654-.258c.712-.236,1.366-.628,2.056-.917,2.947-1.22,6.676-.539,9.107-2.6a5.781,5.781,0,0,1,.743-.57C694.887,804.679,693.7,806.549,692.581,807.3Z" transform="translate(-395.915 -463.685)" opacity="0.05"/>
      <path id="패스_270" data-name="패스 270" d="M644.191,609.432a18.146,18.146,0,0,0,2.484,13.353,25.167,25.167,0,0,1,2.021,3.236,15.024,15.024,0,0,1,.788,2.568l2.225,9.258a25.085,25.085,0,0,1,1.033,7.616c-.125,1.78-.579,3.8.525,5.212a3.763,3.763,0,0,1,.663.912,2.293,2.293,0,0,1,0,1.2c-1.131,6.725-1.972,13.753.071,20.256,1.856,5.9,1.963,12.431,3.539,18.4a4.112,4.112,0,0,0,.975,2.043,3.235,3.235,0,0,0,1.469.694,10.812,10.812,0,0,0,6.939-1.1c1.522-.708,3.16-1.945,3.031-3.614a7.282,7.282,0,0,0-.841-2.225,15.782,15.782,0,0,1-.837-4.6c-.418-3.908-1.625-7.682-2.533-11.5s-1.531-7.82-.761-11.675a102.279,102.279,0,0,1,7.509-23.1,2.791,2.791,0,0,1,.69-1.033,7.49,7.49,0,0,0,.975-.663,2.964,2.964,0,0,0,.445-1.211c.338-1.22,1.335-2.123,2.016-3.191,1.7-2.706,1.166-6.173,1.1-9.369-.062-3.116.383-6.231-.125-9.311s-2.243-6.2-5.2-7.148a11.241,11.241,0,0,0-4.58-.214A90.036,90.036,0,0,0,644.191,609.432Z" transform="translate(-379.504 -356.001)" fill="#696791"/>
      <path id="패스_271" data-name="패스 271" d="M644.191,610.432a18.146,18.146,0,0,0,2.484,13.353,25.172,25.172,0,0,1,2.021,3.236,15.02,15.02,0,0,1,.788,2.568l2.225,9.258a25.085,25.085,0,0,1,1.033,7.616c-.125,1.78-.579,3.8.525,5.212a3.767,3.767,0,0,1,.663.912,2.294,2.294,0,0,1,0,1.2c-1.131,6.725-1.972,13.753.071,20.256,1.856,5.9,1.963,12.431,3.539,18.4a4.113,4.113,0,0,0,.975,2.043,3.236,3.236,0,0,0,1.469.694,10.812,10.812,0,0,0,6.939-1.095c1.522-.708,3.16-1.945,3.031-3.614a7.282,7.282,0,0,0-.841-2.225,15.782,15.782,0,0,1-.837-4.6c-.418-3.908-1.625-7.682-2.533-11.5s-1.531-7.82-.761-11.675a102.275,102.275,0,0,1,7.509-23.1,2.79,2.79,0,0,1,.69-1.033,7.507,7.507,0,0,0,.975-.663,2.964,2.964,0,0,0,.445-1.211c.338-1.219,1.335-2.123,2.016-3.191,1.7-2.706,1.166-6.173,1.1-9.369-.062-3.116.383-6.231-.125-9.311s-2.243-6.2-5.2-7.148a11.241,11.241,0,0,0-4.58-.214A90.036,90.036,0,0,0,644.191,610.432Z" transform="translate(-379.504 -356.556)" opacity="0.1"/>
      <path id="패스_272" data-name="패스 272" d="M676.055,630.775a19.575,19.575,0,0,1-.405,3.592q-2.15,12.017-4.576,24.035c-.142.694-.28,1.389-.467,2.07a16.814,16.814,0,0,1-3.116,6.1c-6.743,8.408-7.326,20.617-10.985,30.756-.249.686-.494,1.375-.757,2.052a51.5,51.5,0,0,1-2.257,5.034,1.433,1.433,0,0,1-.445.6,1.371,1.371,0,0,1-.734.147A21.5,21.5,0,0,1,642.807,703a1.994,1.994,0,0,1-1.01-.841,2.074,2.074,0,0,1-.107-.966,13.611,13.611,0,0,1,1.184-5.857,12.564,12.564,0,0,1,2.341-2.84,107.873,107.873,0,0,1,2.3-18.792,25.573,25.573,0,0,1,3.423-9c1.335-1.967,3.285-3.908,3.044-6.28-.1-1.042-.539-2.337.307-2.947.37-.271.917-.307,1.171-.69a1.335,1.335,0,0,0,.165-.588,14.54,14.54,0,0,0-.3-4.865,26.134,26.134,0,0,1-.725-3.174,4.006,4.006,0,0,1,.8-3.062c.044-2.168,0-4.415.031-6.578a12.088,12.088,0,0,0-.307-3.672c-.16-.565-.414-1.108-.539-1.687-.445-2.079.677-4.571-.668-6.231a9.116,9.116,0,0,0-2.159-1.522,7.882,7.882,0,0,1-2.964-4.26,23.406,23.406,0,0,1-.846-5.225,5.034,5.034,0,0,1,0-1.126,1.937,1.937,0,0,1,.151-.565,3.442,3.442,0,0,1,2.542-1.544,82.413,82.413,0,0,1,19.411-2.27c2.421-1.647,3.779-1.055,4.807.685a18.288,18.288,0,0,1,1.366,3.343c.445,1.415.5,9.347.953,10.758C677.746,625.052,676.033,628.835,676.055,630.775Z" transform="translate(-378.307 -357.854)" fill="#696791"/>
      <path id="패스_273" data-name="패스 273" d="M620.407,494.685c-.178,1.246.418,2.47.485,3.73a14.283,14.283,0,0,1-.49,3.254c-.783,4.219.717,8.5,2.225,12.512a6.409,6.409,0,0,1,.534,2.056c.04,1.308-.712,2.51-.921,3.805-.445,2.72,1.571,5.274,1.616,8.012,0,1.269-.383,2.559-.062,3.783a13.235,13.235,0,0,0,1.082,2.288c.645,1.335.819,2.893,1.433,4.26,1.108,2.47,3.49,4.086,5.76,5.568a6.019,6.019,0,0,0,3.392-2.1,5.177,5.177,0,0,0,.592-1.843,47.3,47.3,0,0,0,.445-8.55,52.787,52.787,0,0,0-.37-7.362c-.445-3.116-1.464-6.1-2.19-9.156-.89-3.85-1.375-7.829-2.8-11.528a39.4,39.4,0,0,0-5.239-8.955c-.779-1.064-1.4-2.586-2.911-2.341a3.174,3.174,0,0,0-2.586,2.568Z" transform="translate(-366.385 -293.842)" fill="#434175"/>
      <path id="패스_274" data-name="패스 274" d="M620.407,492.685c-.178,1.246.418,2.47.485,3.73a14.283,14.283,0,0,1-.49,3.254c-.783,4.22.717,8.5,2.225,12.512a6.409,6.409,0,0,1,.534,2.056c.04,1.309-.712,2.51-.921,3.806-.445,2.719,1.571,5.274,1.616,8.012,0,1.269-.383,2.559-.062,3.783a13.24,13.24,0,0,0,1.082,2.288c.645,1.335.819,2.893,1.433,4.259,1.108,2.47,3.49,4.086,5.76,5.568a6.019,6.019,0,0,0,3.392-2.1,5.178,5.178,0,0,0,.592-1.843,47.3,47.3,0,0,0,.445-8.55,52.788,52.788,0,0,0-.37-7.362c-.445-3.116-1.464-6.1-2.19-9.156-.89-3.85-1.375-7.829-2.8-11.528a39.4,39.4,0,0,0-5.239-8.955c-.779-1.064-1.4-2.586-2.911-2.341a3.173,3.173,0,0,0-2.586,2.568Z" transform="translate(-366.385 -292.732)" fill="#2b72e1" opacity="0.797"/>
      <path id="패스_275" data-name="패스 275" d="M676.049,434.036a26.566,26.566,0,0,0-2.47,5.087,11.655,11.655,0,0,1-2.8.338c-3.672,0-6.267-2.087-8.426-4.727-.187-.846-1.335-1.634-1.22-2.3.174-.89,1-.708,1.749-.659a66.99,66.99,0,0,1,6.792.89C670.259,432.741,675.96,434.183,676.049,434.036Z" transform="translate(-389.099 -260.348)" opacity="0.1"/>
      <circle id="타원_95" data-name="타원 95" cx="11.755" cy="11.755" r="11.755" transform="translate(269.921 155.284)" fill="#ee8e9e"/>
      <path id="패스_276" data-name="패스 276" d="M682.63,609.136c-2.034-.12-4.086-.036-6.125.044a20.983,20.983,0,0,0-3.805.392c-1.544.352-2.987,1.055-4.509,1.5a41.442,41.442,0,0,1-7.535.988,41.971,41.971,0,0,0-4.936.774,1.934,1.934,0,0,1,.151-.565,3.441,3.441,0,0,1,2.542-1.544,82.405,82.405,0,0,1,19.411-2.27C680.245,606.826,681.6,607.4,682.63,609.136Z" transform="translate(-386.102 -357.877)" opacity="0.1"/>
      <path id="패스_277" data-name="패스 277" d="M657.147,460.976c-.512.592-1.2,1.246-1.958,1.055a2.708,2.708,0,0,1-.766-.41,11.441,11.441,0,0,0-4.611-1.335,67.828,67.828,0,0,1-9.5-2.136,9.761,9.761,0,0,0-2.813-.57,6.808,6.808,0,0,0-5,2.884c-1.246,1.549-2.136,3.369-3.36,4.941-.89,1.122-1.914,2.11-2.728,3.271a14.293,14.293,0,0,0-1.967,10.3,42.5,42.5,0,0,0,3.352,10.184,34.921,34.921,0,0,0,2.733,5.546,13.15,13.15,0,0,0,1.059,8.19,8.161,8.161,0,0,1,1.064,2.435,6.167,6.167,0,0,1-.071,1.78l-.6,4.255c-.182,1.3-.365,2.59-.6,3.881-.445,2.355-1.015,4.9.076,7.041,1.3,2.555-.067,5.826.276,8.675a43.535,43.535,0,0,1,11.457-2.719,41.444,41.444,0,0,0,7.535-.988c1.522-.445,2.964-1.144,4.509-1.5a20.915,20.915,0,0,1,3.806-.387,45.49,45.49,0,0,1,8.457.187c.223.036.5.053.636-.129a.655.655,0,0,0,.085-.334,5.621,5.621,0,0,0-.721-2.991,4.1,4.1,0,0,1-.837-1.963,2.884,2.884,0,0,1,.245-.975l1.233-3.294c1.046-2.782.547-6.013,1.09-8.933a52.268,52.268,0,0,0,.81-6.912c.1-1.981.04-4.126-1.157-5.711a6.526,6.526,0,0,1-.89-1.26,3.713,3.713,0,0,1-.214-1.5q-.04-5.946.325-11.893c-1.042-1.874-2.132-3.788-3.173-5.662a24.144,24.144,0,0,1-2.933-6.854c-.325-1.616-.316-3.285-.547-4.918a2.181,2.181,0,0,0-.414-1.153,2.087,2.087,0,0,0-1.674-.494A7.316,7.316,0,0,0,657.147,460.976Z" transform="translate(-368.631 -274.692)" fill="#2b72e1"/>
      <path id="패스_278" data-name="패스 278" d="M785.476,446.163a5.119,5.119,0,0,1-2.546,1.037c-1.211.08-3.788-.632-4.54-1.669a3.012,3.012,0,0,1-.445-1.74,2.187,2.187,0,0,1,.507-.1,13.3,13.3,0,0,1,3.944.16,4.414,4.414,0,0,1,3.058,2.3Z" transform="translate(-453.923 -266.942)" opacity="0.1"/>
      <path id="패스_279" data-name="패스 279" d="M703.226,471.968A8.357,8.357,0,0,0,705.7,474.3a7.982,7.982,0,0,0,3.859.592,92.581,92.581,0,0,0,16.126-1.78,10.16,10.16,0,0,0,1.78-.476,9.176,9.176,0,0,0,1.78-1.122,22.9,22.9,0,0,0,4.856-4.233,14.265,14.265,0,0,0,2.875-7.055,11.519,11.519,0,0,0,2.568-4.42,6.782,6.782,0,0,0,.588-2.145c.031-.761-.472-1.558-.329-2.306A6.071,6.071,0,0,1,741.668,448a1.22,1.22,0,0,0,.445-.592.934.934,0,0,0-.1-.574,4.443,4.443,0,0,0-3.062-2.3,13.181,13.181,0,0,0-3.948-.16,8.932,8.932,0,0,0-1.291.347l-.921,2.417a3.061,3.061,0,0,1-.6,1.1,5.579,5.579,0,0,1-.65.512,3.73,3.73,0,0,0-1.3,3.263,3.507,3.507,0,0,0-2.074,4.326,4.139,4.139,0,0,0-3.031,2.671,1.983,1.983,0,0,1-.4.832,1.629,1.629,0,0,1-1.042.338c-1.041.062-1.949.89-2.889.445a5.915,5.915,0,0,0-3.432-.481,2.571,2.571,0,0,1-.734.067,1.972,1.972,0,0,1-.6-.209,4.771,4.771,0,0,0-1.362-.534,1.264,1.264,0,0,0-1.291.5c-.329-.361-.525-.823-.823-1.211a1.335,1.335,0,0,0-1.255-.6c.312-.276,0-.832-.414-.935a5.636,5.636,0,0,0-1.251.045c-1.086,0-1.923-.993-2.978-1.251-.97-.236-2.265.049-2.764-.819-.174-.307-.209-.726-.507-.89a.98.98,0,0,0-.659-.076,6.339,6.339,0,0,0-1.981.6c-1.019,4.006-.485,8.118.289,12.151A10.713,10.713,0,0,0,703.226,471.968Z" transform="translate(-410.783 -267.323)" fill="#2b72e1"/>
      <path id="패스_280" data-name="패스 280" d="M700.621,536.84l-5.061,10.21c.547-.948,1.7-1.335,2.613-1.918a6.917,6.917,0,0,0,2.479-3.356,20.985,20.985,0,0,0,.957-4.135,3.729,3.729,0,0,0,0-2.141C701.048,535.62,700.861,536.364,700.621,536.84Z" transform="translate(-408.21 -317.93)" opacity="0.1"/>
      <path id="패스_281" data-name="패스 281" d="M658.856,555.525a45.488,45.488,0,0,1-3.8,2.964c-2.938,2.341-5.03,5.546-7.073,8.693a13.687,13.687,0,0,0-1.447,2.635c.24.2.6,0,.837-.218l3.975-3.49a8.99,8.99,0,0,0,1.335-1.335c.69-.93,1-2.088,1.625-3.062a11.946,11.946,0,0,1,2.417-2.461c.912-.783,5.105-4.331,4.086-5.711C660.062,553.9,659.457,554.92,658.856,555.525Z" transform="translate(-381.008 -327.941)" opacity="0.1"/>
      <path id="패스_282" data-name="패스 282" d="M651.691,455.606a11.918,11.918,0,0,0-4.206-1.384,8.9,8.9,0,0,0-2.67-.191c-.828.1-1.625.423-2.457.445a10.938,10.938,0,0,1-3.418-.717,3.961,3.961,0,0,0-3.383.254,1.464,1.464,0,0,1-.739.392,1.335,1.335,0,0,1-.761-.374,4.335,4.335,0,0,0-5.4.285c-2.154,2.021-1.909,5.969-4.451,7.5-.694.445-1.585.645-1.994,1.335a5.34,5.34,0,0,1-.343.65,1.782,1.782,0,0,1-.605.445,11.763,11.763,0,0,0-2.083,1.2,2.964,2.964,0,0,0-1.2,2.007,3.8,3.8,0,0,0,.365,1.687,15.854,15.854,0,0,0,15.4,9.85,2.413,2.413,0,0,0,1.616-.5,3.085,3.085,0,0,0,.565-.93c1.188-2.488,3.418-4.326,4.834-6.676.841-1.411,1.384-2.991,2.265-4.38a21.093,21.093,0,0,1,5.341-5.172c1.122-.85,2.363-1.745,3.77-1.687,1.251.053,2.163.12,1.7-1.411A4.9,4.9,0,0,0,651.691,455.606Z" transform="translate(-365.159 -272.272)" fill="#434175"/>
      <path id="패스_283" data-name="패스 283" d="M651.691,455.606a11.918,11.918,0,0,0-4.206-1.384,8.9,8.9,0,0,0-2.67-.191c-.828.1-1.625.423-2.457.445a10.938,10.938,0,0,1-3.418-.717,3.961,3.961,0,0,0-3.383.254,1.464,1.464,0,0,1-.739.392,1.335,1.335,0,0,1-.761-.374,4.335,4.335,0,0,0-5.4.285c-2.154,2.021-1.909,5.969-4.451,7.5-.694.445-1.585.645-1.994,1.335a5.34,5.34,0,0,1-.343.65,1.782,1.782,0,0,1-.605.445,11.763,11.763,0,0,0-2.083,1.2,2.964,2.964,0,0,0-1.2,2.007,3.8,3.8,0,0,0,.365,1.687,15.854,15.854,0,0,0,15.4,9.85,2.413,2.413,0,0,0,1.616-.5,3.085,3.085,0,0,0,.565-.93c1.188-2.488,3.418-4.326,4.834-6.676.841-1.411,1.384-2.991,2.265-4.38a21.093,21.093,0,0,1,5.341-5.172c1.122-.85,2.363-1.745,3.77-1.687,1.251.053,2.163.12,1.7-1.411A4.9,4.9,0,0,0,651.691,455.606Z" transform="translate(-365.159 -272.272)" fill="#2b72e1" opacity="0.802"/>
      <path id="패스_284" data-name="패스 284" d="M668.519,829.671a6.541,6.541,0,0,1-3.16,1.389,56.842,56.842,0,0,1-7.865.975l-2.568.2c-2.506.191-5.016.383-7.531.392a52.143,52.143,0,0,1-9.267-.8,1.014,1.014,0,0,1-.734-.356,1,1,0,0,1-.111-.583,44.847,44.847,0,0,1,1.139-9.3c.289-1.251,2.537,1.558,2.639,1.678a2.564,2.564,0,0,0,2.043,1.082c2.586.142,5.484-1.429,7.535-2.826a9.874,9.874,0,0,1,1.4-.868,4.092,4.092,0,0,1,1.13-.32,6.8,6.8,0,0,1,3.846.779c1.544.766,2.9,1.865,4.451,2.671a12.485,12.485,0,0,0,3.97,1.255c1.4.191,3.071.285,3.788,1.5h0A2.7,2.7,0,0,1,668.519,829.671Z" transform="translate(-375.867 -475.965)" fill="#267dff"/>
      <path id="패스_285" data-name="패스 285" d="M667.949,830.17a6.543,6.543,0,0,1-3.16,1.389,56.849,56.849,0,0,1-7.865.975l-2.568.2c-2.506.191-5.016.383-7.531.392a51.738,51.738,0,0,1-9.267-.8,1.01,1.01,0,0,1-.734-.352,4.12,4.12,0,0,1-.574-1.05,45.092,45.092,0,0,1,1.6-9.3c.289-1.251,2.537,1.558,2.639,1.678a2.564,2.564,0,0,0,2.043,1.081c2.586.142,5.484-1.429,7.535-2.826a9.868,9.868,0,0,1,1.4-.868,4.09,4.09,0,0,1,1.13-.32c-.334,1.861-3,4.108-4.38,4.794-2.786,1.384-6.1.69-9.2.854a1.335,1.335,0,0,0-.654.156c-.369.249-.392.779-.383,1.224.027.739.12,1.611.766,1.985a2.2,2.2,0,0,0,1.032.218,145.955,145.955,0,0,0,22.954-.806,12.564,12.564,0,0,0,3.739-.832,9.545,9.545,0,0,0,2.168-1.4C669.614,827.321,668.8,829.378,667.949,830.17Z" transform="translate(-375.298 -476.001)" fill="#e8eaf2"/>
      <path id="패스_286" data-name="패스 286" d="M670.648,406.252c-.045,1.215.783,3.561-1.491,2.915-1.335-.392-1.736-2-3.454-1.642s-2.119,2.479-2.7,3.863a7.384,7.384,0,0,1-5.341,4.326,3.231,3.231,0,0,1-1.473,0A3.971,3.971,0,0,1,654,413.2a19.612,19.612,0,0,1-.97-2.768,11.267,11.267,0,0,1-.352-2.03h0a8.651,8.651,0,0,1,0-1.4,11.387,11.387,0,0,1,3.792-7.188,33.611,33.611,0,0,1,6.877-4.642,10.19,10.19,0,0,1,2.537-1.131,8.549,8.549,0,0,1,2.671-.107,9.28,9.28,0,0,1,3.409.8,4.767,4.767,0,0,1,1.2.841A3.608,3.608,0,0,1,674.2,397.3c.445,1.78-.7,3.4-1.629,4.807C671.725,403.359,670.705,404.685,670.648,406.252Z" transform="translate(-384.396 -239.338)" fill="#434175"/>
      <path id="패스_287" data-name="패스 287" d="M776.455,473.086c-.485-1.224-2.524-4.611-1.936-5.786a15.028,15.028,0,0,1,1.553,2.777C776.455,471.034,776.152,472.307,776.455,473.086Z" transform="translate(-451.966 -280.085)" opacity="0.1"/>
      <path id="패스_288" data-name="패스 288" d="M674.963,403.913c.926-1.411,2.065-3.022,1.629-4.807a3.717,3.717,0,0,0-1.335-1.976,3.232,3.232,0,0,1,.338.832c.445,1.78-.7,3.392-1.629,4.807-.823,1.255-1.843,2.586-1.905,4.148-.044,1.215.788,3.561-1.487,2.915-1.335-.392-1.736-2-3.458-1.642s-2.114,2.475-2.7,3.863a7.375,7.375,0,0,1-5.341,4.326,3.232,3.232,0,0,1-1.473,0,2.249,2.249,0,0,1-.694-.343,3.009,3.009,0,0,0,1.678,1.487,3.312,3.312,0,0,0,1.478,0,7.4,7.4,0,0,0,5.341-4.331c.583-1.389.961-3.5,2.7-3.859s2.1,1.246,3.458,1.638c2.275.659,1.442-1.7,1.487-2.915C673.12,406.5,674.144,405.168,674.963,403.913Z" transform="translate(-386.762 -241.148)" opacity="0.1"/>
      <path id="패스_289" data-name="패스 289" d="M673.078,399.687a9.7,9.7,0,0,1-.694,1,11.831,11.831,0,0,1-1.607,1.665c-.352.3-.712.583-1.086.85a17.114,17.114,0,0,1-2.194,1.313,40.717,40.717,0,0,1-7.024,2.515l-4.691,1.366c-.579.445-1.633,1.22-2.8,2.034a11.276,11.276,0,0,1-.352-2.03h0a8.672,8.672,0,0,1,0-1.4,11.388,11.388,0,0,1,3.792-7.188,33.611,33.611,0,0,1,6.877-4.642,10.193,10.193,0,0,1,2.537-1.131,8.549,8.549,0,0,1,2.671-.107,9.281,9.281,0,0,1,3.409.8,4.766,4.766,0,0,1,1.2.841,4.513,4.513,0,0,1,.6,1.273A3.609,3.609,0,0,1,673.078,399.687Z" transform="translate(-384.374 -239.338)" opacity="0.1"/>
      <path id="패스_290" data-name="패스 290" d="M666.844,396.17a9.712,9.712,0,0,1-.694,1,11.825,11.825,0,0,1-1.607,1.665c-.352.3-.712.583-1.086.85a17.656,17.656,0,0,1-2.194,1.313,40.711,40.711,0,0,1-7.024,2.515l-4.691,1.362c-1.638,1.242-7.122,5.3-8.043,4.794-1.086-.6,4.865-4.811,4.865-4.811l.271.209a4.262,4.262,0,0,1-1.522-2.915,14.648,14.648,0,0,1-.045-5.951,7.041,7.041,0,0,1,3.409-4.7,8.075,8.075,0,0,0,2.315-1.3,1.961,1.961,0,0,0,.227-.307.922.922,0,0,0,.089-.16,1.924,1.924,0,0,1,.249-.485c.325-.374.917-.263,1.411-.2h.16a2.531,2.531,0,0,0,.263,0c1.78.04,3.476-.944,5.261-.944,1.954,0,3.619,1.13,5.341,1.9.347.156.677.3.988.445a4.189,4.189,0,0,1,2.671,2.84A3.534,3.534,0,0,1,666.844,396.17Z" transform="translate(-378.14 -236.137)" fill="#267dff"/>
      <path id="패스_291" data-name="패스 291" d="M664.949,390.247a.8.8,0,0,1-.187,1.033,1.424,1.424,0,0,1-.739.263,4.972,4.972,0,0,1-.579.045,1.592,1.592,0,0,1-.761-.129.971.971,0,0,1-.134-.085,1.957,1.957,0,0,0,.227-.307c.044.036.089.027.263,0a4.066,4.066,0,0,0,.952-.16,1.061,1.061,0,0,0,.356-.174,1.105,1.105,0,0,0,.338-.512Z" transform="translate(-389.892 -237.313)" opacity="0.1"/>
      <path id="패스_292" data-name="패스 292" d="M652.86,425.59a2.17,2.17,0,0,0,.815.3,3.686,3.686,0,0,0,.628.1,3.49,3.49,0,0,0,1.536-.445" transform="translate(-384.515 -256.918)" opacity="0.1"/>
    </g>
  </g>
</svg>
