<svg id="그룹_570" data-name="그룹 570" xmlns="http://www.w3.org/2000/svg" width="280.03" height="168.6" viewBox="0 0 280.03 168.6">
  <path id="패스_511" data-name="패스 511" d="M597.361,277.844a4.258,4.258,0,0,1-4.235,4.28H406.775a4.258,4.258,0,0,1-4.236-4.28V150.555a4.258,4.258,0,0,1,4.235-4.28h186.35a4.258,4.258,0,0,1,4.235,4.28h0Z" transform="translate(-317.331 -146.275)" fill="#e6e6e6"/>
  <path id="패스_512" data-name="패스 512" d="M601.217,281.705a4.138,4.138,0,0,1-4.138,4.138H415.058a4.138,4.138,0,0,1-4.138-4.138V158.643a4.138,4.138,0,0,1,4.138-4.138H597.087a4.138,4.138,0,0,1,4.13,4.138Z" transform="translate(-323.385 -152.221)" fill="#fff"/>
  <path id="b9c54412-061c-4155-b289-fb4c23e4a64e" d="M439.576,173.755H610.611a2.456,2.456,0,0,1,2.456,2.456V291.474a2.456,2.456,0,0,1-2.456,2.456H439.576a2.456,2.456,0,0,1-2.456-2.456h0V176.211a2.456,2.456,0,0,1,2.456-2.456Z" transform="translate(-342.313 -166.128)" fill="#e6e6e6"/>
  <path id="패스_513" data-name="패스 513" d="M447.376,183.715H613.9a2.456,2.456,0,0,1,2.456,2.456V295.283a2.456,2.456,0,0,1-2.456,2.456H447.376a2.456,2.456,0,0,1-2.456-2.456h0V186.171A2.456,2.456,0,0,1,447.376,183.715Z" transform="translate(-347.948 -173.323)" fill="#fff"/>
  <path id="패스_514" data-name="패스 514" d="M442.361,332.844a4.258,4.258,0,0,1-4.235,4.28H251.775a4.258,4.258,0,0,1-4.235-4.28h0V205.555a4.258,4.258,0,0,1,4.235-4.28h186.35a4.258,4.258,0,0,1,4.235,4.28h0Z" transform="translate(-205.352 -186.01)" fill="#e6e6e6"/>
  <path id="패스_515" data-name="패스 515" d="M446.217,336.705a4.138,4.138,0,0,1-4.138,4.138H260.058a4.138,4.138,0,0,1-4.138-4.138V213.643a4.138,4.138,0,0,1,4.138-4.138H442.087a4.138,4.138,0,0,1,4.13,4.138Z" transform="translate(-211.406 -191.955)" fill="#fff"/>
  <path id="a7242049-80b4-49e1-bd08-67354734c824" d="M284.576,228.755H455.611a2.456,2.456,0,0,1,2.456,2.456V346.474a2.456,2.456,0,0,1-2.456,2.456H284.576a2.456,2.456,0,0,1-2.456-2.456h0V231.211a2.456,2.456,0,0,1,2.456-2.456Z" transform="translate(-230.334 -205.862)" fill="#e6e6e6"/>
  <path id="패스_516" data-name="패스 516" d="M292.376,238.715H458.9a2.456,2.456,0,0,1,2.456,2.456V350.283a2.456,2.456,0,0,1-2.456,2.456H292.376a2.456,2.456,0,0,1-2.456-2.456h0V241.171a2.456,2.456,0,0,1,2.456-2.456Z" transform="translate(-235.969 -213.058)" fill="#fff"/>
  <path id="패스_517" data-name="패스 517" d="M290.361,395.844a4.258,4.258,0,0,1-4.235,4.28H99.775a4.258,4.258,0,0,1-4.235-4.28V268.555a4.258,4.258,0,0,1,4.235-4.28h186.35a4.258,4.258,0,0,1,4.236,4.28h0Z" transform="translate(-95.54 -231.524)" fill="#e6e6e6"/>
  <path id="패스_518" data-name="패스 518" d="M294.217,399.705a4.138,4.138,0,0,1-4.138,4.138H108.058a4.138,4.138,0,0,1-4.138-4.138V276.643a4.138,4.138,0,0,1,4.138-4.138H290.087a4.138,4.138,0,0,1,4.13,4.138Z" transform="translate(-101.594 -237.469)" fill="#fff"/>
  <path id="b7a050eb-0cb2-44a8-b642-35d340850eff" d="M132.576,291.755H303.611a2.456,2.456,0,0,1,2.456,2.456V409.474a2.456,2.456,0,0,1-2.456,2.456H132.576a2.456,2.456,0,0,1-2.456-2.456V294.211a2.456,2.456,0,0,1,2.456-2.456Z" transform="translate(-120.522 -251.376)" fill="#e6e6e6"/>
  <path id="패스_519" data-name="패스 519" d="M140.376,301.715H306.9a2.456,2.456,0,0,1,2.456,2.456V413.283a2.456,2.456,0,0,1-2.456,2.456H140.376a2.456,2.456,0,0,1-2.456-2.456V304.171A2.456,2.456,0,0,1,140.376,301.715Z" transform="translate(-126.157 -258.572)" fill="#fff"/>
  <path id="패스_520" data-name="패스 520" d="M375.575,359.421v75.495a1.667,1.667,0,0,1-1.665,1.665h-79.1a1.667,1.667,0,0,1-1.665-1.665V350.539a1.667,1.667,0,0,1,1.665-1.665h69.111Z" transform="translate(-238.296 -292.642)" fill="#267dff"/>
  <path id="Path_40" data-name="Path 40" d="M340.865,415.072a1.042,1.042,0,1,0,0,2.084h27.479a1.042,1.042,0,0,0,.034-2.084H340.865Z" transform="translate(-272.021 -340.466)" fill="#fff"/>
  <path id="Path_40-2" data-name="Path 40" d="M340.865,450.291a1.042,1.042,0,1,0,0,2.084h54.4a1.042,1.042,0,1,0,.034-2.084H340.865Z" transform="translate(-272.021 -365.91)" fill="#fff"/>
  <path id="Path_40-3" data-name="Path 40" d="M340.865,485.51a1.042,1.042,0,1,0,0,2.084h54.4a1.042,1.042,0,1,0,.034-2.084H340.865Z" transform="translate(-272.021 -391.354)" fill="#fff"/>
  <path id="Path_40-4" data-name="Path 40" d="M340.865,520.729a1.042,1.042,0,1,0,0,2.084h54.4a1.042,1.042,0,0,0,.034-2.084H340.865Z" transform="translate(-272.021 -416.797)" fill="#fff"/>
  <path id="Path_40-5" data-name="Path 40" d="M340.865,555.948a1.042,1.042,0,1,0,0,2.084h54.4a1.042,1.042,0,0,0,.034-2.084H340.865Z" transform="translate(-272.021 -442.241)" fill="#fff"/>
  <path id="Path_40-6" data-name="Path 40" d="M340.865,591.167a1.042,1.042,0,1,0,0,2.084h54.4a1.042,1.042,0,0,0,.034-2.084H340.865Z" transform="translate(-272.021 -467.685)" fill="#fff"/>
  <path id="패스_521" data-name="패스 521" d="M559.8,359.421H549.252a1.11,1.11,0,0,1-1.11-1.11v-9.437h0Z" transform="translate(-422.52 -292.642)" fill="#6c63ff"/>
  <path id="패스_522" data-name="패스 522" d="M559.8,359.421H549.252a1.11,1.11,0,0,1-1.11-1.11v-9.437h0Z" transform="translate(-422.52 -292.642)" fill="#267dff" opacity="0.2"/>
</svg>
