<svg xmlns="http://www.w3.org/2000/svg" xmlns:xlink="http://www.w3.org/1999/xlink" width="320" height="320" viewBox="0 0 320 320">
  <defs>
    <clipPath id="clip-path">
      <circle id="타원_143" data-name="타원 143" cx="160" cy="160" r="160" transform="translate(324 308.142)" fill="#fff" stroke="#707070" stroke-width="1"/>
    </clipPath>
    <linearGradient id="linear-gradient" x1="0.459" y1="0.999" x2="0.459" y2="-0.006" gradientUnits="objectBoundingBox">
      <stop offset="0" stop-color="gray" stop-opacity="0.251"/>
      <stop offset="0.54" stop-color="gray" stop-opacity="0.122"/>
      <stop offset="1" stop-color="gray" stop-opacity="0.102"/>
    </linearGradient>
  </defs>
  <g id="마스크_그룹_20" data-name="마스크 그룹 20" transform="translate(-324 -308.142)" clip-path="url(#clip-path)">
    <g id="그룹_539" data-name="그룹 539" transform="translate(324 332.108)">
      <ellipse id="타원_105" data-name="타원 105" cx="146.633" cy="11.386" rx="146.633" ry="11.386" transform="translate(15.053 216.63)" fill="#267dff" opacity="0.1"/>
      <g id="그룹_534" data-name="그룹 534" transform="translate(234.558 31.752)" opacity="0.1">
        <path id="패스_384" data-name="패스 384" d="M862.144,470.182c-.876-2.66-4.43-3.885-7.935-2.733a8.539,8.539,0,0,0-1.459.631c-.224-.062-.456-.117-.69-.159a7.732,7.732,0,0,0,.217-2.343,8.488,8.488,0,0,0,3.761-7.408,8.5,8.5,0,0,0,3.747-7.408,8.2,8.2,0,0,0,2.84-3.216c1.691-3.347.99-7.107-1.566-8.4s-6,.373-7.694,3.719a8.172,8.172,0,0,0-.908,4.192,8.5,8.5,0,0,0-3.747,7.408,8.5,8.5,0,0,0-3.747,7.408,8.5,8.5,0,0,0-3.761,7.411,8.2,8.2,0,0,0-2.839,3.216,8.782,8.782,0,0,0-.718,1.98,7.306,7.306,0,0,0-1.532-1.632,8.757,8.757,0,0,0-.345-1.553c-1.152-3.509-4.244-5.648-6.9-4.772s-3.885,4.427-2.732,7.935a7.959,7.959,0,0,0,2.608,3.823,8.748,8.748,0,0,0,.345,1.553,7.591,7.591,0,0,0,3.5,4.4,8.019,8.019,0,0,0-.286,1.346,8.726,8.726,0,0,0-2.6,5.144,8.719,8.719,0,0,0-2.6,5.148,8.5,8.5,0,0,0-1.725,2.35c-1.694,3.347-.994,7.111,1.563,8.4s6-.369,7.7-3.719a8.492,8.492,0,0,0,.863-2.791,8.725,8.725,0,0,0,2.6-5.144,8.719,8.719,0,0,0,2.6-5.148,8.7,8.7,0,0,0,2.57-5.144,8.7,8.7,0,0,0,2.608-5.155,8.324,8.324,0,0,0,1.17-1.38,8.094,8.094,0,0,0,4.233-.266,8.541,8.541,0,0,0,1.459-.631,8,8,0,0,0,4.63-.166C860.867,475.937,863.017,472.845,862.144,470.182Z" transform="translate(-805.145 -338.796)" fill="#3f3d56"/>
        <g id="그룹_532" data-name="그룹 532" transform="translate(19.675 109.212)" opacity="0.1">
          <path id="패스_385" data-name="패스 385" d="M912.79,499.53a7.423,7.423,0,0,1-1.187.949,7.935,7.935,0,0,1-.383,2.909,9.028,9.028,0,0,0,.725-1.183,8.5,8.5,0,0,0,.845-2.674Z" transform="translate(-881.652 -487.844)"/>
          <path id="패스_386" data-name="패스 386" d="M923.65,478.06a7.415,7.415,0,0,1-1.187.949,7.934,7.934,0,0,1-.383,2.908,8.849,8.849,0,0,0,.725-1.187A8.577,8.577,0,0,0,923.65,478.06Z" transform="translate(-888.765 -473.782)"/>
          <path id="패스_387" data-name="패스 387" d="M897.985,467.182a7.569,7.569,0,0,1,.059-1.522,8.6,8.6,0,0,0-1.649,2.267,8.847,8.847,0,0,0-.524,1.287A7.85,7.85,0,0,1,897.985,467.182Z" transform="translate(-871.598 -465.66)"/>
          <path id="패스_388" data-name="패스 388" d="M833.07,595.166A8.14,8.14,0,0,1,834.088,594a7.9,7.9,0,0,1,.3-1.38,8.661,8.661,0,0,0-.79,1.28,8.845,8.845,0,0,0-.528,1.266Z" transform="translate(-830.465 -548.817)"/>
          <path id="패스_389" data-name="패스 389" d="M840.61,580.332a8.141,8.141,0,0,1,1.018-1.166,7.933,7.933,0,0,1,.286-1.346h0a8.863,8.863,0,0,0-.759,1.239,9.237,9.237,0,0,0-.545,1.273Z" transform="translate(-835.404 -539.123)"/>
          <path id="패스_390" data-name="패스 390" d="M902.241,520.845a7.185,7.185,0,0,1-1.183.945,7.745,7.745,0,0,1-.217,2.343,6.486,6.486,0,0,1,.69.159,8.542,8.542,0,0,1,1.459-.631c3.512-1.152,7.062.072,7.935,2.732a4.03,4.03,0,0,1,.11,2.07,4.739,4.739,0,0,0,1.139-4.534c-.876-2.66-4.43-3.885-7.935-2.733a8.552,8.552,0,0,0-1.459.631c-.224-.062-.455-.117-.69-.159C902.155,521.394,902.2,521.121,902.241,520.845Z" transform="translate(-874.853 -501.752)"/>
          <path id="패스_391" data-name="패스 391" d="M826.842,607.49a8.658,8.658,0,0,0-.79,1.28,9.156,9.156,0,0,0-.531,1.29,8.455,8.455,0,0,1,1.035-1.173A7.911,7.911,0,0,1,826.842,607.49Z" transform="translate(-825.52 -558.556)"/>
          <path id="패스_392" data-name="패스 392" d="M887.075,488.652a7.6,7.6,0,0,1,.059-1.522,8.6,8.6,0,0,0-1.649,2.267,8.828,8.828,0,0,0-.524,1.287A7.849,7.849,0,0,1,887.075,488.652Z" transform="translate(-864.452 -479.723)"/>
          <path id="패스_393" data-name="패스 393" d="M874.745,577.1a8.387,8.387,0,0,1-.345,1.511,9.2,9.2,0,0,0,.721-1.187,8.8,8.8,0,0,0,.562-1.38A8.367,8.367,0,0,1,874.745,577.1Z" transform="translate(-857.536 -537.957)"/>
          <path id="패스_394" data-name="패스 394" d="M859.665,606.916a8.327,8.327,0,0,1-.345,1.511,8.838,8.838,0,0,0,.725-1.187,9.13,9.13,0,0,0,.562-1.38,8.139,8.139,0,0,1-.942,1.056Z" transform="translate(-847.658 -557.489)"/>
          <path id="패스_395" data-name="패스 395" d="M867.205,592.035a8.323,8.323,0,0,1-.345,1.511,9.2,9.2,0,0,0,.738-1.166,8.81,8.81,0,0,0,.562-1.38A8.348,8.348,0,0,1,867.205,592.035Z" transform="translate(-852.597 -547.755)"/>
          <path id="패스_396" data-name="패스 396" d="M882.285,562.14a8.279,8.279,0,0,1-.345,1.508,8.927,8.927,0,0,0,.721-1.183,8.794,8.794,0,0,0,.566-1.4A8.012,8.012,0,0,1,882.285,562.14Z" transform="translate(-862.474 -528.145)"/>
          <path id="패스_397" data-name="패스 397" d="M830.308,521.4c2.663-.873,5.755,1.263,6.9,4.772a8.854,8.854,0,0,1,.345,1.556,7.308,7.308,0,0,1,1.532,1.632,8.807,8.807,0,0,1,.718-1.984c.121-.235.252-.459.386-.69a7.267,7.267,0,0,0-1.38-1.442,8.762,8.762,0,0,0-.345-1.553c-1.152-3.509-4.244-5.648-6.9-4.772a4.723,4.723,0,0,0-2.974,3.6,4.034,4.034,0,0,1,1.718-1.118Z" transform="translate(-827.531 -500.414)"/>
          <path id="패스_398" data-name="패스 398" d="M865.355,531.6a7.526,7.526,0,0,1,.062-1.518,8.534,8.534,0,0,0-1.653,2.267,8.648,8.648,0,0,0-.524,1.283A7.934,7.934,0,0,1,865.355,531.6Z" transform="translate(-850.226 -507.854)"/>
          <path id="패스_399" data-name="패스 399" d="M876.215,510.118a7.535,7.535,0,0,1,.062-1.518,8.461,8.461,0,0,0-1.653,2.263,8.862,8.862,0,0,0-.524,1.287A7.849,7.849,0,0,1,876.215,510.118Z" transform="translate(-857.339 -493.785)"/>
          <path id="패스_400" data-name="패스 400" d="M852.125,621.8a8.368,8.368,0,0,1-.345,1.515,8.876,8.876,0,0,0,1.287-2.584A8.127,8.127,0,0,1,852.125,621.8Z" transform="translate(-842.72 -567.228)"/>
        </g>
        <path id="패스_401" data-name="패스 401" d="M921.122,407.818a8.17,8.17,0,0,0,2.839-3.216c1.694-3.347.994-7.111-1.563-8.4s-6,.373-7.7,3.723a8.171,8.171,0,0,0-.9,4.2,8.5,8.5,0,0,0-3.747,7.408,8.146,8.146,0,0,0-2.839,3.216,8.517,8.517,0,0,0-.521,1.273,7.194,7.194,0,0,1,3.716-2.76,4.223,4.223,0,0,0,5.362,2.7,7.193,7.193,0,0,1,0,4.627,8.787,8.787,0,0,0,.718-1.173,8.169,8.169,0,0,0,.9-4.192,8.477,8.477,0,0,0,3.747-7.408Z" transform="translate(-859.01 -310.664)" fill="#3f3d56"/>
        <path id="패스_402" data-name="패스 402" d="M948.142,203.7a24.848,24.848,0,0,0,3.009-1.666L940,193.887l13.111,6.752a24.886,24.886,0,0,0,9.315-17.358l-22.281.228,22.33-3.733a24.841,24.841,0,1,0-49.193,6.307,24.874,24.874,0,0,0-4.575,2.76l11.644,16.192-13.98-14.173a24.869,24.869,0,0,0-6.959,22.637,24.841,24.841,0,1,0,34.864,17.63A24.841,24.841,0,0,0,948.142,203.7Z" transform="translate(-844.848 -154.038)" fill="#267dff"/>
        <path id="패스_403" data-name="패스 403" d="M901.619,274.5a24.762,24.762,0,0,0-2.191,16.116,24.841,24.841,0,1,0,34.864,17.63C939.167,305.986,902.868,272.015,901.619,274.5Z" transform="translate(-844.861 -231.158)" fill="#267dff" opacity="0.1"/>
        <circle id="타원_106" data-name="타원 106" cx="3.688" cy="3.688" r="3.688" transform="translate(81.064)" fill="#6c63ff"/>
        <circle id="타원_107" data-name="타원 107" cx="3.688" cy="3.688" r="3.688" transform="translate(102.607 2.367)" fill="#6c63ff"/>
        <circle id="타원_108" data-name="타원 108" cx="3.688" cy="3.688" r="3.688" transform="translate(110.915 35.509)" fill="#6c63ff"/>
        <circle id="타원_109" data-name="타원 109" cx="3.688" cy="3.688" r="3.688" transform="translate(99.702 52.06)" fill="#6c63ff"/>
        <circle id="타원_110" data-name="타원 110" cx="3.688" cy="3.688" r="3.688" transform="translate(84.383 86.434)" fill="#6c63ff"/>
        <circle id="타원_111" data-name="타원 111" cx="3.688" cy="3.688" r="3.688" transform="translate(84.383 86.434)" opacity="0.1"/>
        <circle id="타원_112" data-name="타원 112" cx="3.688" cy="3.688" r="3.688" transform="translate(50.323 47.502)" fill="#6c63ff"/>
        <circle id="타원_113" data-name="타원 113" cx="3.688" cy="3.688" r="3.688" transform="translate(50.323 47.502)" opacity="0.1"/>
        <path id="패스_404" data-name="패스 404" d="M908.126,458.164c-2.453-1.239-3.195-4.747-1.763-7.984-.076.131-.148.266-.217.407-1.694,3.347-.994,7.107,1.563,8.4s6-.373,7.694-3.719c.072-.138.135-.279.2-.417C913.843,457.926,910.575,459.406,908.126,458.164Z" transform="translate(-858.048 -346.309)" opacity="0.1"/>
        <path id="패스_405" data-name="패스 405" d="M897.566,479.037c-2.45-1.239-3.195-4.747-1.76-7.987-.076.135-.152.269-.221.407-1.694,3.347-.994,7.111,1.563,8.4s6-.369,7.7-3.719c.069-.138.134-.276.2-.417C903.283,478.8,900.019,480.276,897.566,479.037Z" transform="translate(-851.131 -359.978)" opacity="0.1"/>
        <path id="패스_406" data-name="패스 406" d="M887.008,499.914c-2.45-1.239-3.195-4.747-1.76-7.984-.076.131-.152.266-.221.407-1.694,3.347-.99,7.107,1.566,8.4s6-.373,7.694-3.719c.069-.138.135-.279.2-.417C892.728,499.676,889.461,501.156,887.008,499.914Z" transform="translate(-844.217 -373.654)" opacity="0.1"/>
        <path id="패스_407" data-name="패스 407" d="M876.484,520.844c-2.453-1.239-3.195-4.747-1.763-7.984-.076.131-.148.266-.221.4-1.691,3.347-.99,7.111,1.566,8.4s6-.373,7.694-3.723c.072-.138.135-.276.2-.417C882.191,520.585,878.923,522.065,876.484,520.844Z" transform="translate(-837.322 -387.363)" opacity="0.1"/>
        <path id="패스_408" data-name="패스 408" d="M865.9,541.664c-2.453-1.239-3.195-4.747-1.763-7.984-.076.131-.148.266-.217.407-1.694,3.347-.994,7.107,1.563,8.4s6-.373,7.7-3.719c.069-.138.135-.279.2-.417C871.62,541.426,868.345,542.906,865.9,541.664Z" transform="translate(-830.388 -401)" opacity="0.1"/>
        <path id="패스_409" data-name="패스 409" d="M855.336,562.544c-2.45-1.239-3.195-4.747-1.76-7.984-.076.131-.152.266-.221.4-1.694,3.347-.994,7.111,1.566,8.4s5.986-.376,7.711-3.723c.069-.138.135-.276.2-.417C861.053,562.3,857.8,563.782,855.336,562.544Z" transform="translate(-823.472 -414.676)" opacity="0.1"/>
        <path id="패스_410" data-name="패스 410" d="M844.781,583.414c-2.45-1.238-3.195-4.747-1.76-7.984-.076.135-.148.266-.221.407-1.691,3.347-.99,7.107,1.566,8.4s6-.373,7.694-3.719c.073-.138.135-.279.2-.417C850.5,583.176,847.234,584.656,844.781,583.414Z" transform="translate(-816.559 -428.345)" opacity="0.1"/>
        <path id="패스_411" data-name="패스 411" d="M834.226,604.294c-2.453-1.239-3.195-4.747-1.763-7.984q-.114.2-.217.4c-1.694,3.347-.994,7.111,1.563,8.4s6-.373,7.7-3.723c.069-.138.131-.276.193-.417C839.943,604.052,836.675,605.519,834.226,604.294Z" transform="translate(-809.645 -442.022)" opacity="0.1"/>
        <path id="패스_412" data-name="패스 412" d="M827.286,618.007c-2.45-1.242-3.195-4.747-1.759-7.987-.076.135-.152.269-.221.407-1.694,3.347-.994,7.111,1.563,8.4s6-.369,7.7-3.719c.069-.138.135-.276.2-.418C833,617.766,829.735,619.246,827.286,618.007Z" transform="translate(-805.099 -451.001)" opacity="0.1"/>
        <path id="패스_413" data-name="패스 413" d="M954.713,505.235a12.906,12.906,0,0,0,.69-3.378,1.842,1.842,0,1,0-.28-3.664,12.872,12.872,0,0,0-6.776-8.732,1.844,1.844,0,0,0-3.292-1.663,1.728,1.728,0,0,0-.166.493,12.935,12.935,0,0,0-11.341,3.4,12.988,12.988,0,0,0-3.388-.1l-1.494,6.8-.09-6.555a12.911,12.911,0,1,0,6.9,24.841,1.821,1.821,0,0,0,.776.745,1.842,1.842,0,0,0,2.525-2.374,12.873,12.873,0,0,0,1.656-1.352A12.921,12.921,0,0,0,954,506.853l-6.952-1.17Z" transform="translate(-866.7 -370.284)" fill="#267dff"/>
        <g id="그룹_533" data-name="그룹 533" transform="translate(51.714 120.808)" opacity="0.1">
          <path id="패스_414" data-name="패스 414" d="M943.94,516.714c-2.567-3.388-4.14-7.4-5.951-11.251a47.061,47.061,0,0,0-2.439-4.609l-1.359-1.584c-.228.193-.455.393-.69.6a12.985,12.985,0,0,0-3.388-.1l-1.494,6.8-.09-6.555a12.911,12.911,0,1,0,6.9,24.841,1.822,1.822,0,0,0,.776.745,1.842,1.842,0,0,0,2.526-2.374,12.891,12.891,0,0,0,1.656-1.352,12.935,12.935,0,0,0,7.742-1.146A18.186,18.186,0,0,1,943.94,516.714Z" transform="translate(-918.381 -499.27)" fill="#267dff"/>
        </g>
        <path id="패스_415" data-name="패스 415" d="M800.31,458.272a1.842,1.842,0,0,0-1.649-2.674,12.894,12.894,0,0,0-4.037-7.187,12.945,12.945,0,0,0,.38-4.037l-6.78-1.156,6.583-.414a13.116,13.116,0,0,0-.486-1.822,1.884,1.884,0,0,0,.607-.69,1.846,1.846,0,0,0-2.274-2.567,12.911,12.911,0,0,0-23.044,10.668,1.811,1.811,0,0,0-.918.863,1.842,1.842,0,0,0,2.329,2.543,12.95,12.95,0,0,0,2.446,2.984,12.9,12.9,0,0,0,.6,8.2l9.091-2.36-8.108,4.264a12.911,12.911,0,0,0,23.775-5.61A1.839,1.839,0,0,0,800.31,458.272Z" transform="translate(-768.494 -334.58)" fill="#6c63ff"/>
        <path id="패스_416" data-name="패스 416" d="M808.984,487.679a1.842,1.842,0,0,0-1.649-2.674,12.893,12.893,0,0,0-4.037-7.187c.055-.217.1-.431.145-.649a4.543,4.543,0,0,0-.666.59c-1.225,1.342-1.853,3.147-3.064,4.5a8.825,8.825,0,0,1-5.7,2.66,21.714,21.714,0,0,1-6.393-.514,18.445,18.445,0,0,0-5.286-.576,2.956,2.956,0,0,0-.5.066c.1.1.207.2.314.3a12.9,12.9,0,0,0,.6,8.2l9.091-2.363-8.108,4.264a12.911,12.911,0,0,0,23.775-5.61,1.839,1.839,0,0,0,1.483-1Z" transform="translate(-777.168 -363.987)" opacity="0.1"/>
      </g>
      <g id="그룹_537" data-name="그룹 537" transform="translate(0 110.195)" opacity="0.1">
        <path id="패스_417" data-name="패스 417" d="M176.813,538.218c.442-1.342,2.232-1.96,4-1.38a4.41,4.41,0,0,1,.735.317c.114-.031.231-.059.345-.079a3.885,3.885,0,0,1-.11-1.18,4.3,4.3,0,0,1-1.887-3.733,4.288,4.288,0,0,1-1.887-3.73,4.141,4.141,0,0,1-1.428-1.622c-.849-1.684-.5-3.578.79-4.233s3.026.19,3.878,1.873a4.14,4.14,0,0,1,.455,2.115,4.268,4.268,0,0,1,1.887,3.73,4.278,4.278,0,0,1,1.887,3.733,4.268,4.268,0,0,1,1.887,3.73,4.141,4.141,0,0,1,1.432,1.622,4.37,4.37,0,0,1,.345,1,3.677,3.677,0,0,1,.769-.825,4.343,4.343,0,0,1,.179-.783c.583-1.766,2.139-2.843,3.481-2.415s1.956,2.232,1.38,4a4.027,4.027,0,0,1-1.315,1.929,4.371,4.371,0,0,1-.179.78,3.83,3.83,0,0,1-1.763,2.215,4.432,4.432,0,0,1,.145.69,4.337,4.337,0,0,1,.873,1.183,4.252,4.252,0,0,1,.435,1.408,4.332,4.332,0,0,1,.876,1.183,4.4,4.4,0,0,0,1.311,2.594c.852,1.684.5,3.581-.787,4.23s-3.026-.186-3.878-1.873a4.305,4.305,0,0,1-.435-1.408,604865.977,604865.977,0,0,0-2.622-5.182,4.347,4.347,0,0,1-.876-1.183,4.392,4.392,0,0,1-.435-1.408,4.337,4.337,0,0,1-.873-1.183,4.251,4.251,0,0,1-.435-1.408,4.013,4.013,0,0,1-.59-.69,4.106,4.106,0,0,1-2.132-.131,4.587,4.587,0,0,1-.738-.321,4.006,4.006,0,0,1-2.329-.083C177.455,541.116,176.375,539.56,176.813,538.218Z" transform="translate(-145.938 -472.026)" fill="#3f3d56"/>
        <g id="그룹_535" data-name="그룹 535" transform="translate(30.794 55.02)" opacity="0.1">
          <path id="패스_418" data-name="패스 418" d="M187.17,553a3.7,3.7,0,0,0,.6.48,3.9,3.9,0,0,0,.193,1.463,4.112,4.112,0,0,1-.366-.6A4.3,4.3,0,0,1,187.17,553Z" transform="translate(-183.973 -547.117)"/>
          <path id="패스_419" data-name="패스 419" d="M181.7,542.2a3.872,3.872,0,0,0,.6.476,3.929,3.929,0,0,0,.193,1.466A4.382,4.382,0,0,1,181.7,542.2Z" transform="translate(-180.39 -540.044)"/>
          <path id="패스_420" data-name="패스 420" d="M194.078,536.716a3.833,3.833,0,0,0-.028-.766,4.368,4.368,0,0,1,.831,1.142,4.486,4.486,0,0,1,.262.649,3.939,3.939,0,0,0-1.066-1.025Z" transform="translate(-188.479 -535.95)"/>
          <path id="패스_421" data-name="패스 421" d="M227.572,601.207a4.02,4.02,0,0,0-.511-.587,4.28,4.28,0,0,0-.152-.69,4.561,4.561,0,0,1,.4.642A4.481,4.481,0,0,1,227.572,601.207Z" transform="translate(-210.002 -577.856)"/>
          <path id="패스_422" data-name="패스 422" d="M223.756,593.7a4.011,4.011,0,0,0-.511-.587,4.051,4.051,0,0,0-.145-.69h0a4.371,4.371,0,0,1,.649,1.27Z" transform="translate(-207.506 -572.937)"/>
          <path id="패스_423" data-name="패스 423" d="M182.991,563.748a3.491,3.491,0,0,0,.6.473,3.76,3.76,0,0,0,.11,1.18,3.424,3.424,0,0,0-.345.079,4.563,4.563,0,0,0-.738-.318c-1.766-.58-3.557.038-4,1.38a2.008,2.008,0,0,0-.059,1.035,2.391,2.391,0,0,1-.573-2.281c.442-1.342,2.232-1.96,4-1.38a4.4,4.4,0,0,1,.735.317c.114-.031.231-.059.345-.079A3.566,3.566,0,0,1,182.991,563.748Z" transform="translate(-177.902 -554.125)"/>
          <path id="패스_424" data-name="패스 424" d="M230.71,607.4a4.42,4.42,0,0,1,.4.645,4.486,4.486,0,0,1,.266.649,4.052,4.052,0,0,0-.511-.59A4.279,4.279,0,0,0,230.71,607.4Z" transform="translate(-212.49 -582.748)"/>
          <path id="패스_425" data-name="패스 425" d="M199.548,547.546a3.824,3.824,0,0,0-.028-.766,4.31,4.31,0,0,1,.832,1.142,4.447,4.447,0,0,1,.262.645A3.926,3.926,0,0,0,199.548,547.546Z" transform="translate(-192.062 -543.043)"/>
          <path id="패스_426" data-name="패스 426" d="M206.6,592.072a4.121,4.121,0,0,0,.169.759,4.358,4.358,0,0,1-.649-1.3,4.042,4.042,0,0,0,.48.542Z" transform="translate(-196.384 -572.354)"/>
          <path id="패스_427" data-name="패스 427" d="M214.2,607.118a4.375,4.375,0,0,0,.173.759,4.116,4.116,0,0,1-.366-.6,4.441,4.441,0,0,1-.283-.69A4.5,4.5,0,0,0,214.2,607.118Z" transform="translate(-201.362 -582.218)"/>
          <path id="패스_428" data-name="패스 428" d="M210.4,599.608a4.119,4.119,0,0,0,.169.759,4.443,4.443,0,0,1-.366-.6,4.343,4.343,0,0,1-.283-.69,4.049,4.049,0,0,0,.48.528Z" transform="translate(-198.873 -577.299)"/>
          <path id="패스_429" data-name="패스 429" d="M202.832,584.585a4.094,4.094,0,0,0,.169.763,4.3,4.3,0,0,1-.345-.6,4.217,4.217,0,0,1-.286-.69A3.844,3.844,0,0,0,202.832,584.585Z" transform="translate(-193.928 -567.461)"/>
          <path id="패스_430" data-name="패스 430" d="M219.116,564.041c-1.342-.442-2.9.635-3.478,2.415a4.34,4.34,0,0,0-.179.783,3.667,3.667,0,0,0-.773.821,4.424,4.424,0,0,0-.362-1c-.059-.117-.124-.231-.193-.345a3.669,3.669,0,0,1,.69-.725,4.342,4.342,0,0,1,.179-.783c.583-1.766,2.139-2.843,3.481-2.415a2.391,2.391,0,0,1,1.5,1.815A2.045,2.045,0,0,0,219.116,564.041Z" transform="translate(-201.631 -553.47)"/>
          <path id="패스_431" data-name="패스 431" d="M210.488,569.166a3.833,3.833,0,0,0-.028-.766,4.309,4.309,0,0,1,.831,1.142,4.484,4.484,0,0,1,.262.649,3.892,3.892,0,0,0-1.066-1.025Z" transform="translate(-199.227 -557.204)"/>
          <path id="패스_432" data-name="패스 432" d="M205.018,558.346a3.841,3.841,0,0,0-.028-.766,4.427,4.427,0,0,1,.831,1.142,4.484,4.484,0,0,1,.262.649,3.939,3.939,0,0,0-1.066-1.025Z" transform="translate(-195.644 -550.117)"/>
          <path id="패스_433" data-name="패스 433" d="M218,614.628a4.1,4.1,0,0,0,.173.762,4.348,4.348,0,0,1-.366-.6,4.444,4.444,0,0,1-.283-.69A4.484,4.484,0,0,0,218,614.628Z" transform="translate(-203.851 -587.137)"/>
        </g>
        <path id="패스_434" data-name="패스 434" d="M167.076,506.812a4.113,4.113,0,0,1-1.428-1.618c-.852-1.687-.5-3.581.787-4.233s3.026.186,3.878,1.873a4.116,4.116,0,0,1,.455,2.112,4.278,4.278,0,0,1,1.887,3.733,4.14,4.14,0,0,1,1.432,1.618,4.568,4.568,0,0,1,.262.642,3.647,3.647,0,0,0-1.873-1.38,2.125,2.125,0,0,1-2.7,1.38,3.63,3.63,0,0,0,0,2.329,4.553,4.553,0,0,1-.345-.59,4.141,4.141,0,0,1-.459-2.112,4.289,4.289,0,0,1-1.887-3.733Z" transform="translate(-138.777 -457.867)" fill="#3f3d56"/>
        <path id="패스_435" data-name="패스 435" d="M96.854,403.685a12.7,12.7,0,0,1-1.515-.838l5.617-4.106-6.6,3.4a12.538,12.538,0,0,1-4.689-8.743l11.227.117L89.64,391.63a12.521,12.521,0,1,1,24.776,3.174,12.671,12.671,0,0,1,2.3,1.38l-5.865,8.156,7.042-7.135a12.531,12.531,0,0,1,3.505,11.4,12.521,12.521,0,1,1-17.561,8.881,12.517,12.517,0,0,1-6.987-13.8Z" transform="translate(-89.298 -378.664)" fill="#267dff"/>
        <path id="패스_436" data-name="패스 436" d="M146.787,439.656a12.462,12.462,0,0,1,1.1,8.118,12.521,12.521,0,1,1-17.561,8.881C127.87,455.513,146.156,438.4,146.787,439.656Z" transform="translate(-115.787 -417.816)" fill="#267dff" opacity="0.1"/>
        <circle id="타원_114" data-name="타원 114" cx="1.86" cy="1.86" r="1.86" transform="translate(15.036)" fill="#6c63ff"/>
        <circle id="타원_115" data-name="타원 115" cx="1.86" cy="1.86" r="1.86" transform="translate(4.182 1.194)" fill="#6c63ff"/>
        <circle id="타원_116" data-name="타원 116" cx="1.86" cy="1.86" r="1.86" transform="translate(0 17.889)" fill="#6c63ff"/>
        <circle id="타원_117" data-name="타원 117" cx="1.86" cy="1.86" r="1.86" transform="translate(5.648 26.228)" fill="#6c63ff"/>
        <circle id="타원_118" data-name="타원 118" cx="1.86" cy="1.86" r="1.86" transform="translate(13.363 43.545)" fill="#6c63ff"/>
        <circle id="타원_119" data-name="타원 119" cx="1.86" cy="1.86" r="1.86" transform="translate(13.363 43.545)" opacity="0.1"/>
        <circle id="타원_120" data-name="타원 120" cx="1.86" cy="1.86" r="1.86" transform="translate(30.52 23.93)" fill="#6c63ff"/>
        <circle id="타원_121" data-name="타원 121" cx="1.86" cy="1.86" r="1.86" transform="translate(30.52 23.93)" opacity="0.1"/>
        <path id="패스_437" data-name="패스 437" d="M181.1,532.173c1.235-.624,1.608-2.391.887-4.023.038.069.076.135.11.2.852,1.687.5,3.581-.79,4.233s-3.022-.186-3.875-1.873c-.035-.069-.069-.138-.1-.211C178.217,532.052,179.862,532.8,181.1,532.173Z" transform="translate(-146.734 -475.821)" opacity="0.1"/>
        <path id="패스_438" data-name="패스 438" d="M186.414,542.693c1.235-.624,1.611-2.394.89-4.023.038.066.076.135.11.2.852,1.687.5,3.581-.79,4.233s-3.022-.186-3.875-1.873c-.038-.069-.069-.141-.1-.21C183.537,542.579,185.186,543.317,186.414,542.693Z" transform="translate(-150.218 -482.712)" opacity="0.1"/>
        <path id="패스_439" data-name="패스 439" d="M191.734,553.2c1.235-.624,1.611-2.391.887-4.023.041.069.076.135.114.207.852,1.684.5,3.581-.79,4.23s-3.022-.186-3.875-1.873c-.038-.069-.069-.138-.1-.211C188.853,553.082,190.5,553.827,191.734,553.2Z" transform="translate(-153.703 -489.595)" opacity="0.1"/>
        <path id="패스_440" data-name="패스 440" d="M197.054,563.723c1.235-.624,1.611-2.391.887-4.023.038.066.076.135.11.2.856,1.687.5,3.581-.787,4.233s-3.026-.186-3.878-1.873c-.035-.069-.066-.141-.1-.211C194.173,563.6,195.819,564.347,197.054,563.723Z" transform="translate(-157.187 -496.486)" opacity="0.1"/>
        <path id="패스_441" data-name="패스 441" d="M202.368,574.239c1.235-.624,1.608-2.391.887-4.019.038.066.076.135.11.2.852,1.687.5,3.581-.787,4.233s-3.026-.19-3.878-1.873c-.035-.073-.066-.142-.1-.211C199.487,574.119,201.132,574.864,202.368,574.239Z" transform="translate(-160.665 -503.376)" opacity="0.1"/>
        <path id="패스_442" data-name="패스 442" d="M207.688,584.753c1.235-.625,1.608-2.391.887-4.023.038.069.076.135.11.2.852,1.687.5,3.581-.787,4.233s-3.026-.186-3.878-1.873c-.035-.069-.069-.138-.1-.21C204.807,584.618,206.452,585.378,207.688,584.753Z" transform="translate(-164.15 -510.26)" opacity="0.1"/>
        <path id="패스_443" data-name="패스 443" d="M213.008,595.273c1.232-.625,1.608-2.394.887-4.023.038.065.076.135.11.2.852,1.687.5,3.581-.79,4.233s-3.022-.19-3.875-1.873c-.035-.072-.069-.141-.1-.21C210.127,595.149,211.772,595.9,213.008,595.273Z" transform="translate(-167.634 -517.151)" opacity="0.1"/>
        <path id="패스_444" data-name="패스 444" d="M218.324,605.783c1.235-.624,1.611-2.391.887-4.023.041.069.076.135.114.207.852,1.684.5,3.581-.79,4.23s-3.022-.186-3.875-1.873c-.038-.069-.069-.138-.1-.21C215.447,605.662,217.089,606.407,218.324,605.783Z" transform="translate(-171.119 -524.034)" opacity="0.1"/>
        <path id="패스_445" data-name="패스 445" d="M221.848,612.693c1.235-.624,1.608-2.391.887-4.023.038.069.076.135.11.207.852,1.684.5,3.581-.787,4.23s-3.026-.186-3.878-1.873c-.035-.069-.069-.138-.1-.21C218.956,612.579,220.6,613.318,221.848,612.693Z" transform="translate(-173.424 -528.56)" opacity="0.1"/>
        <path id="패스_446" data-name="패스 446" d="M130.449,555.885a6.406,6.406,0,0,1-.345-1.7.928.928,0,1,1,.141-1.846,6.493,6.493,0,0,1,3.412-4.4.93.93,0,1,1,1.66-.838.843.843,0,0,1,.083.248,6.528,6.528,0,0,1,5.713,1.725,6.445,6.445,0,0,1,1.725-.048l.752,3.423.017-3.3a6.5,6.5,0,1,1-3.478,12.521.953.953,0,0,1-.39.376.932.932,0,0,1-1.277-1.2,6.5,6.5,0,0,1-.831-.69,6.51,6.51,0,0,1-6.831-3.45l3.5-.59Z" transform="translate(-115.196 -487.899)" fill="#267dff"/>
        <g id="그룹_536" data-name="그룹 536" transform="translate(18.534 60.861)" opacity="0.1">
          <path id="패스_447" data-name="패스 447" d="M144.5,561.668a31.308,31.308,0,0,0,3-5.665,23.023,23.023,0,0,1,1.228-2.325l.69-.8c.117.1.231.2.345.3a6.445,6.445,0,0,1,1.725-.048l.752,3.423.01-3.292a6.5,6.5,0,1,1-3.478,12.521.952.952,0,0,1-.39.376.932.932,0,0,1-1.277-1.2,6.5,6.5,0,0,1-.831-.69,6.556,6.556,0,0,1-3.9-.576,9.171,9.171,0,0,0,2.129-2.032Z" transform="translate(-142.37 -552.88)" fill="#267dff"/>
        </g>
        <path id="패스_448" data-name="패스 448" d="M214.72,532.24a.925.925,0,0,1,.411-1.245.912.912,0,0,1,.421-.1,6.5,6.5,0,0,1,2.032-3.623,6.455,6.455,0,0,1-.19-2.032l3.412-.573-3.316-.21a6.435,6.435,0,0,1,.248-.918.911.911,0,0,1-.307-.345.932.932,0,0,1,1.145-1.294,6.427,6.427,0,0,1,2.37-2.046,6.5,6.5,0,0,1,9.236,7.418.928.928,0,0,1-.711,1.715,6.467,6.467,0,0,1-1.232,1.5,6.521,6.521,0,0,1-.3,4.14l-4.565-1.2,4.082,2.15a6.507,6.507,0,0,1-11.327-.531,6.593,6.593,0,0,1-.669-2.294.921.921,0,0,1-.742-.507Z" transform="translate(-171.158 -469.927)" fill="#6c63ff"/>
        <path id="패스_449" data-name="패스 449" d="M214.72,547.043a.925.925,0,0,1,.411-1.246.911.911,0,0,1,.421-.1,6.5,6.5,0,0,1,2.032-3.623c-.028-.107-.052-.217-.072-.324a2.506,2.506,0,0,1,.345.3c.618.69.935,1.584,1.542,2.267a4.454,4.454,0,0,0,2.874,1.342,10.878,10.878,0,0,0,3.219-.259,9.436,9.436,0,0,1,2.664-.293l.255.034-.159.148a6.521,6.521,0,0,1-.3,4.14l-4.575-1.2,4.082,2.149a6.507,6.507,0,0,1-11.327-.531,6.593,6.593,0,0,1-.669-2.294.921.921,0,0,1-.742-.507Z" transform="translate(-171.158 -484.729)" opacity="0.1"/>
      </g>
      <path id="패스_450" data-name="패스 450" d="M395.269,91.348a6.98,6.98,0,0,0-4.051.442,5.976,5.976,0,0,1-4.865,0,6.818,6.818,0,0,0-5.72.114,3.547,3.547,0,0,1-1.646.411c-2.319,0-4.247-2.336-4.647-5.417a4.509,4.509,0,0,0,1.159-1.249,6.518,6.518,0,0,1,11.634-.041,4.485,4.485,0,0,0,3.85,2.118h.062C392.874,87.715,394.472,89.2,395.269,91.348Z" transform="translate(-275.772 -73.438)" fill="#6c63ff" opacity="0.1"/>
      <path id="패스_451" data-name="패스 451" d="M402.288,65.339l-3.747,2.377,2.274-4.14a3.705,3.705,0,0,0-2.267-.807h-.059a4.448,4.448,0,0,1-.776-.059l-1.273.807.545-.99a4.551,4.551,0,0,1-2.222-1.673l-2.281,1.425,1.435-2.612a6.651,6.651,0,0,0-5.092-2.577,6.968,6.968,0,0,0-5.831,3.6,4.354,4.354,0,0,1-3.854,2.07h-.114c-2.608,0-4.727,2.957-4.727,6.611s2.118,6.607,4.727,6.607a3.547,3.547,0,0,0,1.646-.411,6.8,6.8,0,0,1,5.72-.11,5.993,5.993,0,0,0,4.865,0,6.814,6.814,0,0,1,5.669.11,3.571,3.571,0,0,0,1.629.4c2.612,0,4.727-2.957,4.727-6.607a8.4,8.4,0,0,0-.994-4.019Z" transform="translate(-275.746 -57.09)" fill="#267dff" opacity="0.1"/>
      <path id="패스_452" data-name="패스 452" d="M152.239,222.284a10.006,10.006,0,0,0-5.786.628,8.525,8.525,0,0,1-6.949-.017,9.736,9.736,0,0,0-8.17.162,5.089,5.089,0,0,1-2.353.587c-3.312,0-6.069-3.336-6.642-7.739A6.352,6.352,0,0,0,124,214.121c1.942-3.129,4.951-5.141,8.329-5.141s6.348,1.987,8.28,5.082a6.39,6.39,0,0,0,5.52,3.026h.086C148.827,217.084,151.111,219.2,152.239,222.284Z" transform="translate(-110.716 -156.575)" fill="#6c63ff" opacity="0.1"/>
      <path id="패스_453" data-name="패스 453" d="M162.248,185.122l-5.355,3.395,3.25-5.91a5.292,5.292,0,0,0-3.24-1.156h-.086a6.265,6.265,0,0,1-1.111-.083l-1.808,1.17.78-1.415a6.452,6.452,0,0,1-3.174-2.415l-3.25,2.07,2.046-3.761a9.508,9.508,0,0,0-7.276-3.678c-3.378,0-6.386,2.008-8.329,5.137a6.228,6.228,0,0,1-5.52,2.971h-.183c-3.73,0-6.752,4.226-6.752,9.443s3.022,9.443,6.752,9.443a5.041,5.041,0,0,0,2.353-.59,9.736,9.736,0,0,1,8.17-.159,8.525,8.525,0,0,0,6.949.017,9.747,9.747,0,0,1,8.1.155,5.055,5.055,0,0,0,2.325.576c3.73,0,6.752-4.23,6.752-9.443a11.993,11.993,0,0,0-1.394-5.769Z" transform="translate(-110.651 -133.232)" fill="#267dff" opacity="0.1"/>
      <path id="패스_454" data-name="패스 454" d="M836.62,130.315a6.983,6.983,0,0,1,4.051.442,5.965,5.965,0,0,0,4.861,0,6.818,6.818,0,0,1,5.72.114,3.557,3.557,0,0,0,1.646.411c2.318,0,4.251-2.336,4.651-5.417a4.461,4.461,0,0,1-1.159-1.249,6.516,6.516,0,0,0-11.641-.059,4.485,4.485,0,0,1-3.857,2.129h-.059C839,126.682,837.4,128.163,836.62,130.315Z" transform="translate(-578.557 -98.95)" fill="#6c63ff" opacity="0.1"/>
      <path id="패스_455" data-name="패스 455" d="M814.292,104.372l3.747,2.37-2.277-4.14a3.712,3.712,0,0,1,2.267-.807h.062a4.483,4.483,0,0,0,.776-.059l1.27.807-.545-.99a4.558,4.558,0,0,0,2.243-1.666l2.274,1.442-1.439-2.612a6.631,6.631,0,0,1,5.1-2.577,6.968,6.968,0,0,1,5.831,3.6,4.351,4.351,0,0,0,3.854,2.07h.124c2.612,0,4.727,2.957,4.727,6.611s-2.115,6.607-4.727,6.607a3.568,3.568,0,0,1-1.646-.411,6.8,6.8,0,0,0-5.72-.11,5.986,5.986,0,0,1-4.861,0,6.821,6.821,0,0,0-5.672.11,3.56,3.56,0,0,1-1.628.4c-2.608,0-4.727-2.957-4.727-6.607a8.4,8.4,0,0,1,.973-4.037Z" transform="translate(-563.295 -82.667)" fill="#267dff" opacity="0.1"/>
      <ellipse id="타원_122" data-name="타원 122" cx="39.677" cy="6.9" rx="39.677" ry="6.9" transform="translate(172.726 254.237)" fill="#6c63ff" opacity="0.1"/>
      <path id="패스_456" data-name="패스 456" d="M438.729,608.008l-61.479-.79.183-1.577L380.4,579.63H434.4l3.971,26.011.3,1.974Z" transform="translate(-247.092 -379.647)" fill="#d0d2d5"/>
      <path id="패스_457" data-name="패스 457" d="M438.67,656.994H407.991l-30.741-.4.183-1.577h60.934Z" transform="translate(-247.092 -429.027)" opacity="0.1"/>
      <rect id="사각형_390" data-name="사각형 390" width="81.579" height="1.97" transform="translate(119.911 226.39)" fill="#d0d2d5"/>
      <path id="패스_458" data-name="패스 458" d="M446.354,174.148A5.13,5.13,0,0,0,441.248,169H213.426a5.13,5.13,0,0,0-5.106,5.155V312.248H446.354Z" transform="translate(-167.032 -130.389)" fill="#3f3d56"/>
      <path id="패스_459" data-name="패스 459" d="M208.32,580.19v16.174a5.106,5.106,0,0,0,5.106,5.106H441.248a5.106,5.106,0,0,0,5.106-5.106V580.19Z" transform="translate(-167.032 -399.711)" fill="#d0d2d5"/>
      <rect id="사각형_391" data-name="사각형 391" width="219.511" height="124.141" transform="translate(51.142 47.271)" fill="#fff"/>
      <path id="패스_460" data-name="패스 460" d="M546.624,603.87a5.313,5.313,0,0,0,4.185-2.032h0a5.557,5.557,0,0,0,.414-.607l-2.922-.493,3.157.021a5.32,5.32,0,0,0,.1-4.213l-4.233,2.194,3.906-2.871a5.32,5.32,0,1,0-8.788,5.955h0A5.313,5.313,0,0,0,546.624,603.87Z" transform="translate(-385.135 -408.248)" fill="#267dff"/>
      <path id="패스_461" data-name="패스 461" d="M483.48,584.77,508.007,609.4l-3.764-24.634Z" transform="translate(-316.671 -383.014)" opacity="0.1"/>
      <rect id="사각형_392" data-name="사각형 392" width="219.749" height="7.252" transform="translate(50.969 47.285)" fill="#444053" opacity="0.1"/>
      <rect id="사각형_393" data-name="사각형 393" width="66.209" height="4.413" rx="0.58" transform="translate(127.267 48.547)" fill="#267dff" opacity="0.3"/>
      <path id="패스_462" data-name="패스 462" d="M638.939,201.335h-.162l-.059-.052a1.342,1.342,0,0,0,.311-.859,1.3,1.3,0,1,0-1.3,1.315,1.346,1.346,0,0,0,.859-.314l.059.052v.162l1.011,1.011.3-.3Zm-1.211,0a.9.9,0,1,1,.644-.266.911.911,0,0,1-.644.266Z" transform="translate(-447.43 -150.124)" fill="#3f3d56"/>
      <circle id="타원_123" data-name="타원 123" cx="1.328" cy="1.328" r="1.328" transform="translate(53.592 49.583)" fill="#fa5959" opacity="0.8"/>
      <circle id="타원_124" data-name="타원 124" cx="1.328" cy="1.328" r="1.328" transform="translate(57.245 49.583)" fill="#fed253" opacity="0.8"/>
      <circle id="타원_125" data-name="타원 125" cx="1.328" cy="1.328" r="1.328" transform="translate(60.903 49.583)" fill="#8ccf4d" opacity="0.8"/>
      <path id="패스_463" data-name="패스 463" d="M542.249,336.1a14.729,14.729,0,0,0-24.469,0,13.208,13.208,0,0,0,24.469,0Z" transform="translate(-369.723 -235.56)" fill="#267dff"/>
      <path id="패스_464" data-name="패스 464" d="M495.557,346.22a3.161,3.161,0,0,1-.607-.345,2.435,2.435,0,0,1-.669-.866,2.477,2.477,0,1,0-4.044.6,2.759,2.759,0,0,0,.587.473,1.705,1.705,0,0,1,.659.69,4.982,4.982,0,0,0,1.145,1.5,10.01,10.01,0,0,0,1.57,1.1,22.878,22.878,0,0,0-1.29,6.749,9.333,9.333,0,0,0-2.629.424,4.239,4.239,0,0,0-1.218.607,2.921,2.921,0,0,0-.3-.021,2.481,2.481,0,1,0,2.322,3.354,1.584,1.584,0,0,1,1.28-1.035,5.788,5.788,0,0,1,.638-.041,22.22,22.22,0,0,0,2.95,9.2,7.238,7.238,0,0,0-2.743,3.747,1.035,1.035,0,0,0-.2.141,2.352,2.352,0,0,0-.29.269,2.477,2.477,0,1,0,4.157.811,1.625,1.625,0,0,1,.4-1.753,6.955,6.955,0,0,1,.587-.5c2.8,3.267,6.127,5.362,10.285,5.61V354.773A15.3,15.3,0,0,1,495.557,346.22ZM530,357.164a2.726,2.726,0,0,0-.3.021,4.678,4.678,0,0,0-1.218-.607,9.268,9.268,0,0,0-2.629-.424,23.38,23.38,0,0,0-1.29-6.745,10.01,10.01,0,0,0,1.57-1.1,5.374,5.374,0,0,0,1.187-1.577,1.456,1.456,0,0,1,.611-.6h0a2.477,2.477,0,1,0-3.45-1.094,2.352,2.352,0,0,1-.669.866,6.509,6.509,0,0,1-.607.445,15.2,15.2,0,0,1-12.586,8.449v22.188c4.14-.248,7.49-2.353,10.285-5.61.217.173.4.328.555.473a1.677,1.677,0,0,1,.435,1.8,2.477,2.477,0,1,0,4.168-.8,2.363,2.363,0,0,0-.29-.269c-.114-.09-.2-.141-.2-.141a7.138,7.138,0,0,0-2.76-3.747,22.22,22.22,0,0,0,2.95-9.2,5.491,5.491,0,0,1,.611.041,1.656,1.656,0,0,1,1.328,1.035,2.477,2.477,0,0,0,4.779-.752A2.515,2.515,0,0,0,530,357.164Z" transform="translate(-349.09 -243.339)" fill="#267dff"/>
      <path id="패스_465" data-name="패스 465" d="M658.714,601.19a3.3,3.3,0,0,0-.749-.831,9.945,9.945,0,0,1-2.581-5.565,56.767,56.767,0,0,0-1.076-6.145,20.254,20.254,0,0,0-1.214-2.991,8.761,8.761,0,0,0-1.411-2.7.931.931,0,0,0-.435-.21A5.123,5.123,0,0,0,650,581.083a12.681,12.681,0,0,1-2.85-2.76,6.209,6.209,0,0,0-.666-1.135c-.445-.49-1.149-.69-1.559-1.208a3.469,3.469,0,0,1-.345-2.481c.069-.852,0-1.873-.738-2.322-.442-.273-1.011-.245-1.47-.486a2.127,2.127,0,0,1-.949-1.991c.014-.776.255-1.532.317-2.308.193-2.47-1.435-4.927-.807-7.321a14.881,14.881,0,0,1,1.187-2.539,5.3,5.3,0,0,0,.345-.876,12.328,12.328,0,0,0,3.36.811c-1.9-4.264-1.418-9.219-2.3-13.8l.114-.155a7.19,7.19,0,0,0,1.456-4.092c0-1.7-.8-3.3-1.156-4.968-.307-1.418-.293-2.9-.69-4.3a12.986,12.986,0,0,0-1.09-2.491q-.645-1.2-1.356-2.356-.663-2.194-1.328-4.389A21.211,21.211,0,0,0,637,514c-.442-.649-.576-1.967-1.256-2.36a3.039,3.039,0,0,0-1.794-.314,3.354,3.354,0,0,1-1.922-2.377,2.306,2.306,0,0,1,.069-.69h.117c1.518-.138,2.287-1.477,3.078-2.65,1.277-1.9.79-4.465,0-6.624a4.486,4.486,0,0,0-1.035-1.825c-1.107-1.035-2.86-.807-4.288-1.308-.48-.166-.928-.417-1.418-.535a4.243,4.243,0,0,0-2.812.528,27.968,27.968,0,0,1-2.591,1.349c-.911.345-2.036.618-2.26,1.553a1.724,1.724,0,0,0,.076.942,3.513,3.513,0,0,0,1.066,1.539,6.145,6.145,0,0,0,3.75,8.563q.393.631.732,1.287a4.245,4.245,0,0,1,.6,2.512,7.758,7.758,0,0,0-.69.845,16.261,16.261,0,0,0-2.07,4.613,48.874,48.874,0,0,0-1.666,6.3,47.354,47.354,0,0,0-2.481,5.382,12.15,12.15,0,0,1-3.236-.435l-2.912-.659a6.582,6.582,0,0,1-2.864-1.149c-.421-.345-.749-.8-1.177-1.145s-1.287-.742-1.756-.459a1.385,1.385,0,0,0-.238.183c-.428-.866-.835-1.725-1.332-2.564a4.863,4.863,0,0,0-3.122-2.47,3.178,3.178,0,0,0-2.343.545,1.888,1.888,0,0,0-.69,2.512,4.584,4.584,0,0,0,.48.49,10.081,10.081,0,0,1,1.066,1.48,7.559,7.559,0,0,0,4.654,3.022l-.121.345a5.316,5.316,0,0,0-.635,2.329l12.952,4.433a7.977,7.977,0,0,0,2.608.576,4.209,4.209,0,0,0,1.035-.138v.69c.034,4.551-.69,9.07-.825,13.618a3.532,3.532,0,0,0,.524,2.374,2.658,2.658,0,0,0,2.536.69,5.863,5.863,0,0,0,.642-.145,23.911,23.911,0,0,1,.662,3.488l.856,6.162a9.375,9.375,0,0,1,.135,1.911,13.481,13.481,0,0,1-1.415,4.075,4.823,4.823,0,0,0-.155,4.182c.228.386.542.714.745,1.114a4.536,4.536,0,0,1,.345,1.96q.079,2.788.152,5.582a.631.631,0,0,0-.435.086c-.718.559-.638,3.219-.69,4.044-.055,1.38,0,2.788-.076,4.182a24.92,24.92,0,0,1-.9,5.551,3.55,3.55,0,0,1-.79,1.591,3.359,3.359,0,0,1-1.4.728,16.04,16.04,0,0,1-5.317.724,5.234,5.234,0,0,0-2.163.183,1.49,1.49,0,0,0-.976,1.725,2.176,2.176,0,0,0,1.425,1.073,22.616,22.616,0,0,1,3.8,1.746,10.265,10.265,0,0,0,1.466.832,7.567,7.567,0,0,0,1.511.373l6.117,1.056c1.252.214,2.76.345,3.557-.69a3.135,3.135,0,0,0,.473-2.029,27.1,27.1,0,0,1-.131-4.164,12.819,12.819,0,0,1,.642-2.391q.914-2.715,1.836-5.427a28.528,28.528,0,0,0,1.473-5.551,2.069,2.069,0,0,0-.449-1.908,1.222,1.222,0,0,0-.456-.235c-.021-1.663-.238-3.329-.145-4.992.024-.414.065-.828.1-1.245a6.076,6.076,0,0,1,.852,1.007c.59.925.807,2.146,1.708,2.76.766.524,1.9.5,2.439,1.256a3.539,3.539,0,0,1,.386.935,6.667,6.667,0,0,0,1.38,2.191,11.044,11.044,0,0,0,.852,2.188q.762,1.611,1.518,3.212a37.485,37.485,0,0,0,1.725,3.371,9.5,9.5,0,0,1,1.156,2.229,5.119,5.119,0,0,1-1.563,4.83,13.436,13.436,0,0,1-4.544,2.65,1.28,1.28,0,0,0-.462.276.894.894,0,0,0-.21.6,1.948,1.948,0,0,0,1.408,1.725,5.266,5.266,0,0,0,2.357.086,35,35,0,0,0,12.7-3.754,4.483,4.483,0,0,0,1.515-1.17A1.77,1.77,0,0,0,658.714,601.19Z" transform="translate(-423.756 -344.076)" fill="url(#linear-gradient)"/>
      <path id="패스_466" data-name="패스 466" d="M708.4,571.5q1.1,1.694,2.07,3.471a12.763,12.763,0,0,1,1.094,2.474c.4,1.38.39,2.853.69,4.261.345,1.656,1.152,3.236,1.152,4.934a7.094,7.094,0,0,1-1.456,4.057,19.254,19.254,0,0,1-3.043,3.14,64.732,64.732,0,0,1-4.306-21.119,7.406,7.406,0,0,1,.324-2.967c.224-.587,1.3-2.194,1.994-1.563.252.231.317,1.273.473,1.622A12.459,12.459,0,0,0,708.4,571.5Z" transform="translate(-492.077 -391.754)" fill="#2f2e41"/>
      <path id="패스_467" data-name="패스 467" d="M708.4,571.5q1.1,1.694,2.07,3.471a12.763,12.763,0,0,1,1.094,2.474c.4,1.38.39,2.853.69,4.261.345,1.656,1.152,3.236,1.152,4.934a7.094,7.094,0,0,1-1.456,4.057,19.254,19.254,0,0,1-3.043,3.14,64.732,64.732,0,0,1-4.306-21.119,7.406,7.406,0,0,1,.324-2.967c.224-.587,1.3-2.194,1.994-1.563.252.231.317,1.273.473,1.622A12.459,12.459,0,0,0,708.4,571.5Z" transform="translate(-492.077 -391.754)" opacity="0.1"/>
      <path id="패스_468" data-name="패스 468" d="M387.4,423.232c-2.729,2.726-3.057,3.926-4.7,4.468s-7.535,3.6-5.682,6.98l4.982,3.291.145.1.762,2.291-7.535,13.414s-12.421-5.679-13.639,2.722-.445,10.7-.773,15.181.107,5.783-.987,5.783-1.525-2.947-1.525-2.947-.069-.135-.19-.386c-1.625-3.378-12.655-28.174,5.013-45.218,0,0,8.184-.538,10.154-9.923,1.359-6.486,6.114-5.927,9.274-4.606a10.482,10.482,0,0,1,2.836,1.666,13.97,13.97,0,0,1,2.032,2.415C388.477,419.882,388.967,421.666,387.4,423.232Z" transform="translate(-262.042 -290.559)" fill="#d0d2d5"/>
      <path id="패스_469" data-name="패스 469" d="M389.983,484.479l.762,2.291-7.535,13.414s-12.421-5.679-13.639,2.722-.445,10.7-.773,15.181.107,5.783-.987,5.783-1.525-2.946-1.525-2.946-.069-.135-.19-.386c-.549-4.2-3.329-28.737,6.752-27.432,0,0,8.18,3.823,9.488,2.3,1.035-1.208,5.631-8.153,7.5-11Z" transform="translate(-269.872 -336.971)" opacity="0.1"/>
      <path id="패스_470" data-name="패스 470" d="M423.976,420l-4.982,5.662s-5.786,7.742-6.987,7.414a5.6,5.6,0,0,0-1.094-.128,2.125,2.125,0,0,1-1.38-3.581c1.974-2.07,5.61-6,5.848-6.873a60.251,60.251,0,0,1,3.712-6.573,10.482,10.482,0,0,1,2.836,1.666A13.971,13.971,0,0,1,423.976,420Z" transform="translate(-298.441 -292.117)" opacity="0.1"/>
      <path id="패스_471" data-name="패스 471" d="M569.894,550.184c-.845,1.691-5.175,8.032-7.069,10.8l-.887,1.3s-.345,2.291-6-.549-138.518-58.9-138.518-58.9l-.9-2.7,6.555-9.816L568.7,546.582S570.988,548,569.894,550.184Z" transform="translate(-303.399 -340.848)" fill="#454b69"/>
      <path id="패스_472" data-name="패스 472" d="M562.825,579.621l-.887,1.3s-.345,2.291-6-.549-138.518-58.9-138.518-58.9l-.9-2.7Z" transform="translate(-303.399 -359.482)" opacity="0.1"/>
      <path id="패스_473" data-name="패스 473" d="M598.755,588.813a4.841,4.841,0,0,0-3.9.763,3.206,3.206,0,0,0-1.118,2.125c-.09.956.466,2.091,1.425,2.163a4.538,4.538,0,0,0,.69-.045,10.3,10.3,0,0,1,1.808.152,7.38,7.38,0,0,0,6.29-2.539c.825-1.035-.262-1.484-1.235-1.691C601.388,589.458,600.087,589.026,598.755,588.813Z" transform="translate(-419.47 -405.294)" fill="#fbbebe"/>
      <path id="패스_474" data-name="패스 474" d="M672.665,662.726l.856,6.079a9.269,9.269,0,0,1,.131,1.9,13.392,13.392,0,0,1-1.411,4.04c-.548,1.325-.883,2.912-.155,4.14.224.383.538.711.742,1.108a4.457,4.457,0,0,1,.345,1.942l.235,8.625a54.273,54.273,0,0,0,8-.045.445.445,0,0,0,.29-.09.47.47,0,0,0,.1-.314c.117-2.018-.234-4.04-.121-6.059.042-.738.145-1.473.159-2.215.041-3.005-1.442-5.948-.994-8.919a19.7,19.7,0,0,1,.552-2.218c1.418-5.175,1.118-10.613.8-15.957a.375.375,0,0,0-.069-.242.365.365,0,0,0-.186-.1,9.816,9.816,0,0,0-8.895,1.691c-.376.3-1.325.6-1.573.959-.345.5.107,1.007.307,1.542A19.622,19.622,0,0,1,672.665,662.726Z" transform="translate(-470.305 -448.049)" fill="#3f3d56"/>
      <path id="패스_475" data-name="패스 475" d="M672.665,662.726l.856,6.079a9.269,9.269,0,0,1,.131,1.9,13.392,13.392,0,0,1-1.411,4.04c-.548,1.325-.883,2.912-.155,4.14.224.383.538.711.742,1.108a4.457,4.457,0,0,1,.345,1.942l.235,8.625a54.273,54.273,0,0,0,8-.045.445.445,0,0,0,.29-.09.47.47,0,0,0,.1-.314c.117-2.018-.234-4.04-.121-6.059.042-.738.145-1.473.159-2.215.041-3.005-1.442-5.948-.994-8.919a19.7,19.7,0,0,1,.552-2.218c1.418-5.175,1.118-10.613.8-15.957a.375.375,0,0,0-.069-.242.365.365,0,0,0-.186-.1,9.816,9.816,0,0,0-8.895,1.691c-.376.3-1.325.6-1.573.959-.345.5.107,1.007.307,1.542A19.622,19.622,0,0,1,672.665,662.726Z" transform="translate(-470.305 -448.049)" opacity="0.1"/>
      <path id="패스_476" data-name="패스 476" d="M697.182,656.894A14.954,14.954,0,0,0,696,659.412c-.628,2.377,1,4.83.8,7.266-.062.769-.3,1.518-.317,2.287a2.134,2.134,0,0,0,.949,1.98c.459.235,1.035.211,1.466.48a2.367,2.367,0,0,1,.738,2.3,3.378,3.378,0,0,0,.345,2.46c.411.514,1.115.714,1.556,1.2a5.913,5.913,0,0,1,.666,1.125,12.981,12.981,0,0,0,2.85,2.76c.987.9,1.822,2.229,1.38,3.481a3.839,3.839,0,0,1-2.112,1.915,22.4,22.4,0,0,1-5.027,1.777,1.212,1.212,0,0,1-.576.031,1.23,1.23,0,0,1-.5-.345,9.359,9.359,0,0,1-2.539-3.384,3.475,3.475,0,0,0-.386-.925c-.538-.756-1.673-.728-2.439-1.249-.9-.611-1.114-1.822-1.7-2.736a30.586,30.586,0,0,0-2.07-2.263c-1.056-1.339-1.315-3.126-2.07-4.654-.321-.649-.731-1.256-.987-1.932a10.553,10.553,0,0,1-.473-2.5c-.486-4.03-1.725-8.087-.945-12.076.172-.876.438-1.725.549-2.629.19-1.563-.11-3.164.121-4.723a1.3,1.3,0,0,1,.521-1,1.379,1.379,0,0,1,.593-.121,40.445,40.445,0,0,1,6.134.138,3.8,3.8,0,0,1,2.815,1.156,6.173,6.173,0,0,1,.669,2.574,6.349,6.349,0,0,0,1.335,2.522A2.391,2.391,0,0,1,697.182,656.894Z" transform="translate(-478.824 -444.049)" fill="#3f3d56"/>
      <path id="패스_477" data-name="패스 477" d="M660.125,752.539a2.42,2.42,0,0,1,1.57.311,2.072,2.072,0,0,1,.448,1.894,28.431,28.431,0,0,1-1.477,5.52l-1.836,5.386a12.649,12.649,0,0,0-.642,2.374,26.789,26.789,0,0,0,.131,4.14,3.245,3.245,0,0,1-.476,2.011c-.78,1-2.3.887-3.554.69l-6.11-1.035a7.265,7.265,0,0,1-1.511-.369,10.554,10.554,0,0,1-1.466-.825,22.567,22.567,0,0,0-3.8-1.725c-.573-.214-1.215-.487-1.422-1.063a1.49,1.49,0,0,1,.976-1.725,5.289,5.289,0,0,1,2.163-.186,16.217,16.217,0,0,0,5.313-.718,3.361,3.361,0,0,0,1.4-.725,3.45,3.45,0,0,0,.807-1.625,24.2,24.2,0,0,0,.925-5.52c.072-1.38.024-2.76.079-4.14.035-.818-.045-3.45.673-4.013.549-.421,2.805.742,3.547.911A17.25,17.25,0,0,0,660.125,752.539Z" transform="translate(-449.727 -511.658)" fill="#2f2e41"/>
      <path id="패스_478" data-name="패스 478" d="M730.557,755.236a59.023,59.023,0,0,1,1.076,6.1,9.924,9.924,0,0,0,2.577,5.52,3.4,3.4,0,0,1,.749.828,1.746,1.746,0,0,1-.259,1.8,4.531,4.531,0,0,1-1.515,1.163,35.136,35.136,0,0,1-12.7,3.73,5.352,5.352,0,0,1-2.353-.086,1.941,1.941,0,0,1-1.4-1.725.88.88,0,0,1,.207-.6,1.286,1.286,0,0,1,.466-.273,13.736,13.736,0,0,0,4.54-2.633,5.031,5.031,0,0,0,1.563-4.782,9.459,9.459,0,0,0-1.163-2.211,37.375,37.375,0,0,1-1.725-3.343l-1.518-3.185a8.353,8.353,0,0,1-.969-2.919,14.006,14.006,0,0,0,5.6-.9,8.8,8.8,0,0,0,2.3-1.38c.586-.49,1.121-1.4,1.911-.766.635.511,1.035,1.949,1.408,2.677A19.653,19.653,0,0,1,730.557,755.236Z" transform="translate(-500.03 -510.519)" fill="#2f2e41"/>
      <path id="패스_479" data-name="패스 479" d="M679.047,532.52c.152,1.325,1.435,2.2,2.66,2.722l-7.753,2.474a3.492,3.492,0,0,0-.4-3.105,17.584,17.584,0,0,0-1.38-2.212c-.076-.107-.162-.242-.107-.366a.386.386,0,0,1,.217-.169,19.492,19.492,0,0,1,4.979-1.7c.5-.073,1.456-.273,1.832.238S678.974,531.91,679.047,532.52Z" transform="translate(-470.766 -366.877)" fill="#fbbebe"/>
      <path id="패스_480" data-name="패스 480" d="M679.047,532.52c.152,1.325,1.435,2.2,2.66,2.722l-7.753,2.474a3.492,3.492,0,0,0-.4-3.105,17.584,17.584,0,0,0-1.38-2.212c-.076-.107-.162-.242-.107-.366a.386.386,0,0,1,.217-.169,19.492,19.492,0,0,1,4.979-1.7c.5-.073,1.456-.273,1.832.238S678.974,531.91,679.047,532.52Z" transform="translate(-470.766 -366.877)" opacity="0.1"/>
      <circle id="타원_126" data-name="타원 126" cx="6.079" cy="6.079" r="6.079" transform="translate(197.695 154.558)" fill="#fbbebe"/>
      <path id="패스_481" data-name="패스 481" d="M663.012,586.653a2.685,2.685,0,0,0,2.536.69c2.122-.345,3.857-1.908,5.934-2.47,2.546-.69,5.241.2,7.646,1.283s4.8,2.415,7.425,2.6c-2.377-5.3-1.018-11.675-3.291-17.02a13.641,13.641,0,0,1-1.456-3.982c-.155-1.756.721-3.45.856-5.2a12.645,12.645,0,0,0-.793-4.589l-1.663-5.465a20.926,20.926,0,0,0-2.464-5.865c-.445-.645-.58-1.953-1.256-2.343-1.477-.852-3.716.221-5.317.28a5.551,5.551,0,0,0-4,2.484,15.972,15.972,0,0,0-2.07,4.578,43.519,43.519,0,0,0-1.839,7.325c-.052.373-.1.745-.131,1.121-.345,3.543.159,7.107.186,10.668v.024c.034,4.516-.69,9-.825,13.518A3.607,3.607,0,0,0,663.012,586.653Z" transform="translate(-464.507 -375.988)" fill="#2f2e41"/>
      <path id="패스_482" data-name="패스 482" d="M664.341,577.55a7.785,7.785,0,0,0,3.191-1.911,13.34,13.34,0,0,0,2.118-2.415,17.2,17.2,0,0,0,1.825-3.819,44.636,44.636,0,0,0,2.415-11.134,4.252,4.252,0,0,0-.5-2.967,2.5,2.5,0,0,0-3.019-.731,5,5,0,0,0-1.832,1.97,25.443,25.443,0,0,0-2.57,4.768c-.276.752-.48,1.525-.749,2.281a21.018,21.018,0,0,1-.945,2.184c-.052.373-.1.745-.131,1.121C663.823,570.439,664.313,573.989,664.341,577.55Z" transform="translate(-465.517 -382.78)" opacity="0.1"/>
      <path id="패스_483" data-name="패스 483" d="M642.441,553.36a4.277,4.277,0,0,1,.5,2.964,44.574,44.574,0,0,1-2.415,11.134,17.06,17.06,0,0,1-1.825,3.85,13.484,13.484,0,0,1-2.118,2.415,6.609,6.609,0,0,1-4.192,2.039,7.994,7.994,0,0,1-2.608-.569l-12.955-4.409a5.243,5.243,0,0,1,.635-2.312l.69-2.046a2.6,2.6,0,0,1,.938-1.484c.514-.307,1.328.114,1.756.456s.752.79,1.173,1.139a6.626,6.626,0,0,0,2.864,1.138l2.909.652a12.145,12.145,0,0,0,3.236.431c.811-2.477,2.353-4.658,3.226-7.114.269-.752.473-1.528.752-2.281a25.344,25.344,0,0,1,2.57-4.768,5,5,0,0,1,1.832-1.97A2.5,2.5,0,0,1,642.441,553.36Z" transform="translate(-434.585 -381.503)" fill="#2f2e41"/>
      <path id="패스_484" data-name="패스 484" d="M668.577,507.742a3.067,3.067,0,0,0-.366-1.138.956.956,0,0,0-1.035-.455c-.607.19-.811,1.128-1.446,1.159-.428.021-.735-.414-.869-.821a2.5,2.5,0,0,0-.528-1.159,1.968,1.968,0,0,0-.752-.345c-1.473-.466-2.995-1.325-3.485-2.791a1.67,1.67,0,0,1-.079-.935c.224-.928,1.38-1.208,2.26-1.542s1.725-.907,2.588-1.342a4.252,4.252,0,0,1,2.812-.521,14.668,14.668,0,0,1,1.418.528c1.428.5,3.178.266,4.285,1.3a4.428,4.428,0,0,1,1.035,1.808c.773,2.146,1.263,4.692-.017,6.576-.79,1.163-1.556,2.491-3.074,2.632C669.556,510.84,668.856,509.24,668.577,507.742Z" transform="translate(-462.863 -345.732)" fill="#2f2e41"/>
      <g id="그룹_538" data-name="그룹 538" transform="translate(197.134 154.382)" opacity="0.1">
        <path id="패스_485" data-name="패스 485" d="M665.9,510.191a2.532,2.532,0,0,0-.524-1.159,1.965,1.965,0,0,0-.752-.345c-1.477-.466-2.995-1.325-3.488-2.791a1.7,1.7,0,0,1-.076-.935,1.167,1.167,0,0,1,.183-.411,1.808,1.808,0,0,0-1.19,1.142,1.669,1.669,0,0,0,.079.935c.49,1.466,2.011,2.325,3.485,2.791a1.967,1.967,0,0,1,.752.345,2.522,2.522,0,0,1,.528,1.159c.138.411.442.842.869.821s.635-.41.907-.738A1.1,1.1,0,0,1,665.9,510.191Z" transform="translate(-660.023 -504.55)"/>
        <path id="패스_486" data-name="패스 486" d="M686.483,524.411c-1.773.162-2.474-1.453-2.76-2.939a3.005,3.005,0,0,0-.345-1.139.959.959,0,0,0-1.035-.455,1.836,1.836,0,0,0-.762.69,1.035,1.035,0,0,1,.78.483,3.067,3.067,0,0,1,.366,1.139c.279,1.487.98,3.105,2.76,2.94a2.846,2.846,0,0,0,1.822-.945A2.57,2.57,0,0,1,686.483,524.411Z" transform="translate(-674.143 -514.575)"/>
      </g>
      <ellipse id="타원_127" data-name="타원 127" cx="11.141" cy="2.143" rx="11.141" ry="2.143" transform="translate(269.397 224.113)" fill="#6c63ff"/>
      <ellipse id="타원_128" data-name="타원 128" cx="1.297" cy="1.697" rx="1.297" ry="1.697" transform="translate(279.054 223.647)" fill="#3f3d56"/>
      <ellipse id="타원_129" data-name="타원 129" cx="1.297" cy="1.697" rx="1.297" ry="1.697" transform="translate(279.054 221.57)" fill="#3f3d56"/>
      <ellipse id="타원_130" data-name="타원 130" cx="1.297" cy="1.697" rx="1.297" ry="1.697" transform="translate(279.054 219.497)" fill="#3f3d56"/>
      <ellipse id="타원_131" data-name="타원 131" cx="1.297" cy="1.697" rx="1.297" ry="1.697" transform="translate(279.054 217.42)" fill="#3f3d56"/>
      <ellipse id="타원_132" data-name="타원 132" cx="1.297" cy="1.697" rx="1.297" ry="1.697" transform="translate(279.054 215.343)" fill="#3f3d56"/>
      <ellipse id="타원_133" data-name="타원 133" cx="1.297" cy="1.697" rx="1.297" ry="1.697" transform="translate(279.054 213.269)" fill="#3f3d56"/>
      <ellipse id="타원_134" data-name="타원 134" cx="1.297" cy="1.697" rx="1.297" ry="1.697" transform="translate(279.054 211.192)" fill="#3f3d56"/>
      <path id="패스_487" data-name="패스 487" d="M894.237,613.928a6.267,6.267,0,0,0,.483-.711l-3.409-.559,3.688.024a6.248,6.248,0,0,0,.117-4.923l-4.947,2.567,4.561-3.354a6.21,6.21,0,1,0-10.254,6.956,6.178,6.178,0,0,0-.711,1.132l4.427,2.3-4.72-1.584a6.21,6.21,0,0,0,1,5.824,6.21,6.21,0,1,0,9.767,0,6.211,6.211,0,0,0,0-7.684Z" transform="translate(-609.031 -415.229)" fill="#267dff"/>
      <path id="패스_488" data-name="패스 488" d="M883.12,643.926a6.179,6.179,0,0,0,1.339,3.843,6.21,6.21,0,1,0,9.767,0C895.051,646.711,883.12,643.229,883.12,643.926Z" transform="translate(-609.014 -441.398)" opacity="0.1"/>
      <ellipse id="타원_135" data-name="타원 135" cx="16.04" cy="3.084" rx="16.04" ry="3.084" transform="translate(35.168 264.949)" fill="#6c63ff"/>
      <ellipse id="타원_136" data-name="타원 136" cx="1.867" cy="2.446" rx="1.867" ry="2.446" transform="translate(49.072 264.277)" fill="#3f3d56"/>
      <ellipse id="타원_137" data-name="타원 137" cx="1.867" cy="2.446" rx="1.867" ry="2.446" transform="translate(49.072 261.289)" fill="#3f3d56"/>
      <ellipse id="타원_138" data-name="타원 138" cx="1.867" cy="2.446" rx="1.867" ry="2.446" transform="translate(49.072 258.301)" fill="#3f3d56"/>
      <ellipse id="타원_139" data-name="타원 139" cx="1.867" cy="2.446" rx="1.867" ry="2.446" transform="translate(49.072 255.313)" fill="#3f3d56"/>
      <ellipse id="타원_140" data-name="타원 140" cx="1.867" cy="2.446" rx="1.867" ry="2.446" transform="translate(49.072 252.325)" fill="#3f3d56"/>
      <ellipse id="타원_141" data-name="타원 141" cx="1.867" cy="2.446" rx="1.867" ry="2.446" transform="translate(49.072 249.334)" fill="#3f3d56"/>
      <ellipse id="타원_142" data-name="타원 142" cx="1.867" cy="2.446" rx="1.867" ry="2.446" transform="translate(49.072 246.346)" fill="#3f3d56"/>
      <path id="패스_489" data-name="패스 489" d="M226.174,691.413a9.4,9.4,0,0,0,.69-1.035l-4.906-.807,5.306.041a8.97,8.97,0,0,0,.169-7.09l-7.114,3.705,6.555-4.83A8.946,8.946,0,1,0,212.1,691.4a8.909,8.909,0,0,0-1.035,1.628l6.372,3.312-6.793-2.281a8.946,8.946,0,0,0,1.47,8.415,8.946,8.946,0,1,0,14.063,0,8.943,8.943,0,0,0,0-11.061Z" transform="translate(-168.246 -463.066)" fill="#267dff"/>
      <path id="패스_490" data-name="패스 490" d="M210.238,734.743a8.918,8.918,0,0,0,1.914,5.519,8.946,8.946,0,1,0,14.064,0C227.406,738.739,210.238,733.725,210.238,734.743Z" transform="translate(-168.287 -500.852)" opacity="0.1"/>
    </g>
  </g>
</svg>
