<svg xmlns="http://www.w3.org/2000/svg" xmlns:xlink="http://www.w3.org/1999/xlink" width="340" height="340" viewBox="0 0 340 340">
  <defs>
    <clipPath id="clip-path">
      <circle id="타원_102" data-name="타원 102" cx="170" cy="170" r="170" transform="translate(453 623)" fill="#fff" stroke="#707070" stroke-width="1"/>
    </clipPath>
  </defs>
  <g id="마스크_그룹_17" data-name="마스크 그룹 17" transform="translate(-453 -623)" clip-path="url(#clip-path)">
    <g id="그룹_531" data-name="그룹 531" transform="translate(413.594 623.057)">
      <path id="패스_354" data-name="패스 354" d="M518.44,236.44c-140.618-53.286-280.452-54.654-419.44,0v-198H518.44Z" transform="translate(-99 -38.441)" fill="#294369"/>
      <rect id="사각형_372" data-name="사각형 372" width="81.645" height="2.237" transform="translate(15.919 13.365)" fill="#d0cde1"/>
      <rect id="사각형_373" data-name="사각형 373" width="81.645" height="3.355" transform="translate(15.919 22.312)" fill="#d0cde1"/>
      <rect id="사각형_374" data-name="사각형 374" width="81.645" height="3.355" transform="translate(15.919 31.259)" fill="#d0cde1"/>
      <rect id="사각형_375" data-name="사각형 375" width="7.829" height="7.829" transform="translate(29.34 48.036)" fill="#d0cde1"/>
      <rect id="사각형_376" data-name="사각형 376" width="8.947" height="7.829" transform="translate(51.708 48.036)" fill="#6c63ff"/>
      <rect id="사각형_377" data-name="사각형 377" width="8.947" height="7.829" transform="translate(75.195 48.036)" fill="#ff6584"/>
      <rect id="사각형_378" data-name="사각형 378" width="70.325" height="12.088" transform="translate(21.349 79.116)" fill="#d0cde1"/>
      <rect id="사각형_379" data-name="사각형 379" width="70.325" height="12.088" transform="translate(21.349 97.665)" fill="#267dff"/>
      <rect id="사각형_380" data-name="사각형 380" width="70.325" height="12.088" transform="translate(21.349 116.214)" fill="#e81a95"/>
      <rect id="사각형_381" data-name="사각형 381" width="29.093" height="12.088" transform="translate(21.349 79.116)" opacity="0.15"/>
      <rect id="사각형_382" data-name="사각형 382" width="9.419" height="12.088" transform="translate(21.349 97.665)" opacity="0.15"/>
      <rect id="사각형_383" data-name="사각형 383" width="46.884" height="12.088" transform="translate(21.349 116.214)" opacity="0.15"/>
      <path id="패스_355" data-name="패스 355" d="M591,61.441V199.58a69.07,69.07,0,0,0,0-138.139Z" transform="translate(-385.047 -51.813)" fill="#d0cde1"/>
      <path id="패스_356" data-name="패스 356" d="M501.206,68.694a63.451,63.451,0,0,0-56.731,35.011l56.731,33.566Z" transform="translate(-299.858 -56.03)" fill="#d0cde1"/>
      <path id="패스_357" data-name="패스 357" d="M423.321,154.454a69.089,69.089,0,0,0,61.748,100.041V191Z" transform="translate(-283.303 -105.89)" fill="#267dff"/>
      <rect id="사각형_384" data-name="사각형 384" width="42.5" height="3.355" transform="translate(321.248 45.799)" fill="#d0cde1"/>
      <rect id="사각형_385" data-name="사각형 385" width="7.829" height="10.066" transform="translate(307.827 42.444)" fill="#267dff"/>
      <rect id="사각형_386" data-name="사각형 386" width="42.5" height="4.474" transform="translate(321.248 58.102)" fill="#d0cde1"/>
      <rect id="사각형_387" data-name="사각형 387" width="7.829" height="10.066" transform="translate(307.827 54.746)" fill="#267dff"/>
      <rect id="사각형_388" data-name="사각형 388" width="42.5" height="4.474" transform="translate(321.248 70.404)" fill="#d0cde1"/>
      <rect id="사각형_389" data-name="사각형 389" width="7.829" height="8.947" transform="translate(307.827 68.167)" fill="#267dff"/>
      <path id="패스_358" data-name="패스 358" d="M437.885,188.668l-.592-.592L481.369,144h76.778v.837H481.716Z" transform="translate(-254.241 -83.721)" fill="#2f2e41"/>
      <path id="패스_359" data-name="패스 359" d="M518.44,583.753H99V488.73q202.185-78.783,419.44,0Z" transform="translate(-99 -277.335)" fill="#294369"/>
      <path id="패스_360" data-name="패스 360" d="M493.966,643.322l3.825,11.839a61.283,61.283,0,0,0-1.821,23.5c1.639,12.385.729,12.749.729,12.749s-16.378-.943-14.739,3.975,17.653,2.036,17.653,2.036,3.076-.828,4.533-9.571,5.12-25.581,5.12-25.581l-3.445-15.9Z" transform="translate(-321.584 -390.117)" fill="#ffb8b8"/>
      <path id="패스_361" data-name="패스 361" d="M504.236,585.453s-6.921,2.55-6.921,9.471,2.55,16.392,4.189,16.939,12.567,8.014,14.571,2.732S504.236,585.453,504.236,585.453Z" transform="translate(-330.579 -356.472)" fill="#d0cde1"/>
      <path id="패스_362" data-name="패스 362" d="M546.887,739.773l14.571-.546,11.11-1.639-3.278,10.928-26.956.728Z" transform="translate(-315.311 -428.831)" fill="#ffb8b8"/>
      <path id="패스_363" data-name="패스 363" d="M698.581,773.852s-.182-4.007-1.821-3.825-.546-1.457.911-1.821,5.646-2.186,5.646-2.186l16.574,1.093s10.746,9.471,6.375,14.571-15.664.546-15.664.546l-12.2.182S694.391,775.856,698.581,773.852Z" transform="translate(-446.059 -461.453)" fill="#2f2e41"/>
      <path id="패스_364" data-name="패스 364" d="M618.911,696.344l5.282,24.77,10.928-2.186-6.192-30.963-6.557-3.461Z" transform="translate(-359.833 -397.969)" fill="#ffb8b8"/>
      <path id="패스_365" data-name="패스 365" d="M538.837,673.806s-30.6,13.842-17.667,27.867c0,0,0,6.557,13.66,5.282s40.07-3.643,41.345-2.914,5.282-14.389,1.821-15.117-7.65-1.639-7.65-1.639,3.643-.546,3.643-3.643c0,0,10.382-.729,13.478-7.285s6.01-11.474,6.01-11.474l7.1,18.213s8.2-15.117,14.389-8.378c0,0-6.921-43.53-12.2-47.537s-8.925-5.282-13.842-1.639-9.471,12.932-9.471,12.932Z" transform="translate(-342.595 -378.528)" fill="#2f2e41"/>
      <path id="패스_366" data-name="패스 366" d="M725.871,792.294a41.012,41.012,0,0,0-3.643,3.1c-1.457,1.457-3.461.729-3.643,0s-3.461.546-3.825,5.828-2.55,10.018,3.278,11.657,5.646,6.375,5.646,6.375a19.647,19.647,0,0,0,14.753.911c8.2-2.732,5.282-5.646,5.282-5.646l-10.928-18.031S729.878,791.019,725.871,792.294Z" transform="translate(-456.593 -476.616)" fill="#2f2e41"/>
      <path id="패스_367" data-name="패스 367" d="M661.2,576.751s17.485,6.01,19.306,7.285,10.017,7.285,6.01,10.382-7.285,5.1-15.117,2.732-16.574-9.653-16.574-9.653Z" transform="translate(-422.153 -351.413)" fill="#ffb8b8"/>
      <path id="패스_368" data-name="패스 368" d="M628.28,557.194s6.921-1.275,11.839,1.457,9.107,8.2,9.107,8.2-4.553,9.653-7.832,11.11-9.289-5.828-9.289-5.828Z" transform="translate(-406.722 -339.87)" fill="#d0cde1"/>
      <path id="패스_369" data-name="패스 369" d="M551.324,543.78s.182,7.1-.547,7.832,8.743,22.221,19.124,12.75,2.368-13.3,2.368-13.3-3.825-7.1-3.643-7.832-16.938,0-16.938,0Z" transform="translate(-361.639 -331.738)" fill="#ffb8b8"/>
      <path id="패스_370" data-name="패스 370" d="M551.324,543.78s.182,7.1-.547,7.832,8.743,22.221,19.124,12.75,2.368-13.3,2.368-13.3-3.825-7.1-3.643-7.832-16.938,0-16.938,0Z" transform="translate(-361.639 -331.738)" opacity="0.1"/>
      <path id="패스_371" data-name="패스 371" d="M555.557,574.076s6.921,4.735,9.835,3.643,6.557-5.828,6.921-6.193S591.256,608.5,591.256,608.5s-2.732,13.66-10.017,17.667-7.194,7.194-8.1,9.926-12.658-8.651-12.658-8.651l-7.467-31.692V576.444Z" transform="translate(-362.959 -348.374)" fill="#d0cde1"/>
      <path id="패스_372" data-name="패스 372" d="M527.482,557.328a5.9,5.9,0,0,0-4.644,1.548c-2.368,2-13.478,9.471-12.932,10.2s5.464,11.11,6.557,15.3,2.732,4.735,2.732,4.735,3.825,2.732,3.278,4.736-2.914,29.324.364,35.334,2.732,11.292,1.821,12.749,8.743-4.189,8.743-4.189,14.389-11.657,15.481-15.117a40.707,40.707,0,0,0,1.457-7.286s-9.289-36.791-12.2-38.795S527.482,557.328,527.482,557.328Z" transform="translate(-337.888 -340.094)" fill="#575a89"/>
      <path id="패스_373" data-name="패스 373" d="M595.42,554.708s4.488-2.785,5.4-2.057,9.471.729,9.653,1.457.546,18.214,6.739,22.767,2.186,13.66,2.186,13.66l4.553,7.285s-24.77,23.858-23.131,15.664c.091-.455,0-.546,0-.546s-9.653-41.345-8.378-43.53S596.032,557.311,595.42,554.708Z" transform="translate(-385.817 -337.331)" fill="#575a89"/>
      <path id="패스_374" data-name="패스 374" d="M627.132,597.636l-24.77,8.56s-24.588,5.828-20.763,12.567,20.035-4.735,20.035-4.735l32.986-3.7S647.713,599.275,627.132,597.636Z" transform="translate(-379.346 -363.555)" fill="#ffb8b8"/>
      <circle id="타원_97" data-name="타원 97" cx="13.478" cy="13.478" r="13.478" transform="translate(186.042 191.826)" fill="#ffb8b8"/>
      <path id="패스_375" data-name="패스 375" d="M543.281,485.718l-2.493-.907s5.213-5.213,12.466-4.76l-2.04-2.04s4.986-1.813,9.519,2.946a40.492,40.492,0,0,1,6.859,8.756h2.67l-1.114,2.229,3.9,2.229-4-.4a11.245,11.245,0,0,1-.379,5.772l-.907,2.493s-3.626-7.253-3.626-8.159v2.267s-2.493-2.04-2.493-3.4l-1.36,1.586-.68-2.493-8.386,2.493,1.36-2.04-5.213.68,2.04-2.493s-5.893,2.946-6.12,5.44-3.173,5.666-3.173,5.666l-1.36-2.267S536.708,489.117,543.281,485.718Z" transform="translate(-354.494 -293.809)" fill="#2f2e41"/>
      <path id="패스_376" data-name="패스 376" d="M968.9,680.627l-.837-.016a194.186,194.186,0,0,1,2.972-27.748c3.62-19.625,9.64-32.513,17.892-38.307l.481.685C970.135,628.776,968.914,680.11,968.9,680.627Z" transform="translate(-604.273 -373.392)" fill="#d0cde1"/>
      <path id="패스_377" data-name="패스 377" d="M993.9,731.868l-.837-.016c.018-.927.541-22.778,9.143-28.817l.481.685C994.436,709.515,993.909,731.645,993.9,731.868Z" transform="translate(-618.808 -424.833)" fill="#d0cde1"/>
      <circle id="타원_98" data-name="타원 98" cx="4.186" cy="4.186" r="4.186" transform="translate(385.716 233.553)" fill="#6c63ff"/>
      <circle id="타원_99" data-name="타원 99" cx="4.186" cy="4.186" r="4.186" transform="translate(383.643 269.553)" fill="#6c63ff"/>
      <path id="패스_378" data-name="패스 378" d="M982.689,610.317a18.592,18.592,0,0,1-1.264,9.519,16.946,16.946,0,0,1-2.849-18.2A18.593,18.593,0,0,1,982.689,610.317Z" transform="translate(-609.544 -365.882)" fill="#6c63ff"/>
      <path id="패스_379" data-name="패스 379" d="M1009.746,643.132a18.685,18.685,0,0,1-9.587.433,17.049,17.049,0,0,1,17.422-5.976A18.687,18.687,0,0,1,1009.746,643.132Z" transform="translate(-622.931 -386.532)" fill="#d0cde1"/>
      <path id="패스_380" data-name="패스 380" d="M1014.123,721.78a13.035,13.035,0,0,1-6.725.29,11.877,11.877,0,0,1,12.212-4.189,13.034,13.034,0,0,1-5.487,3.9Z" transform="translate(-627.14 -433.26)" fill="#d0cde1"/>
      <path id="패스_381" data-name="패스 381" d="M897.426,577.66a5.442,5.442,0,1,1,5.442-5.442A5.442,5.442,0,0,1,897.426,577.66Zm0-10.047a4.6,4.6,0,1,0,4.6,4.6A4.6,4.6,0,0,0,897.426,567.613Z" transform="translate(-560.039 -345.613)" fill="#d0cde1"/>
      <circle id="타원_100" data-name="타원 100" cx="3.914" cy="3.914" r="3.914" transform="translate(307.827 253.825)" fill="#d0cde1"/>
      <ellipse id="타원_101" data-name="타원 101" cx="3.355" cy="3.914" rx="3.355" ry="3.914" transform="translate(11.445 214.681)" fill="#d0cde1"/>
      <path id="패스_382" data-name="패스 382" d="M169.884,680.324H159V669.441h10.884Zm-10.046-.837h9.209v-9.209h-9.209Z" transform="translate(-133.884 -405.302)" fill="#d0cde1"/>
      <path id="패스_383" data-name="패스 383" d="M320.93,603.441a20.93,20.93,0,1,0,20.93,20.93A20.93,20.93,0,0,0,320.93,603.441Zm-3.61,30.3-9-9,2.525-2.525,6.486,6.486L331.018,615l2.525,2.525Z" transform="translate(-215.861 -366.93)" fill="#267dff"/>
    </g>
  </g>
</svg>
