<svg xmlns="http://www.w3.org/2000/svg" xmlns:xlink="http://www.w3.org/1999/xlink" width="320" height="320" viewBox="0 0 320 320">
  <defs>
    <clipPath id="clip-path">
      <circle id="타원_103" data-name="타원 103" cx="160" cy="160" r="160" transform="translate(972.384 506.384)" fill="#fff" stroke="#707070" stroke-width="1"/>
    </clipPath>
    <linearGradient id="linear-gradient" x1="0.5" y1="1" x2="0.5" y2="-0.001" gradientUnits="objectBoundingBox">
      <stop offset="0" stop-color="gray" stop-opacity="0.251"/>
      <stop offset="0.54" stop-color="gray" stop-opacity="0.122"/>
      <stop offset="1" stop-color="gray" stop-opacity="0.102"/>
    </linearGradient>
  </defs>
  <g id="마스크_그룹_18" data-name="마스크 그룹 18" transform="translate(-972.384 -506.384)" clip-path="url(#clip-path)">
    <g id="그룹_530" data-name="그룹 530" transform="translate(830.517 505.423)">
      <path id="패스_293" data-name="패스 293" d="M637.5,427.311q-1.01,2.177-2.014,4.3-1.567,3.292-3.094,6.455c-.453.935-.906,1.852-1.347,2.769-4.992,10.2-9.654,19.221-13.613,26.64a42.5,42.5,0,0,1-37.043,22.466l-88.035.958h-.929l-7.547.081-6.455.07-19.8.215h-.8l-10.078.11h-.308l-62.115.673-55.445.58-6.45.07-40.055.435h-.047l-25.978.279h-.279l-82.143.888-24.573.267a51.122,51.122,0,0,1-15.482-2.218,50.15,50.15,0,0,1-22.692-14.368,116.068,116.068,0,0,1-23.412-39.916q-1.12-3.187-2.09-6.455c-17.886-60.46,3.918-138.464,43.161-190.663q2.467-3.274,5.016-6.386l.041-.046c12.069-14.815,25.6-27.191,40.015-35.992,25.543-15.622,53.843-20.022,81.678-6.908,23.551,11.1,45.541,16.318,66.858,17.735,2.154.139,4.307.244,6.45.308,48.9,1.538,94.722-16.08,148.536-27.452,2.142-.453,4.29-.9,6.455-1.324,38.389-7.64,80.976-11.668,131.619-3.2a109.769,109.769,0,0,1,15.534,3.715q3.35,1.08,6.455,2.322c24.173,9.834,37.356,28,42.958,50.772q.8,3.17,1.376,6.45C691.762,295.7,662.672,373.387,637.5,427.311Z" transform="translate(-79.351 -172.945)" fill="#6c63ff" opacity="0.1"/>
      <g id="그룹_528" data-name="그룹 528" transform="translate(6.327 7.915)" opacity="0.1">
        <path id="패스_294" data-name="패스 294" d="M213.3,217V512.841l-24.573.267a51.127,51.127,0,0,1-15.482-2.218v-257.9h.041C185.35,238.16,198.881,225.783,213.3,217Z" transform="translate(-125.063 -199.341)" fill="#6c63ff"/>
        <path id="패스_295" data-name="패스 295" d="M717.619,285.432H164.6q2.467-3.274,5.016-6.386V279H716.243Q717.039,282.152,717.619,285.432Z" transform="translate(-121.439 -225.349)" fill="#6c63ff"/>
        <path id="패스_296" data-name="패스 296" d="M1036.155,189.815V437.694h-2.014q-1.567,3.291-3.094,6.455c-.453.935-.905,1.852-1.347,2.769V187.47Q1033.05,188.55,1036.155,189.815Z" transform="translate(-484.338 -186.953)" fill="#6c63ff"/>
        <path id="패스_297" data-name="패스 297" d="M771.545,186.58V496.719l-6.455.07V187.9C767.232,187.451,769.38,187,771.545,186.58Z" transform="translate(-373.337 -186.58)" fill="#6c63ff"/>
        <path id="패스_298" data-name="패스 298" d="M504.56,235.928V518.974l-6.449.07V235.62C500.264,235.759,502.417,235.841,504.56,235.928Z" transform="translate(-261.342 -207.152)" fill="#6c63ff"/>
        <path id="패스_299" data-name="패스 299" d="M640.053,618.52q-1.567,3.292-3.094,6.455H92.34q-1.12-3.187-2.09-6.455Z" transform="translate(-90.25 -367.774)" fill="#6c63ff"/>
      </g>
      <rect id="사각형_363" data-name="사각형 363" width="11.03" height="33.472" transform="translate(122.83 154.297)" fill="#3f3d56"/>
      <rect id="사각형_364" data-name="사각형 364" width="11.03" height="35.411" transform="translate(419.663 152.556)" fill="#3f3d56"/>
      <path id="패스_300" data-name="패스 300" d="M545.548,521.695v7.547l-88.191.813-.94.017-33.519.308-.8.012-10.188.087h-.3l-62.1.575L247.559,532h-.087l-25.92.244-.279.006L106.1,533.3V524.6l27.081-16.254,54.336-.453,1.161-.006.383-.006,1.161-.017,26.088-.215,1.167-.006.372-.006,1.161-.006,8.365-.07.221-.006,20.637-.174h.168l161.034-1.358,3.942-.029h.395l3.007-.029,21.856-.18,1.161-.017,1.074-.012h.557l6.8-.052,1.347-.017,1.805-.012,5.66-.052,8.98-.075,1.161-.012,2.02-.012h.377l43.37-.371Z" transform="translate(-44.514 -211.925)" fill="#65617d"/>
      <path id="패스_301" data-name="패스 301" d="M545.548,521.695v7.547l-88.191.813-.94.017-33.519.308-.8.012-10.188.087h-.3l-62.1.575L247.559,532h-.087l-25.92.244-.279.006L106.1,533.3V524.6l27.081-16.254,54.336-.453,1.161-.006.383-.006,1.161-.017,26.088-.215,1.167-.006.372-.006,1.161-.006,8.365-.07.221-.006,20.637-.174h.168l161.034-1.358,3.942-.029h.395l3.007-.029,21.856-.18,1.161-.017,1.074-.012h.557l6.8-.052,1.347-.017,1.805-.012,5.66-.052,8.98-.075,1.161-.012,2.02-.012h.377l43.37-.371Z" transform="translate(-44.514 -211.925)" opacity="0.2"/>
      <path id="패스_302" data-name="패스 302" d="M355.653,656.57v14.217A3.559,3.559,0,0,1,353.621,674a3.481,3.481,0,0,1-1.451.348l-20.26.43a3.486,3.486,0,0,1-1.567-.331,3.553,3.553,0,0,1-2.073-3.234V656.57Z" transform="translate(-183.769 -375.82)" fill="#3f3d56"/>
      <path id="패스_303" data-name="패스 303" d="M355.653,656.57v14.217A3.559,3.559,0,0,1,353.621,674a3.481,3.481,0,0,1-1.451.348l-20.26.43a3.486,3.486,0,0,1-1.567-.331,3.553,3.553,0,0,1-2.073-3.234V656.57Z" transform="translate(-183.769 -375.82)" opacity="0.1"/>
      <path id="패스_304" data-name="패스 304" d="M357.653,656.57v14.217A3.559,3.559,0,0,1,355.621,674a3.481,3.481,0,0,1-1.451.348l-20.26.43a3.486,3.486,0,0,1-1.567-.331,3.553,3.553,0,0,1-2.073-3.234V656.57Z" transform="translate(-184.608 -375.82)" fill="#3f3d56"/>
      <rect id="사각형_365" data-name="사각형 365" width="27.383" height="18.286" transform="translate(395.282 280.75)" fill="#3f3d56"/>
      <rect id="사각형_366" data-name="사각형 366" width="27.383" height="18.286" transform="translate(395.282 280.75)" opacity="0.1"/>
      <rect id="사각형_367" data-name="사각형 367" width="27.383" height="18.286" transform="translate(394.121 280.75)" fill="#3f3d56"/>
      <path id="패스_305" data-name="패스 305" d="M222.63,265.82v3.326l-11.03-.284V265.82Z" transform="translate(-88.77 -111.529)" opacity="0.1"/>
      <path id="패스_306" data-name="패스 306" d="M343.691,270.049l-13.253,95.2a2.5,2.5,0,0,1-2.537,2.154l-106.118-2.752-2.014-.052a2.5,2.5,0,0,1-2.415-2.827l14.878-99.662a2.5,2.5,0,0,1,2.636-2.107l106.5,7.21a2.49,2.49,0,0,1,2.322,2.833Z" transform="translate(-137.232 -209.464)" fill="#65617d"/>
      <path id="패스_307" data-name="패스 307" d="M167.821,99.16,156.6,187.009l97.526,3.094,11.993-84.755Z" transform="translate(-65.698 -41.617)" fill="#267dff"/>
      <rect id="사각형_368" data-name="사각형 368" width="118.813" height="100.62" rx="5.33" transform="translate(223.259 56.185)" fill="#65617d"/>
      <rect id="사각형_369" data-name="사각형 369" width="107.975" height="83.785" transform="translate(228.866 62.959)" fill="#267dff"/>
      <path id="패스_308" data-name="패스 308" d="M733.96,262.82v2.2l-11.03.226V262.82Z" transform="translate(-303.267 -110.27)" opacity="0.1"/>
      <path id="패스_309" data-name="패스 309" d="M819.145,358.854a1.788,1.788,0,0,1-1.742,1.9L708.732,363a1.788,1.788,0,0,1-1.817-1.62l-9.34-97.108a1.788,1.788,0,0,1,1.7-1.956l107.848-5.364,1.161-.058a1.782,1.782,0,0,1,1.869,1.626Z" transform="translate(-338.685 -208.161)" fill="#65617d"/>
      <path id="패스_310" data-name="패스 310" d="M628.93,99.661l98.5-4.841,8.319,88.238-97.718,2.322Z" transform="translate(-263.835 -39.796)" fill="#267dff"/>
      <path id="패스_311" data-name="패스 311" d="M898.308,358.854a1.788,1.788,0,0,1-1.741,1.9l-10.287-103.8,1.161-.058a1.782,1.782,0,0,1,1.869,1.626Z" transform="translate(-417.848 -208.161)" opacity="0.1"/>
      <path id="패스_312" data-name="패스 312" d="M234.886,259.995l-13.1,104.655-2.014-.052a2.5,2.5,0,0,1-2.415-2.827l14.878-99.662A2.5,2.5,0,0,1,234.886,259.995Z" transform="translate(-137.232 -209.458)" opacity="0.1"/>
      <rect id="사각형_370" data-name="사각형 370" width="11.03" height="9.915" transform="translate(122.83 177.854)" opacity="0.1"/>
      <path id="패스_313" data-name="패스 313" d="M278.313,483.65v2.885l-27.383.731V483.65Z" transform="translate(-105.268 -202.906)" opacity="0.1"/>
      <path id="패스_314" data-name="패스 314" d="M377,483.613v97.642a2.322,2.322,0,0,1-2.235,2.293l-111.255,2.961h-.029a2.322,2.322,0,0,1-2.293-2.293v-100.6a2.322,2.322,0,0,1,2.293-2.293H374.709A2.322,2.322,0,0,1,377,483.613Z" transform="translate(-155.63 -302.305)" fill="#65617d"/>
      <path id="패스_315" data-name="패스 315" d="M263.512,481.32V586.509h-.029a2.322,2.322,0,0,1-2.293-2.293v-100.6a2.322,2.322,0,0,1,2.293-2.293Z" transform="translate(-155.63 -302.305)" opacity="0.1"/>
      <path id="패스_316" data-name="패스 316" d="M194.6,319.15H297.641v86.061L194.6,407.533Z" transform="translate(-81.639 -133.9)" fill="#d4dfec"/>
      <rect id="사각형_371" data-name="사각형 371" width="11.03" height="10.113" transform="translate(419.663 177.854)" opacity="0.1"/>
      <path id="패스_317" data-name="패스 317" d="M706.313,483.65v3.721l-27.383-.731v-2.99Z" transform="translate(-284.809 -202.906)" opacity="0.1"/>
      <path id="패스_318" data-name="패스 318" d="M783.985,483.613v100.6a2.322,2.322,0,0,1-2.322,2.293h0l-111.278-2.961a2.322,2.322,0,0,1-2.235-2.293V483.613a2.322,2.322,0,0,1,2.293-2.293H781.669a2.322,2.322,0,0,1,2.316,2.293Z" transform="translate(-326.345 -302.305)" fill="#65617d"/>
      <path id="패스_319" data-name="패스 319" d="M866.012,483.613v100.6a2.322,2.322,0,0,1-2.322,2.293h0V481.32h0a2.322,2.322,0,0,1,2.322,2.293Z" transform="translate(-408.372 -302.305)" opacity="0.1"/>
      <path id="패스_320" data-name="패스 320" d="M701.141,319.15H598.1v86.061l103.041,2.322Z" transform="translate(-250.902 -133.9)" fill="#d4dfec"/>
      <path id="패스_321" data-name="패스 321" d="M579.5,483.613v97.642a2.322,2.322,0,0,1-2.235,2.293l-111.255,2.961h0a2.322,2.322,0,0,1-2.322-2.293v-100.6a2.322,2.322,0,0,1,2.293-2.293H577.209A2.322,2.322,0,0,1,579.5,483.613Z" transform="translate(-240.577 -302.305)" fill="#65617d"/>
      <path id="패스_322" data-name="패스 322" d="M397.1,319.15H500.141v86.061L397.1,407.533Z" transform="translate(-166.585 -133.9)" fill="#d4dfec"/>
      <path id="패스_323" data-name="패스 323" d="M545.548,533.65V541.2l-88.191.813-.94.018-33.519.308-.8.012-10.188.087h-.3l-62.1.575-101.944.946h-.087l-25.92.244-.279.006L106.1,545.26v-8.708l117.56-.772h.279l23.8-.162h.11l164.331-1.086h.168l.1-.006h.273l2.781-.017h.848l43.242-.29,2.554-.012.569-.006Z" transform="translate(-44.514 -223.88)" opacity="0.1"/>
      <circle id="타원_96" data-name="타원 96" cx="29.798" cy="29.798" r="29.798" transform="translate(253.056 128.174)" fill="#fbbebe"/>
      <path id="패스_324" data-name="패스 324" d="M383.74,566.9a.72.72,0,0,1,.058-.2c.581-2.084,1.614-5.608,2.386-8.423.1-.348.192-.691.279-1.016.853-3.175,2.514-10.612,3.437-15.25.325-1.631.58-2.9.633-3.541.116-.981,1.863-5.178,3.843-10,1.387-3.39,2.9-7.094,4.011-10.217a35.635,35.635,0,0,0,1.7-5.718,2.961,2.961,0,0,0,0-1.237,8.523,8.523,0,0,1-.279-2.032h0c-.134-3.6.94-9.288,2.6-11.674,2.032-2.9,3.483-13.735,3.483-13.735s3.007.435,3.483-2.049a3.575,3.575,0,0,0,.058-.813,4.285,4.285,0,0,0-.052-.644c-.517-3.622,8.545-7.477,13.642-8.307a11.411,11.411,0,0,1,1.742-.163,15.811,15.811,0,0,0,3.628-.836q.813-.25,1.742-.581c2.136-.72,4.691-1.672,7.4-2.717,10.194-3.953,22.536-9.288,22.536-9.288.087-.412.186-.807.3-1.2a16.087,16.087,0,0,1,9.491-10.989h0v-1.161c0-2-.087-4.064-.174-6.119,0-.4-.035-.8-.058-1.2v-.656c0-.406-.04-.813-.064-1.213l-.1-.081a9.526,9.526,0,0,1-2.264-2.438,8.869,8.869,0,0,1-.824-1.742,53.241,53.241,0,0,1-1.382-6.24l-.1-.43a48.755,48.755,0,0,0-2.322-6.142c-1.283-3.146-2.27-6.386-3.251-9.666q-.894-2.978-1.805-5.968l-.917-3.042c-.174-.581-.348-1.161-.482-1.742h0a7.7,7.7,0,0,1-.151-.813h0a5.8,5.8,0,0,1,.139-2.676,18.6,18.6,0,0,1,.766-1.742,4.578,4.578,0,0,0,.29-.8h0a1.719,1.719,0,0,0,.046-.186,3.26,3.26,0,0,0,.064-.627,10.713,10.713,0,0,0-.3-2.258.041.041,0,0,1,0-.029,1.49,1.49,0,0,0-.029-.157,14.8,14.8,0,0,1-.209-1.742,16.516,16.516,0,0,1,2.014-9.039l.11-.209a14.642,14.642,0,0,1,1.068-1.614h0a8.149,8.149,0,0,1,.581-.708,2.318,2.318,0,0,1-3.222-.836,2.2,2.2,0,0,1-.134-.261c-.029-.07-.052-.145-.075-.221a4.743,4.743,0,0,1,1.231-4.093,10.733,10.733,0,0,1,3.332-2.728h0a2.264,2.264,0,0,1,.232-.122,9.951,9.951,0,0,1,1.533-.615h0a8.741,8.741,0,0,1,.946-.255l-2.154-.2-.871-.081a8.412,8.412,0,0,1,7.547-6.333h.627a6.811,6.811,0,0,1,.911.075,2.578,2.578,0,0,1-1.538-2.514,8.365,8.365,0,0,0,5.335,1.776h.221a17.459,17.459,0,0,1-.2-1.9h0a19.259,19.259,0,0,1,0-2.589,4.9,4.9,0,0,0,3.936,1.312l-1.207-1.683a5.509,5.509,0,0,0,3.808,1.19l.279-.029a4.067,4.067,0,0,0,.691-.134h.052c-.11-.139-.209-.284-.308-.435l-.035-.07a5.617,5.617,0,0,1-.58-1.213,3.831,3.831,0,0,1-.139-.505h0a5.079,5.079,0,0,1,.261-3.164c1.875,1.567,3.93,3.709,6.386,2.09s2.537-4.592,6.386-4.29a5.921,5.921,0,0,1,4.882,3.553,3.919,3.919,0,0,1,4.453-1.016,3.976,3.976,0,0,1,2.252,4c1.6-.4,3.315-.8,4.847-.192s2.519,2.56,1.649,3.866a.827.827,0,0,1-.081.116c-.714.923-2.293,1.428-2.125,2.589l.244.174.755.546q4.441,3.2,8.65,6.734c1.44,1.207,2.972,2.659,3.071,4.545a5.014,5.014,0,0,1-.139,1.376h0c-.093.453-.221.906-.319,1.358a11.329,11.329,0,0,0-.2,3.512h0c.041.342.093.679.157,1.022.888,4.487,4.476,8.191,4.83,12.771v.325a10.314,10.314,0,0,1-.041,1.469c-.267,2.786-1.556,5.463-2.6,8.127-.064.162-.128.325-.186.488a80.87,80.87,0,0,0-4.064,16.347,58.175,58.175,0,0,1-1.161,5.857,15.518,15.518,0,0,1-2.955,6.055,9.415,9.415,0,0,1-1.951,1.741,10.841,10.841,0,0,1-1.538.819v.035c.064.354.116.708.18,1.062.035.186.064.372.1.581h0a.082.082,0,0,0,0,.035c.488,2.746,1.045,5.434,1.631,7.988l.3,1.271c7.315,2.641,8.18,8.052,8.232,10.124a5.574,5.574,0,0,1,0,.83s11.03.29,15.384,3.483a11.807,11.807,0,0,0,2.618,1.335,48.181,48.181,0,0,0,5.37,1.678c.935.244,1.91.482,2.9.714,1.741.4,3.587.789,5.37,1.161,4.754.958,9.23,1.741,11.5,2.322,5.416,1.37,17.8,13.247,17.8,13.247s1.451,11.982,2.9,13.729,4.064,7.889,4.064,7.889l9.6,17.073,4.064,7.181h2.612a4.441,4.441,0,0,1,1.863,1.219c.691.615,1.457,1.382,2.13,2.078l1.115,1.19.7.772s4.22.1,5.364,3.442c3.437-.1,7.657.128,10.612,1.451a8.2,8.2,0,0,1,1.161.627,5.039,5.039,0,0,1,2.4,3.286,4.847,4.847,0,0,1,.1.836v.987c-.209,4.395-3.071,8.052-5.7,10.513l.186.331s-.087.209-.256.58c-.046.11-.1.232-.168.372h0c-.342.731-.888,1.829-1.6,3.112a36.758,36.758,0,0,1-5.556,7.645l-.168.174-33.519.308-.1-.116-6.5-7.756-3.234-3.855-.1-.122-.093.923L575.129,557l-.755,7.436-.041.372v.1l-.087.859.064-.859h-.168l-62.115.581-101.95,1.126v.488H410v-.488l-25.978.279Z" transform="translate(-207.038 -246.372)" fill="url(#linear-gradient)"/>
      <path id="패스_325" data-name="패스 325" d="M579.918,503.915s-57.761,6.966-52.246,0c2-2.519,2.549-9.985,2.438-18.489-.035-2.583-.128-5.259-.261-7.924-.639-12.771-2.177-25.252-2.177-25.252s50.5-23.8,44.7-4.934c-2.322,7.622-1.562,18.327.2,28.376.517,2.932,1.115,5.805,1.741,8.533A200.161,200.161,0,0,0,579.918,503.915Z" transform="translate(-267.26 -284.989)" fill="#fbbebe"/>
      <path id="패스_326" data-name="패스 326" d="M579.918,534.845s-57.761,6.966-52.246,0c2-2.52,2.549-9.985,2.438-18.489,8.806-3.762,20.01-.958,20.01-.958,11.8-2.351,19.36-1.892,24.2-.244A200.158,200.158,0,0,0,579.918,534.845Z" transform="translate(-267.26 -315.919)" opacity="0.1"/>
      <path id="패스_327" data-name="패스 327" d="M410.241,637.473v-.488l101.95-1.109,62.115-.58h.174l-.064.859.087-.859h.11v-.1l.8-7.808.3-2.955.093-.923.081-.772,3.588-11.964,3.587-11.947,3.019-10.06,4.609-15.372s-2.612-6.1-4.064-7.837-2.9-13.642-2.9-13.642-12.388-11.8-17.8-13.16c-2.27-.581-6.751-1.353-11.512-2.322-1.782-.36-3.611-.743-5.37-1.161-.993-.226-1.968-.464-2.9-.7a51.014,51.014,0,0,1-5.37-1.66,12,12,0,0,1-2.612-1.329c-4.267-3.129-14.96-3.483-15.372-3.483h0a.238.238,0,0,1,0-.041v-.052a5.967,5.967,0,0,0,0-.731,4.658,4.658,0,0,0-.052-.813.733.733,0,0,0-.041-.29c-.029-.209-.064-.43-.116-.662a2.933,2.933,0,0,0-.07-.308,9.992,9.992,0,0,0-.726-2.026c-.041-.093-.093-.192-.139-.284a10.6,10.6,0,0,0-.987-1.527c-.075-.1-.157-.2-.244-.3a11.348,11.348,0,0,0-1.579-1.533c-.157-.122-.319-.25-.488-.366a2.725,2.725,0,0,0-.3-.209l-.517-.337-.482-.279c-.424-.232-.871-.459-1.358-.673-.151-.07-.313-.133-.476-.2s-.418-.163-.633-.244h-.035l-.435-.174c-.331-.11-.668-.209-1.022-.308l-.54-.139-.581-.134-.581-.122c-.58-.116-1.2-.221-1.852-.3l-.662-.081-.679-.07-.7-.058-1-.058-1.161-.041a72.4,72.4,0,0,0-15.239,1.621,41.96,41.96,0,0,0-10.594-.977h-.5l-.581.035h-.371l-.749.07a5.554,5.554,0,0,0-.755.087c-.25.035-.511.064-.76.1l-.383.064c-.377.064-.76.134-1.161.215q-.191.035-.383.087c-.505.11-1.01.244-1.509.395-.25.07-.5.151-.749.238-.128.035-.25.081-.372.128l-.372.134-.366.145-.435.174c-.221.093-.435.192-.65.3-.122.052-.244.11-.36.174s-.238.116-.348.18a16.113,16.113,0,0,0-3.605,2.543l-.3.285-.29.3c-.1.1-.192.2-.284.308a13.82,13.82,0,0,0-1.057,1.306c-.093.122-.18.244-.267.372a15.5,15.5,0,0,0-1,1.7c-.076.139-.145.284-.215.424a18.959,18.959,0,0,0-1.161,3.047q-.163.581-.3,1.161s-12.289,5.422-22.483,9.346c-2.711,1.045-5.265,1.991-7.4,2.705-.621.209-1.2.4-1.741.581a15.511,15.511,0,0,1-3.628.836,11.381,11.381,0,0,0-1.741.163c-4.685.76-12.713,4.064-13.59,7.378a2.141,2.141,0,0,0-.058.813v.064c.58,4.063-3.483,3.483-3.483,3.483s-1.451,10.739-3.483,13.642c-1.469,2.09-2.473,6.751-2.6,10.269h0a11.384,11.384,0,0,0,.255,3.268v.081c.232.778-.325,2.9-1.271,5.625-1.027,2.99-2.525,6.705-3.965,10.211-2.171,5.294-4.215,10.1-4.342,11.157-.052.47-.2,1.312-.412,2.4-.848,4.423-2.728,12.847-3.657,16.254-.691,2.543-1.7,6.026-2.386,8.418a.816.816,0,0,1-.058.2l26.024-.256v.488h.081Z" transform="translate(-207.219 -316.743)" fill="#267dff"/>
      <path id="패스_328" data-name="패스 328" d="M445.44,607.57s33.089,17.125,44.99,15.094Z" transform="translate(-232.921 -355.265)" opacity="0.1"/>
      <path id="패스_329" data-name="패스 329" d="M561.44,595.57s32.219,10.449,42.958,11.9S561.44,595.57,561.44,595.57Z" transform="translate(-281.581 -350.231)" opacity="0.1"/>
      <path id="패스_330" data-name="패스 330" d="M578.031,529.312c-16.835,3.1-48.531,2.432-62.231,1.962,5.021-18,29.508-11.877,29.508-11.877C575.616,513.348,577.938,525.9,578.031,529.312Z" transform="translate(-262.436 -317.596)" opacity="0.1"/>
      <path id="패스_331" data-name="패스 331" d="M578.031,527.312c-16.835,3.1-48.531,2.432-62.231,1.962,5.021-18,29.508-11.877,29.508-11.877C575.616,511.348,577.938,523.9,578.031,527.312Z" transform="translate(-262.436 -316.757)" fill="#267dff"/>
      <path id="패스_332" data-name="패스 332" d="M776.94,671.947s19.83-3.048,20.219,5.66S787.047,692.4,787.047,692.4Z" transform="translate(-371.981 -382.053)" fill="#fbbebe"/>
      <path id="패스_333" data-name="패스 333" d="M572.817,475.69a27.312,27.312,0,0,1-2.612,1.01c-6.258,2.16-12.568,4.336-19.157,5.126s-13.5.093-19.25-3.193a16.692,16.692,0,0,1-1.742-1.132c-.639-12.771-2.177-25.252-2.177-25.252s50.5-23.8,44.7-4.934C570.269,454.937,571.053,465.641,572.817,475.69Z" transform="translate(-267.503 -284.989)" opacity="0.1"/>
      <path id="패스_334" data-name="패스 334" d="M533.812,359.392a5.5,5.5,0,0,1-4.83-1.016l1.208,1.678a4.917,4.917,0,0,1-3.936-1.306,19.782,19.782,0,0,0,.186,4.5,8.429,8.429,0,0,1-5.55-1.742,2.566,2.566,0,0,0,1.533,2.5,8.325,8.325,0,0,0-9.056,6.217l3.03.279a10.722,10.722,0,0,0-6.061,3.7,4.7,4.7,0,0,0-1.231,4.064c.406,1.417,2.369,2.322,3.437,1.312A16.219,16.219,0,0,0,509,392.806a8.4,8.4,0,0,1,.267,3.054,25.885,25.885,0,0,1-1.1,2.722c-.58,1.7-.029,3.535.488,5.225l2.723,8.951c.987,3.234,1.968,6.473,3.257,9.6a47.612,47.612,0,0,1,2.322,6.1c.732,2.81.761,5.886,2.322,8.342a11.57,11.57,0,0,0,4.168,3.675c5.741,3.286,12.679,3.982,19.25,3.193s12.876-2.967,19.128-5.126A18,18,0,0,0,565.8,436.8c4.325-2.833,5.288-8.626,6.1-13.729a77.948,77.948,0,0,1,4.232-16.719c1.265-3.187,2.9-6.42,2.624-9.834-.354-4.534-3.942-8.208-4.83-12.667a11.032,11.032,0,0,1,.041-4.511,10.249,10.249,0,0,0,.458-2.728c-.1-1.869-1.631-3.309-3.071-4.511q-4.685-3.913-9.671-7.4c-.168-1.161,1.411-1.66,2.125-2.577,1.01-1.295-.035-3.35-1.568-3.953s-3.251-.209-4.847.192a3.826,3.826,0,0,0-6.705-2.966,5.921,5.921,0,0,0-4.888-3.529c-3.849-.3-3.924,2.641-6.386,4.261s-4.493-.517-6.386-2.072A5.388,5.388,0,0,0,533.812,359.392Z" transform="translate(-259.131 -247.995)" fill="#3f3d56"/>
      <path id="패스_335" data-name="패스 335" d="M761.441,662.578s-.517,1.23-1.469,3.013a40.055,40.055,0,0,1-5.225,7.645l-.157.168h-.94l-33.519.308h-.8l-.1-.116-6.5-7.715-2.45-2.908-.1-.122-.209-.244-.116-.139-.151-.18-4.766-5.654,1.742-7.256,2.966-12.226.076-.3.58-2.322.412-1.741,1.382-5.678,4.737-19.534,8.417,4.354,8.876,15.674,4.766,8.417h2.612c.493,0,1.625.952,2.763,2.049.406.389.813.8,1.161,1.161,1.034,1.068,1.852,1.985,1.852,1.985s4.232.093,5.37,3.425a4.066,4.066,0,0,1,.145.493,23.379,23.379,0,0,0,1.469,3.808c.749,1.631,1.689,3.483,2.641,5.335,1.771,3.4,3.57,6.629,4.232,7.8l.081.145Z" transform="translate(-341.778 -355.269)" fill="#267dff"/>
      <path id="패스_336" data-name="패스 336" d="M595.809,652.288l-.058.83v.058l-.1,1.335-.772,10.745-.935,12.945-.267,3.646-.58,7.8v.1l-62.115.581-101.932,1.1v.487h-.081v-.65l.261-8.336.5-16.289.43-13.81.041-1.376a6.113,6.113,0,0,1,6.629-5.9c2.74.232,6.3.517,10.554.818l1.742.128c24.573,1.707,69.987,3.913,115.812,1.161.964-.052,1.933-.11,2.9-.18,7.105-.447,14.205-1.022,21.235-1.742a6.113,6.113,0,0,1,6.734,6.519Z" transform="translate(-226.012 -371.189)" opacity="0.1"/>
      <path id="패스_337" data-name="패스 337" d="M429.08,693.61v-.488l101.95-1.109,62.115-.581h.174v-.1l.581-7.8.25-3.483.952-13.125.749-10.391v-.255a6.164,6.164,0,0,0-.064-1.434.174.174,0,0,0,0-.058,6.035,6.035,0,0,0-1.161-2.694,6.118,6.118,0,0,0-5.468-2.322c-7.03.72-14.13,1.294-21.235,1.741-.969.07-1.939.128-2.9.18-45.826,2.722-91.239.517-115.812-1.161l-1.742-.128c-4.255-.3-7.814-.581-10.554-.819a6.118,6.118,0,0,0-6.525,4.952,6.392,6.392,0,0,0-.1.952l-.395,12.864-.54,16.3-.255,8.336v.65Z" transform="translate(-226.058 -372.88)" fill="#3f3d56"/>
      <path id="패스_338" data-name="패스 338" d="M596.042,661.2l-.714,8.9-1.062,13.265L594,686.686l-.58,7.436-.035.372v.1h0l-.087.859.064-.859h-.168l-62.115.581-101.967,1.1v-.163l.284-8.336.581-16.289.372-10.826a3.692,3.692,0,0,1,1.776-3.048,3.629,3.629,0,0,1,2.194-.523c1.219.1,2.717.215,4.464.343,2.839.209,6.339.453,10.414.708,7.547.476,17.015.987,27.865,1.4,30.187,1.161,70.939,1.55,109.647-1.84,1.742-.151,3.541-.319,5.3-.488a3.633,3.633,0,0,1,2.02.383,2.988,2.988,0,0,1,.5.313,3.567,3.567,0,0,1,1.161,1.428,2.092,2.092,0,0,1,.145.354A3.645,3.645,0,0,1,596.042,661.2Z" transform="translate(-226.07 -376.033)" opacity="0.1"/>
      <path id="패스_339" data-name="패스 339" d="M357.653,677.87v1.852a3.559,3.559,0,0,1-2.032,3.216l-23.279.447a3.552,3.552,0,0,1-2.073-3.233V678.41Z" transform="translate(-184.608 -384.755)" opacity="0.1"/>
      <path id="패스_340" data-name="패스 340" d="M276.682,511.933l-30.332.581v-5.033l30.332-.58Z" transform="translate(-103.347 -212.659)" fill="#3f3d56"/>
      <path id="패스_341" data-name="패스 341" d="M276.682,511.933l-30.332.581v-5.033l30.332-.58Z" transform="translate(-103.347 -212.659)" opacity="0.1"/>
      <path id="패스_342" data-name="패스 342" d="M278.682,511.933l-30.332.581v-5.033l30.332-.58Z" transform="translate(-104.186 -212.659)" fill="#3f3d56"/>
      <g id="그룹_529" data-name="그룹 529" transform="translate(249.024 106.974)" opacity="0.1">
        <path id="패스_343" data-name="패스 343" d="M552.09,359.739a5.662,5.662,0,0,1-1.1-2.519,5.508,5.508,0,0,0,.244,2.67A5.217,5.217,0,0,0,552.09,359.739Z" transform="translate(-526.196 -357.22)"/>
        <path id="패스_344" data-name="패스 344" d="M540.075,366.648a20.469,20.469,0,0,1-.215-2.148v2.154Z" transform="translate(-521.553 -360.274)"/>
        <path id="패스_345" data-name="패스 345" d="M621.7,398.046a10.644,10.644,0,0,1,.209-1.538,10.443,10.443,0,0,0,.465-2.723,3.574,3.574,0,0,0-.093-.615c-.1.534-.255,1.068-.371,1.6A11.106,11.106,0,0,0,621.7,398.046Z" transform="translate(-555.868 -372.301)"/>
        <path id="패스_346" data-name="패스 346" d="M600.921,368.543l.633.459a11.442,11.442,0,0,0,1.492-1.289,2.131,2.131,0,0,0,.221-2.113,1.736,1.736,0,0,1-.221.371C602.332,366.889,600.753,367.394,600.921,368.543Z" transform="translate(-547.162 -360.735)"/>
        <path id="패스_347" data-name="패스 347" d="M518.4,380.29a7.157,7.157,0,0,0-.505,1.323,10.544,10.544,0,0,1,2.9-1.1Z" transform="translate(-512.337 -366.898)"/>
        <path id="패스_348" data-name="패스 348" d="M531.758,368.894a8.619,8.619,0,0,1-1.091-.714,2.463,2.463,0,0,0,.052.685A6.877,6.877,0,0,1,531.758,368.894Z" transform="translate(-517.695 -361.818)"/>
        <path id="패스_349" data-name="패스 349" d="M579.144,428.33c-.238,2.815-1.55,5.526-2.612,8.2a77.919,77.919,0,0,0-4.232,16.724c-.807,5.1-1.742,10.9-6.1,13.723a17.411,17.411,0,0,1-3.965,1.741c-6.258,2.165-12.568,4.336-19.157,5.126s-13.5.1-19.25-3.187a11.608,11.608,0,0,1-4.168-3.675c-1.55-2.456-1.579-5.532-2.322-8.342a47.708,47.708,0,0,0-2.322-6.107c-1.283-3.123-2.27-6.386-3.251-9.6q-1.364-4.476-2.723-8.957a16.736,16.736,0,0,1-.662-2.757,10.4,10.4,0,0,0,.662,4.5q1.358,4.487,2.723,8.957c.981,3.233,1.968,6.473,3.251,9.6a47.7,47.7,0,0,1,2.322,6.107c.732,2.81.761,5.886,2.322,8.342a11.609,11.609,0,0,0,4.168,3.675c5.747,3.286,12.678,3.977,19.25,3.187s12.876-2.961,19.157-5.126a17.422,17.422,0,0,0,3.965-1.741c4.325-2.827,5.288-8.621,6.1-13.723a77.918,77.918,0,0,1,4.232-16.725c1.266-3.181,2.9-6.415,2.624-9.834C579.156,428.4,579.144,428.365,579.144,428.33Z" transform="translate(-508.325 -387.05)"/>
        <path id="패스_350" data-name="패스 350" d="M510.257,420.819v-.064a8.126,8.126,0,0,0-.267-3.048,15.446,15.446,0,0,1-.226-1.927,15.877,15.877,0,0,0,.226,3.669C510.082,419.9,510.187,420.36,510.257,420.819Z" transform="translate(-508.918 -381.785)"/>
        <path id="패스_351" data-name="패스 351" d="M512.209,397.521a16.11,16.11,0,0,1,1.515-2.131c-1.062,1.016-3.024.11-3.437-1.3a3.385,3.385,0,0,0,0,1.741A2.549,2.549,0,0,0,512.209,397.521Z" transform="translate(-509.1 -372.687)"/>
      </g>
      <path id="패스_352" data-name="패스 352" d="M762.849,656.57s1.84,6.676,0,12.481S762.849,656.57,762.849,656.57Z" transform="translate(-365.727 -375.82)" opacity="0.1"/>
      <path id="패스_353" data-name="패스 353" d="M775.818,668.3s.772,8.476-.969,9.979S775.818,668.3,775.818,668.3Z" transform="translate(-370.859 -380.74)" opacity="0.1"/>
      <line id="선_143" data-name="선 143" y1="0.581" x2="58.986" transform="translate(115.51 198.434)" fill="none" stroke="#267dff" stroke-miterlimit="10" stroke-width="2"/>
      <line id="선_144" data-name="선 144" y1="0.575" x2="58.986" transform="translate(115.51 205.678)" fill="none" stroke="#267dff" stroke-miterlimit="10" stroke-width="2"/>
      <line id="선_145" data-name="선 145" y1="0.581" x2="58.986" transform="translate(115.51 212.917)" fill="none" stroke="#267dff" stroke-miterlimit="10" stroke-width="2"/>
    </g>
  </g>
</svg>
